<svg width="205" height="74" viewBox="0 0 205 74" fill="none" xmlns="http://www.w3.org/2000/svg">
<g clip-path="url(#clip0)">
<g clip-path="url(#clip1)">
<path d="M24.4685 32.4366C24.5212 32.701 24.5476 32.9565 24.5476 33.2032C24.5476 33.4323 24.5212 33.6791 24.4685 33.9434L21.1174 33.917V42.7993C21.1174 43.5395 21.4604 43.9096 22.1465 43.9096H24.1518C24.275 44.2092 24.3365 44.5088 24.3365 44.8084C24.3365 45.108 24.3189 45.2931 24.2837 45.3636C23.4746 45.4693 22.639 45.5222 21.7771 45.5222C20.0708 45.5222 19.2176 44.7908 19.2176 43.328V33.917L17.3442 33.9434C17.2915 33.6791 17.2651 33.4323 17.2651 33.2032C17.2651 32.9565 17.2915 32.701 17.3442 32.4366L19.2176 32.463V29.6873C19.2176 29.2115 19.288 28.8766 19.4287 28.6828C19.5695 28.4713 19.8421 28.3655 20.2467 28.3655H20.9591L21.1174 28.5241V32.4895L24.4685 32.4366Z" fill="#0300B0"/>
<path d="M37.2364 32.5688L33.6215 44.967C32.9531 47.2405 32.2406 48.8442 31.4842 49.7783C30.7278 50.7124 29.5932 51.1794 28.0804 51.1794C27.3065 51.1794 26.594 51.0648 25.9432 50.8357C25.8904 50.3423 26.0311 49.8664 26.3654 49.4082C26.9107 49.6021 27.4912 49.699 28.1068 49.699C29.0391 49.699 29.7516 49.3818 30.2441 48.7473C30.7366 48.1129 31.1852 47.1259 31.5898 45.7865L31.6689 45.5222C31.2116 45.4869 30.8598 45.3812 30.6135 45.205C30.3848 45.0287 30.1913 44.7027 30.033 44.2268L26.339 32.5952C26.8843 32.3661 27.2713 32.2516 27.5 32.2516C28.0101 32.2516 28.3531 32.56 28.529 33.1768L30.6135 39.8121C30.6839 40.0236 31.0884 41.3982 31.8273 43.936C31.8624 44.0594 31.9504 44.1211 32.0911 44.1211L35.3102 32.4366C35.5389 32.3661 35.8379 32.3309 36.2073 32.3309C36.5943 32.3309 36.9198 32.3837 37.1836 32.4895L37.2364 32.5688Z" fill="#0300B0"/>
<path d="M42.3064 44.5441V49.7783C42.3064 50.2541 42.236 50.589 42.0953 50.7828C41.9546 50.9943 41.6731 51.1001 41.251 51.1001H40.5385L40.3802 50.9415V32.5159L40.5385 32.3573H41.2246C41.6468 32.3573 41.9282 32.4718 42.0689 32.701C42.2273 32.9124 42.3064 33.2649 42.3064 33.7584V33.8906C43.3618 32.7098 44.6196 32.1194 46.0796 32.1194C47.5748 32.1194 48.7006 32.7274 49.457 33.9434C50.2134 35.1418 50.5916 36.8073 50.5916 38.9397C50.5916 39.9795 50.4509 40.9136 50.1694 41.7419C49.9056 42.5702 49.545 43.2752 49.0876 43.8567C48.6478 44.4207 48.1377 44.8613 47.5572 45.1785C46.9767 45.4781 46.3786 45.6279 45.763 45.6279C44.5492 45.6279 43.397 45.2666 42.3064 44.5441ZM42.3064 35.9525V42.7465C43.3794 43.5395 44.3909 43.936 45.3408 43.936C46.2907 43.936 47.0735 43.5131 47.6891 42.6671C48.3048 41.8212 48.6127 40.5435 48.6127 38.834C48.6127 37.9881 48.5335 37.2567 48.3752 36.6398C48.2345 36.0054 48.041 35.4855 47.7947 35.0802C47.5484 34.6572 47.2582 34.3488 46.924 34.1549C46.6073 33.9434 46.2643 33.8377 45.8949 33.8377C45.1913 33.8377 44.5228 34.0227 43.8896 34.3928C43.2563 34.7629 42.7286 35.2828 42.3064 35.9525Z" fill="#0300B0"/>
<path d="M63.9526 39.5213H55.7729C55.8609 42.5173 56.9955 44.0154 59.1767 44.0154C60.3729 44.0154 61.6482 43.6453 63.0027 42.9051C63.3897 43.2575 63.6272 43.7069 63.7151 44.2533C62.2727 45.2402 60.6544 45.7337 58.8601 45.7337C57.9454 45.7337 57.1626 45.5662 56.5118 45.2314C55.8609 44.8789 55.3244 44.4031 54.9022 43.8039C54.4976 43.187 54.1986 42.4645 54.0051 41.6362C53.8116 40.8078 53.7148 39.9002 53.7148 38.9133C53.7148 37.9088 53.8292 36.9923 54.0579 36.164C54.3041 35.3357 54.6559 34.6219 55.1133 34.0227C55.5707 33.4235 56.116 32.9565 56.7492 32.6216C57.4001 32.2868 58.1389 32.1194 58.9657 32.1194C59.7748 32.1194 60.496 32.2692 61.1293 32.5688C61.7802 32.8508 62.3167 33.2473 62.7388 33.7584C63.1786 34.2518 63.5128 34.851 63.7415 35.556C63.9702 36.2433 64.0845 36.9835 64.0845 37.7766C64.0845 38.0938 64.0669 38.4022 64.0318 38.7018C64.0142 38.9838 63.9878 39.257 63.9526 39.5213ZM55.7729 38.0145H62.1056V37.6708C62.1056 36.4548 61.8505 35.4767 61.3404 34.7365C60.8303 33.9963 60.0651 33.6262 59.0448 33.6262C58.0421 33.6262 57.2594 34.0227 56.6965 34.8158C56.1511 35.6089 55.8433 36.6751 55.7729 38.0145Z" fill="#0300B0"/>
<path d="M66.6685 44.4912C66.6861 44.1035 66.7916 43.6805 66.9851 43.2223C67.1962 42.7465 67.4337 42.3764 67.6976 42.112C69.0872 42.8698 70.3098 43.2487 71.3652 43.2487C71.9457 43.2487 72.4119 43.1342 72.7637 42.9051C73.1331 42.676 73.3178 42.3675 73.3178 41.9798C73.3178 41.363 72.8428 40.8695 71.8929 40.4994L70.4153 39.9443C68.1989 39.1336 67.0907 37.8383 67.0907 36.0583C67.0907 35.4238 67.205 34.8599 67.4337 34.3664C67.68 33.8553 68.0142 33.4235 68.4364 33.0711C68.8761 32.701 69.3951 32.419 69.9931 32.2251C70.5912 32.0313 71.2597 31.9343 71.9985 31.9343C72.3327 31.9343 72.7021 31.9608 73.1067 32.0136C73.5289 32.0665 73.951 32.1458 74.3732 32.2516C74.7954 32.3397 75.2 32.4454 75.587 32.5688C75.974 32.6921 76.3082 32.8243 76.5896 32.9653C76.5896 33.4059 76.5017 33.8641 76.3258 34.34C76.1499 34.8158 75.9124 35.1683 75.6134 35.3974C74.2237 34.7806 73.0187 34.4721 71.9985 34.4721C71.5411 34.4721 71.1805 34.5867 70.9167 34.8158C70.6528 35.0273 70.5209 35.3093 70.5209 35.6617C70.5209 36.2081 70.9606 36.6398 71.8402 36.9571L73.4497 37.5387C74.6107 37.944 75.4726 38.4991 76.0355 39.2041C76.5984 39.909 76.8799 40.7285 76.8799 41.6626C76.8799 42.9139 76.4137 43.9184 75.4814 44.6762C74.5491 45.4164 73.2122 45.7865 71.4708 45.7865C69.7645 45.7865 68.1637 45.3548 66.6685 44.4912Z" fill="#0300B0"/>
<path d="M89.794 39.9707H82.5114C82.5642 40.94 82.7841 41.7067 83.1711 42.2706C83.5757 42.8169 84.2705 43.0901 85.2556 43.0901C86.2758 43.0901 87.4456 42.7905 88.7649 42.1913C89.275 42.72 89.6005 43.4162 89.7412 44.2797C88.3339 45.2843 86.6452 45.7865 84.6751 45.7865C82.8105 45.7865 81.3944 45.2138 80.4269 44.0682C79.477 42.9051 79.0021 41.1868 79.0021 38.9133C79.0021 37.8559 79.1252 36.9042 79.3715 36.0583C79.6178 35.1947 79.9784 34.4633 80.4533 33.8641C80.9283 33.2473 81.5088 32.7715 82.1948 32.4366C82.8808 32.1018 83.6636 31.9343 84.5432 31.9343C85.4403 31.9343 86.2319 32.0753 86.9179 32.3573C87.6039 32.6217 88.1844 33.0094 88.6594 33.5205C89.1343 34.0139 89.4861 34.6043 89.7148 35.2916C89.9611 35.979 90.0842 36.728 90.0842 37.5387C90.0842 37.9792 90.0578 38.4022 90.0051 38.8076C89.9523 39.1953 89.8819 39.583 89.794 39.9707ZM84.7015 34.4193C83.3294 34.4193 82.5906 35.4591 82.485 37.5387H86.8651V37.2214C86.8651 36.3755 86.6892 35.697 86.3374 35.1859C85.9856 34.6748 85.4403 34.4193 84.7015 34.4193Z" fill="#0300B0"/>
<path d="M104.255 36.587V42.3499C104.255 43.4778 104.439 44.315 104.809 44.8613C104.246 45.3548 103.569 45.6015 102.777 45.6015C102.021 45.6015 101.502 45.4341 101.22 45.0992C100.939 44.7467 100.798 44.2004 100.798 43.4602V37.3007C100.798 36.5077 100.701 35.9525 100.508 35.6353C100.314 35.3181 99.9538 35.1595 99.4261 35.1595C98.4938 35.1595 97.623 35.5824 96.8139 36.4284V45.4164C96.55 45.4693 96.2686 45.5046 95.9695 45.5222C95.6881 45.5398 95.3978 45.5486 95.0988 45.5486C94.7997 45.5486 94.5007 45.5398 94.2017 45.5222C93.9202 45.5046 93.6476 45.4693 93.3837 45.4164V32.3309L93.542 32.1458H94.8613C95.8464 32.1458 96.4621 32.6745 96.7083 33.7319C97.9924 32.6217 99.2678 32.0665 100.534 32.0665C101.801 32.0665 102.733 32.4807 103.331 33.309C103.947 34.1197 104.255 35.2123 104.255 36.587Z" fill="#0300B0"/>
<path d="M107.023 44.4912C107.04 44.1035 107.146 43.6805 107.339 43.2223C107.55 42.7465 107.788 42.3764 108.052 42.112C109.441 42.8698 110.664 43.2487 111.719 43.2487C112.3 43.2487 112.766 43.1342 113.118 42.9051C113.487 42.676 113.672 42.3675 113.672 41.9798C113.672 41.363 113.197 40.8695 112.247 40.4994L110.769 39.9443C108.553 39.1336 107.445 37.8383 107.445 36.0583C107.445 35.4238 107.559 34.8599 107.788 34.3664C108.034 33.8553 108.368 33.4235 108.79 33.0711C109.23 32.701 109.749 32.419 110.347 32.2251C110.945 32.0313 111.614 31.9343 112.353 31.9343C112.687 31.9343 113.056 31.9608 113.461 32.0136C113.883 32.0665 114.305 32.1458 114.727 32.2516C115.149 32.3397 115.554 32.4454 115.941 32.5688C116.328 32.6921 116.662 32.8243 116.944 32.9653C116.944 33.4059 116.856 33.8641 116.68 34.34C116.504 34.8158 116.266 35.1683 115.967 35.3974C114.578 34.7806 113.373 34.4721 112.353 34.4721C111.895 34.4721 111.535 34.5867 111.271 34.8158C111.007 35.0273 110.875 35.3093 110.875 35.6617C110.875 36.2081 111.315 36.6398 112.194 36.9571L113.804 37.5387C114.965 37.944 115.827 38.4991 116.39 39.2041C116.952 39.909 117.234 40.7285 117.234 41.6626C117.234 42.9139 116.768 43.9184 115.835 44.6762C114.903 45.4164 113.566 45.7865 111.825 45.7865C110.119 45.7865 108.518 45.3548 107.023 44.4912Z" fill="#0300B0"/>
<path d="M130.148 39.9707H122.866C122.918 40.94 123.138 41.7067 123.525 42.2706C123.93 42.8169 124.625 43.0901 125.61 43.0901C126.63 43.0901 127.8 42.7905 129.119 42.1913C129.629 42.72 129.955 43.4162 130.095 44.2797C128.688 45.2843 126.999 45.7865 125.029 45.7865C123.165 45.7865 121.749 45.2138 120.781 44.0682C119.831 42.9051 119.356 41.1868 119.356 38.9133C119.356 37.8559 119.479 36.9042 119.726 36.0583C119.972 35.1947 120.332 34.4633 120.807 33.8641C121.282 33.2473 121.863 32.7715 122.549 32.4366C123.235 32.1018 124.018 31.9343 124.897 31.9343C125.794 31.9343 126.586 32.0753 127.272 32.3573C127.958 32.6217 128.538 33.0094 129.013 33.5205C129.488 34.0139 129.84 34.6043 130.069 35.2916C130.315 35.979 130.438 36.728 130.438 37.5387C130.438 37.9792 130.412 38.4022 130.359 38.8076C130.306 39.1953 130.236 39.583 130.148 39.9707ZM125.056 34.4193C123.683 34.4193 122.945 35.4591 122.839 37.5387H127.219V37.2214C127.219 36.3755 127.043 35.697 126.691 35.1859C126.34 34.6748 125.794 34.4193 125.056 34.4193Z" fill="#0300B0"/>
<path d="M134.239 49.1174V24.9289C134.503 24.876 134.802 24.8496 135.136 24.8496C135.488 24.8496 135.813 24.876 136.113 24.9289V49.1174C135.813 49.1703 135.488 49.1967 135.136 49.1967C134.802 49.1967 134.503 49.1703 134.239 49.1174Z" fill="#0300B0"/>
</g>
<path d="M99.4704 56.4445V56.2667C99.4704 56.0298 99.4381 55.7983 99.3736 55.5721C99.3091 55.3459 99.207 55.1467 99.0672 54.9743C98.9383 54.802 98.7663 54.6674 98.5513 54.5705C98.347 54.4628 98.0998 54.4089 97.8095 54.4089C97.1968 54.4089 96.713 54.6889 96.3583 55.249C96.0035 55.809 95.8262 56.606 95.8262 57.6399C95.8262 58.6738 95.9982 59.4493 96.3422 59.9663C96.6969 60.4724 97.1753 60.7255 97.7773 60.7255C98.4115 60.7255 99.1371 60.4294 99.9541 59.837C100.244 60.0093 100.432 60.2624 100.518 60.5963C99.6907 61.3717 98.7609 61.7595 97.7289 61.7595C97.2129 61.7595 96.7614 61.6571 96.3744 61.4525C95.9874 61.2479 95.6595 60.9732 95.3908 60.6286C95.1221 60.2732 94.9178 59.8586 94.7781 59.3847C94.6491 58.9 94.5846 58.3831 94.5846 57.8338C94.5846 57.0907 94.6652 56.4445 94.8264 55.8952C94.9984 55.3351 95.2296 54.8774 95.5198 54.522C95.8208 54.1558 96.1702 53.8866 96.5679 53.7143C96.9657 53.5312 97.3903 53.4396 97.8418 53.4396C98.304 53.4396 98.7071 53.515 99.0511 53.6658C99.3951 53.8058 99.68 53.9889 99.9057 54.2151C100.142 54.4412 100.32 54.6889 100.438 54.9582C100.556 55.2274 100.615 55.4805 100.615 55.7175C100.615 56.2344 100.406 56.4929 99.9864 56.4929C99.8359 56.4929 99.6639 56.4768 99.4704 56.4445Z" fill="#D90368"/>
<path d="M104.465 60.6448H105.142C105.185 60.7417 105.212 60.8494 105.223 60.9679C105.244 61.0863 105.255 61.194 105.255 61.291C105.255 61.3556 105.25 61.4094 105.239 61.4525C105.239 61.4848 105.239 61.5117 105.239 61.5333C105.067 61.5656 104.9 61.5925 104.739 61.6141C104.578 61.6356 104.417 61.6464 104.255 61.6464C103.815 61.6464 103.444 61.5494 103.143 61.3556C102.842 61.151 102.691 60.7955 102.691 60.2894V49.7886L102.788 49.6917H103.223C103.481 49.6917 103.653 49.7563 103.739 49.8855C103.825 50.004 103.868 50.2086 103.868 50.4994V59.9501C103.868 60.4132 104.067 60.6448 104.465 60.6448Z" fill="#D90368"/>
<path d="M112.115 60.9032C111.545 61.4741 110.804 61.7595 109.89 61.7595C109.352 61.7595 108.874 61.6571 108.455 61.4525C108.046 61.2479 107.697 60.9679 107.407 60.6125C107.127 60.2463 106.912 59.8101 106.762 59.3039C106.622 58.7869 106.552 58.2215 106.552 57.6076C106.552 56.9937 106.622 56.4337 106.762 55.9275C106.912 55.4105 107.127 54.969 107.407 54.6028C107.697 54.2366 108.046 53.9512 108.455 53.7466C108.874 53.5419 109.352 53.4396 109.89 53.4396C110.427 53.4396 110.9 53.5419 111.309 53.7466C111.728 53.9512 112.078 54.2366 112.357 54.6028C112.647 54.969 112.868 55.4105 113.018 55.9275C113.169 56.4337 113.244 56.9937 113.244 57.6076C113.244 59.0508 112.868 60.1493 112.115 60.9032ZM109.906 60.8225C110.594 60.8225 111.115 60.5317 111.47 59.9501C111.836 59.3577 112.018 58.5769 112.018 57.6076C112.018 57.1768 111.975 56.7676 111.889 56.3798C111.814 55.9813 111.691 55.6367 111.519 55.3459C111.347 55.0444 111.126 54.8074 110.857 54.6351C110.589 54.4628 110.266 54.3766 109.89 54.3766C109.524 54.3766 109.207 54.4628 108.939 54.6351C108.681 54.7966 108.466 55.0228 108.294 55.3136C108.122 55.6044 107.993 55.949 107.907 56.3475C107.831 56.7352 107.794 57.1553 107.794 57.6076C107.794 58.06 107.831 58.48 107.907 58.8677C107.993 59.2554 108.116 59.5947 108.278 59.8855C108.45 60.1763 108.67 60.4078 108.939 60.5801C109.207 60.7417 109.53 60.8225 109.906 60.8225Z" fill="#D90368"/>
<path d="M115.414 59.1908V55.1682C115.414 54.5974 115.349 54.1397 115.22 53.795C115.403 53.6227 115.655 53.5365 115.978 53.5365C116.386 53.5365 116.591 53.8004 116.591 54.3281V58.8031C116.591 59.4816 116.677 59.9555 116.849 60.2247C117.021 60.494 117.322 60.6286 117.752 60.6286C118.182 60.6286 118.628 60.5155 119.09 60.2894C119.552 60.0524 119.939 59.7509 120.251 59.3847V53.6496C120.316 53.6281 120.402 53.6119 120.509 53.6012C120.617 53.5904 120.729 53.585 120.848 53.585C120.966 53.585 121.073 53.5904 121.17 53.6012C121.278 53.6119 121.369 53.6281 121.444 53.6496V59.3362C121.444 60.1978 121.595 60.774 121.896 61.0648C121.799 61.3664 121.616 61.571 121.348 61.6787C120.821 61.5064 120.482 61.1079 120.332 60.4832C119.966 60.8494 119.525 61.1456 119.009 61.3717C118.504 61.5979 117.994 61.711 117.478 61.711C116.757 61.711 116.231 61.4794 115.897 61.0163C115.575 60.5532 115.414 59.9447 115.414 59.1908Z" fill="#D90368"/>
<path d="M126.715 53.5042C127.36 53.5042 128.032 53.725 128.731 54.1666V49.7886L128.828 49.6917H129.263C129.51 49.6917 129.677 49.7563 129.763 49.8855C129.849 50.004 129.892 50.2086 129.892 50.4994V59.3362C129.892 60.187 130.043 60.7632 130.343 61.0648C130.236 61.3556 130.059 61.5602 129.811 61.6787C129.317 61.5064 128.989 61.1456 128.828 60.5963C128.161 61.3717 127.377 61.7595 126.474 61.7595C125.538 61.7595 124.84 61.3933 124.377 60.6609C123.926 59.9286 123.7 58.9108 123.7 57.6076C123.7 56.9506 123.786 56.3691 123.958 55.8629C124.13 55.3459 124.356 54.9151 124.635 54.5705C124.915 54.2151 125.232 53.9512 125.587 53.7789C125.952 53.5958 126.328 53.5042 126.715 53.5042ZM126.635 60.7255C127 60.7255 127.371 60.6178 127.747 60.4024C128.134 60.1763 128.462 59.8693 128.731 59.4816V55.2651C128.022 54.7805 127.398 54.5382 126.861 54.5382C126.312 54.5382 125.85 54.802 125.474 55.3298C125.098 55.8467 124.909 56.6275 124.909 57.6722C124.909 58.7169 125.071 59.487 125.393 59.9824C125.726 60.4778 126.14 60.7255 126.635 60.7255Z" fill="#D90368"/>
</g>
<path d="M25.7968 16.704C25.7968 17.348 25.6948 17.934 25.4908 18.462C25.2868 18.99 24.9988 19.442 24.6268 19.818C24.2548 20.194 23.8088 20.486 23.2888 20.694C22.7688 20.898 22.1928 21 21.5608 21H18.3448V12.402H21.5608C22.1928 12.402 22.7688 12.506 23.2888 12.714C23.8088 12.918 24.2548 13.21 24.6268 13.59C24.9988 13.966 25.2868 14.418 25.4908 14.946C25.6948 15.474 25.7968 16.06 25.7968 16.704ZM24.6028 16.704C24.6028 16.176 24.5308 15.704 24.3868 15.288C24.2428 14.872 24.0388 14.52 23.7748 14.232C23.5108 13.944 23.1908 13.724 22.8148 13.572C22.4388 13.42 22.0208 13.344 21.5608 13.344H19.5148V20.058H21.5608C22.0208 20.058 22.4388 19.982 22.8148 19.83C23.1908 19.678 23.5108 19.46 23.7748 19.176C24.0388 18.888 24.2428 18.536 24.3868 18.12C24.5308 17.704 24.6028 17.232 24.6028 16.704Z" fill="#D90368"/>
<path d="M29.6179 14.826C29.9819 14.826 30.3179 14.888 30.6259 15.012C30.9339 15.132 31.1999 15.308 31.4239 15.54C31.6479 15.768 31.8219 16.052 31.9459 16.392C32.0739 16.728 32.1379 17.112 32.1379 17.544C32.1379 17.712 32.1199 17.824 32.0839 17.88C32.0479 17.936 31.9799 17.964 31.8799 17.964H27.8359C27.8439 18.348 27.8959 18.682 27.9919 18.966C28.0879 19.25 28.2199 19.488 28.3879 19.68C28.5559 19.868 28.7559 20.01 28.9879 20.106C29.2199 20.198 29.4799 20.244 29.7679 20.244C30.0359 20.244 30.2659 20.214 30.4579 20.154C30.6539 20.09 30.8219 20.022 30.9619 19.95C31.1019 19.878 31.2179 19.812 31.3099 19.752C31.4059 19.688 31.4879 19.656 31.5559 19.656C31.6439 19.656 31.7119 19.69 31.7599 19.758L32.0599 20.148C31.9279 20.308 31.7699 20.448 31.5859 20.568C31.4019 20.684 31.2039 20.78 30.9919 20.856C30.7839 20.932 30.5679 20.988 30.3439 21.024C30.1199 21.064 29.8979 21.084 29.6779 21.084C29.2579 21.084 28.8699 21.014 28.5139 20.874C28.1619 20.73 27.8559 20.522 27.5959 20.25C27.3399 19.974 27.1399 19.634 26.9959 19.23C26.8519 18.826 26.7799 18.362 26.7799 17.838C26.7799 17.414 26.8439 17.018 26.9719 16.65C27.1039 16.282 27.2919 15.964 27.5359 15.696C27.7799 15.424 28.0779 15.212 28.4299 15.06C28.7819 14.904 29.1779 14.826 29.6179 14.826ZM29.6419 15.612C29.1259 15.612 28.7199 15.762 28.4239 16.062C28.1279 16.358 27.9439 16.77 27.8719 17.298H31.1779C31.1779 17.05 31.1439 16.824 31.0759 16.62C31.0079 16.412 30.9079 16.234 30.7759 16.086C30.6439 15.934 30.4819 15.818 30.2899 15.738C30.1019 15.654 29.8859 15.612 29.6419 15.612Z" fill="#D90368"/>
<path d="M33.5049 23.058V14.922H34.1409C34.2929 14.922 34.3889 14.996 34.4289 15.144L34.5189 15.864C34.7789 15.548 35.0749 15.294 35.4069 15.102C35.7429 14.91 36.1289 14.814 36.5649 14.814C36.9129 14.814 37.2289 14.882 37.5129 15.018C37.7969 15.15 38.0389 15.348 38.2389 15.612C38.4389 15.872 38.5929 16.196 38.7009 16.584C38.8089 16.972 38.8629 17.418 38.8629 17.922C38.8629 18.37 38.8029 18.788 38.6829 19.176C38.5629 19.56 38.3909 19.894 38.1669 20.178C37.9429 20.458 37.6669 20.68 37.3389 20.844C37.0149 21.004 36.6489 21.084 36.2409 21.084C35.8649 21.084 35.5429 21.022 35.2749 20.898C35.0109 20.774 34.7769 20.598 34.5729 20.37V23.058H33.5049ZM36.2109 15.678C35.8629 15.678 35.5569 15.758 35.2929 15.918C35.0329 16.078 34.7929 16.304 34.5729 16.596V19.536C34.7689 19.8 34.9829 19.986 35.2149 20.094C35.4509 20.202 35.7129 20.256 36.0009 20.256C36.5649 20.256 36.9989 20.054 37.3029 19.65C37.6069 19.246 37.7589 18.67 37.7589 17.922C37.7589 17.526 37.7229 17.186 37.6509 16.902C37.5829 16.618 37.4829 16.386 37.3509 16.206C37.2189 16.022 37.0569 15.888 36.8649 15.804C36.6729 15.72 36.4549 15.678 36.2109 15.678Z" fill="#D90368"/>
<path d="M41.314 12.162V21H40.246V12.162H41.314Z" fill="#D90368"/>
<path d="M45.6563 14.826C46.1003 14.826 46.5003 14.9 46.8563 15.048C47.2163 15.196 47.5203 15.406 47.7683 15.678C48.0203 15.95 48.2123 16.28 48.3443 16.668C48.4803 17.052 48.5483 17.482 48.5483 17.958C48.5483 18.438 48.4803 18.87 48.3443 19.254C48.2123 19.638 48.0203 19.966 47.7683 20.238C47.5203 20.51 47.2163 20.72 46.8563 20.868C46.5003 21.012 46.1003 21.084 45.6563 21.084C45.2123 21.084 44.8103 21.012 44.4503 20.868C44.0943 20.72 43.7903 20.51 43.5383 20.238C43.2863 19.966 43.0923 19.638 42.9563 19.254C42.8203 18.87 42.7523 18.438 42.7523 17.958C42.7523 17.482 42.8203 17.052 42.9563 16.668C43.0923 16.28 43.2863 15.95 43.5383 15.678C43.7903 15.406 44.0943 15.196 44.4503 15.048C44.8103 14.9 45.2123 14.826 45.6563 14.826ZM45.6563 20.25C46.2563 20.25 46.7043 20.05 47.0003 19.65C47.2963 19.246 47.4443 18.684 47.4443 17.964C47.4443 17.24 47.2963 16.676 47.0003 16.272C46.7043 15.868 46.2563 15.666 45.6563 15.666C45.3523 15.666 45.0883 15.718 44.8643 15.822C44.6403 15.926 44.4523 16.076 44.3003 16.272C44.1523 16.468 44.0403 16.71 43.9643 16.998C43.8923 17.282 43.8563 17.604 43.8563 17.964C43.8563 18.324 43.8923 18.646 43.9643 18.93C44.0403 19.214 44.1523 19.454 44.3003 19.65C44.4523 19.842 44.6403 19.99 44.8643 20.094C45.0883 20.198 45.3523 20.25 45.6563 20.25Z" fill="#D90368"/>
<path d="M51.4939 22.794C51.4579 22.874 51.4119 22.938 51.3559 22.986C51.3039 23.034 51.2219 23.058 51.1099 23.058H50.3179L51.4279 20.646L48.9199 14.922H49.8439C49.9359 14.922 50.0079 14.946 50.0599 14.994C50.1119 15.038 50.1499 15.088 50.1739 15.144L51.7999 18.972C51.8359 19.06 51.8659 19.148 51.8899 19.236C51.9179 19.324 51.9419 19.414 51.9619 19.506C51.9899 19.414 52.0179 19.324 52.0459 19.236C52.0739 19.148 52.1059 19.058 52.1419 18.966L53.7199 15.144C53.7439 15.08 53.7839 15.028 53.8399 14.988C53.8999 14.944 53.9639 14.922 54.0319 14.922H54.8839L51.4939 22.794Z" fill="#D90368"/>
<path d="M57.3809 14.922H58.2209C58.3089 14.922 58.3809 14.944 58.4369 14.988C58.4929 15.032 58.5309 15.084 58.5509 15.144L59.7149 19.056C59.7469 19.2 59.7769 19.34 59.8049 19.476C59.8329 19.608 59.8569 19.742 59.8769 19.878C59.9089 19.742 59.9449 19.608 59.9849 19.476C60.0249 19.34 60.0669 19.2 60.1109 19.056L61.3949 15.12C61.4149 15.06 61.4489 15.01 61.4969 14.97C61.5489 14.93 61.6129 14.91 61.6889 14.91H62.1509C62.2309 14.91 62.2969 14.93 62.3489 14.97C62.4009 15.01 62.4369 15.06 62.4569 15.12L63.7109 19.056C63.7549 19.196 63.7929 19.334 63.8249 19.47C63.8609 19.606 63.8949 19.74 63.9269 19.872C63.9469 19.74 63.9729 19.602 64.0049 19.458C64.0369 19.314 64.0709 19.18 64.1069 19.056L65.2949 15.144C65.3149 15.08 65.3529 15.028 65.4089 14.988C65.4649 14.944 65.5309 14.922 65.6069 14.922H66.4109L64.4429 21H63.5969C63.4929 21 63.4209 20.932 63.3809 20.796L62.0369 16.674C62.0049 16.582 61.9789 16.49 61.9589 16.398C61.9389 16.302 61.9189 16.208 61.8989 16.116C61.8789 16.208 61.8589 16.302 61.8389 16.398C61.8189 16.494 61.7929 16.588 61.7609 16.68L60.3989 20.796C60.3549 20.932 60.2729 21 60.1529 21H59.3489L57.3809 14.922Z" fill="#D90368"/>
<path d="M68.5484 14.922V21H67.4804V14.922H68.5484ZM68.7884 13.014C68.7884 13.118 68.7664 13.216 68.7224 13.308C68.6824 13.396 68.6264 13.476 68.5544 13.548C68.4864 13.616 68.4064 13.67 68.3144 13.71C68.2224 13.75 68.1244 13.77 68.0204 13.77C67.9164 13.77 67.8184 13.75 67.7264 13.71C67.6384 13.67 67.5584 13.616 67.4864 13.548C67.4184 13.476 67.3644 13.396 67.3244 13.308C67.2844 13.216 67.2644 13.118 67.2644 13.014C67.2644 12.91 67.2844 12.812 67.3244 12.72C67.3644 12.624 67.4184 12.542 67.4864 12.474C67.5584 12.402 67.6384 12.346 67.7264 12.306C67.8184 12.266 67.9164 12.246 68.0204 12.246C68.1244 12.246 68.2224 12.266 68.3144 12.306C68.4064 12.346 68.4864 12.402 68.5544 12.474C68.6264 12.542 68.6824 12.624 68.7224 12.72C68.7664 12.812 68.7884 12.91 68.7884 13.014Z" fill="#D90368"/>
<path d="M72.2727 21.096C71.7927 21.096 71.4227 20.962 71.1627 20.694C70.9067 20.426 70.7787 20.04 70.7787 19.536V15.816H70.0467C69.9827 15.816 69.9287 15.798 69.8847 15.762C69.8407 15.722 69.8187 15.662 69.8187 15.582V15.156L70.8147 15.03L71.0607 13.152C71.0687 13.092 71.0947 13.044 71.1387 13.008C71.1827 12.968 71.2387 12.948 71.3067 12.948H71.8467V15.042H73.5867V15.816H71.8467V19.464C71.8467 19.72 71.9087 19.91 72.0327 20.034C72.1567 20.158 72.3167 20.22 72.5127 20.22C72.6247 20.22 72.7207 20.206 72.8007 20.178C72.8847 20.146 72.9567 20.112 73.0167 20.076C73.0767 20.04 73.1267 20.008 73.1667 19.98C73.2107 19.948 73.2487 19.932 73.2807 19.932C73.3367 19.932 73.3867 19.966 73.4307 20.034L73.7427 20.544C73.5587 20.716 73.3367 20.852 73.0767 20.952C72.8167 21.048 72.5487 21.096 72.2727 21.096Z" fill="#D90368"/>
<path d="M74.9072 21V12.162H75.9753V15.738C76.2352 15.462 76.5232 15.242 76.8392 15.078C77.1553 14.91 77.5193 14.826 77.9313 14.826C78.2633 14.826 78.5553 14.882 78.8073 14.994C79.0633 15.102 79.2752 15.258 79.4432 15.462C79.6152 15.662 79.7453 15.904 79.8333 16.188C79.9213 16.472 79.9653 16.786 79.9653 17.13V21H78.8973V17.13C78.8973 16.67 78.7913 16.314 78.5793 16.062C78.3713 15.806 78.0513 15.678 77.6193 15.678C77.3033 15.678 77.0073 15.754 76.7313 15.906C76.4593 16.058 76.2072 16.264 75.9753 16.524V21H74.9072Z" fill="#D90368"/>
<path d="M169.662 42.3193L169.954 45.9286C171.147 45.3666 173.754 43.7114 175.849 39.3889C174.72 40.0231 173.558 40.5766 172.52 41.0698C171.578 41.5218 170.622 41.9361 169.661 42.3193L169.662 42.3193Z" fill="#0300B0"/>
<path d="M181.633 30.4445C182.19 28.1689 182.239 25.8866 182.152 24.2036C180.459 24.1039 178.157 24.1451 175.859 24.7072L181.633 30.4445Z" fill="#0300B0"/>
<path d="M174.075 30.6799C173.675 30.6799 173.274 30.8312 172.97 31.1337C172.676 31.4259 172.513 31.8143 172.513 32.2285C172.513 32.641 172.674 33.0295 172.968 33.3217C173.579 33.9284 174.57 33.9284 175.18 33.3217C175.474 33.0295 175.638 32.641 175.638 32.2268C175.638 31.8143 175.476 31.4259 175.18 31.132C174.876 30.8312 174.476 30.6799 174.075 30.6799Z" fill="#0300B0"/>
<path d="M166.883 30.5268C162.558 32.6013 160.898 35.1776 160.331 36.3639L163.935 36.6509C164.323 35.6884 164.743 34.731 165.203 33.7875C165.696 32.7734 166.25 31.6373 166.882 30.527L166.883 30.5268Z" fill="#0300B0"/>
<path d="M169.313 16C157.562 16 148 25.5612 148 37.3127C148 49.0642 157.561 58.6254 169.313 58.6254C181.064 58.6254 190.625 49.0642 190.625 37.3127C190.625 25.5612 181.064 16 169.313 16ZM155.535 46.2896L159.564 41.7554C159.753 41.5423 160.08 41.5234 160.291 41.7124C160.504 41.9015 160.523 42.2281 160.334 42.4394L156.305 46.9736C156.204 47.0888 156.061 47.1472 155.92 47.1472C155.798 47.1472 155.676 47.1043 155.578 47.0166C155.365 46.8276 155.346 46.5027 155.535 46.2896L155.535 46.2896ZM156.194 51.2224C156.065 51.2224 155.936 51.1743 155.836 51.0781C155.632 50.8804 155.627 50.5539 155.824 50.3493L162.039 43.9126C162.237 43.7081 162.563 43.7029 162.768 43.9006C162.972 44.0982 162.978 44.4248 162.78 44.6293L156.563 51.066C156.464 51.1692 156.329 51.2224 156.194 51.2224H156.194ZM164.982 46.7864L160.953 51.3206C160.852 51.4357 160.709 51.4942 160.568 51.4942C160.446 51.4942 160.324 51.4512 160.226 51.3635C160.013 51.1745 159.994 50.8479 160.183 50.6348L164.212 46.1006C164.401 45.8875 164.727 45.8686 164.939 46.0576C165.152 46.2467 165.173 46.5733 164.982 46.7864L164.982 46.7864ZM179.146 37.0602C178.622 37.5569 178.027 38.0158 177.393 38.442C177.391 38.4489 177.391 38.4558 177.388 38.4627C174.528 45.4754 170.138 47.0066 169.648 47.1579C169.598 47.1734 169.547 47.1803 169.497 47.1803C169.395 47.1803 169.294 47.1493 169.208 47.0909C169.079 47.0032 168.997 46.8623 168.983 46.7059L168.66 42.7029C167.785 43.0278 166.908 43.3303 166.028 43.5932C165.98 43.607 165.93 43.6156 165.88 43.6156C165.746 43.6156 165.616 43.5623 165.516 43.466L162.79 40.7573C162.654 40.6232 162.605 40.4239 162.66 40.2417C162.923 39.3771 163.223 38.5143 163.546 37.6549L159.549 37.337C159.392 37.3249 159.25 37.2424 159.162 37.1118C159.074 36.9812 159.05 36.8196 159.097 36.6701C159.25 36.182 160.79 31.8213 167.845 28.9789C168.275 28.3447 168.734 27.7431 169.234 27.2103L169.236 27.2086C173.108 23.13 179.321 22.9512 182.678 23.2073C182.932 23.2262 183.135 23.4308 183.152 23.6851C183.292 25.6789 183.274 28.6765 182.393 31.5827C182.386 31.6085 182.381 31.6325 182.369 31.6566C181.765 33.616 180.763 35.5289 179.146 37.0602L179.146 37.0602Z" fill="#0300B0"/>
<path d="M174.722 25.0321C172.996 25.5993 171.327 26.4999 169.983 27.9145C168.365 29.6367 167.125 32.189 166.128 34.2395C165.17 36.2023 164.366 38.2201 163.735 40.2446L166.021 42.5168C168.061 41.8894 170.095 41.0902 172.071 40.1381C174.261 39.0982 176.741 37.9191 178.436 36.3104C179.845 34.9749 180.742 33.306 181.308 31.5769L174.722 25.0321ZM175.908 34.0539C175.402 34.5557 174.739 34.8067 174.075 34.8067C173.412 34.8067 172.748 34.5557 172.243 34.0539C171.753 33.5674 171.482 32.9178 171.482 32.2286C171.482 31.5394 171.752 30.8896 172.243 30.4033C173.254 29.3995 174.897 29.3995 175.908 30.4033C176.397 30.8914 176.669 31.5394 176.669 32.2286C176.669 32.9178 176.397 33.5675 175.908 34.0539H175.908Z" fill="#0300B0"/>
<path d="M8 2H197V-2H8V2ZM203 8V66H207V8H203ZM197 72H8V76H197V72ZM2 66V8H-2V66H2ZM8 72C4.6863 72 2 69.3137 2 66H-2C-2 71.5229 2.47716 76 8 76V72ZM203 66C203 69.3137 200.314 72 197 72V76C202.523 76 207 71.5229 207 66H203ZM197 2C200.314 2 203 4.68629 203 8H207C207 2.47715 202.523 -2 197 -2V2ZM8 -2C2.47715 -2 -2 2.47715 -2 8H2C2 4.68629 4.68629 2 8 2V-2Z" fill="#D90368"/>
<defs>
<clipPath id="clip0">
<rect width="119.47" height="37.4503" fill="white" transform="translate(17.2651 24.8496)"/>
</clipPath>
<clipPath id="clip1">
<rect width="119.47" height="26.4355" fill="white" transform="translate(17.2651 24.8496)"/>
</clipPath>
</defs>
</svg>
