<svg fill="none" height="70" viewBox="0 0 215 70" width="215" xmlns="http://www.w3.org/2000/svg" xmlns:xlink="http://www.w3.org/1999/xlink"><clipPath id="a"><path d="m75 22.6876h119.47v37.4503h-119.47z"/></clipPath><clipPath id="b"><path d="m75 22.6876h119.47v26.4355h-119.47z"/></clipPath><rect fill="#fff" height="68" rx="7" stroke="#d90368" stroke-width="2" width="213" x="1" y="1"/><g clip-path="url(#a)"><g clip-path="url(#b)" fill="#0300b0"><path d="m82.2034 30.2746c.0527.2644.0791.5199.0791.7666 0 .2291-.0264.4759-.0791.7402l-3.351-.0264v8.8823c0 .7402.343 1.1103 1.029 1.1103h2.0053c.1232.2996.1847.5992.1847.8988s-.0175.4847-.0527.5552c-.8092.1057-1.6448.1586-2.5067.1586-1.7063 0-2.5594-.7314-2.5594-2.1942v-9.411l-1.8734.0264c-.0528-.2643-.0792-.5111-.0792-.7402 0-.2467.0264-.5022.0792-.7666l1.8734.0264v-2.7757c0-.4758.0703-.8107.2111-1.0045.1407-.2115.4133-.3173.8179-.3173h.7124l.1584.1586v3.9654z"/><path d="m94.9713 30.4068-3.6149 12.3982c-.6684 2.2735-1.3808 3.8772-2.1372 4.8113-.7564.934-1.891 1.4011-3.4038 1.4011-.774 0-1.4864-.1146-2.1373-.3437-.0528-.4934.088-.9693.4222-1.4275.5453.1939 1.1258.2908 1.7415.2908.9323 0 1.6447-.3172 2.1372-.9517.4926-.6344.9411-1.6214 1.3457-2.9608l.0792-.2643c-.4574-.0353-.8092-.141-1.0555-.3172-.2287-.1763-.4222-.5023-.5805-.9782l-3.694-11.6316c.5453-.2291.9323-.3436 1.161-.3436.5101 0 .8531.3084 1.029.9252l2.0845 6.6353c.0704.2115.475 1.5861 1.2138 4.1239.0352.1234.1231.1851.2638.1851l3.2191-11.6845c.2287-.0705.5277-.1057.8972-.1057.3869 0 .7124.0528.9762.1586z"/><path d="m100.041 42.3821v5.2342c0 .4758-.07.8107-.2108 1.0045-.1407.2115-.4221.3173-.8443.3173h-.7124l-.1583-.1586v-18.4256l.1583-.1586h.686c.4222 0 .7036.1145.8444.3437.1583.2114.2371.5639.2371 1.0574v.1322c1.056-1.1808 2.314-1.7712 3.774-1.7712 1.495 0 2.621.608 3.377 1.824.756 1.1984 1.135 2.8639 1.135 4.9963 0 1.0398-.141 1.9739-.423 2.8022-.264.8283-.624 1.5333-1.081 2.1148-.44.564-.95 1.0046-1.531 1.3218-.58.2996-1.178.4494-1.794.4494-1.214 0-2.366-.3613-3.457-1.0838zm0-8.5916v6.7939c1.073.7931 2.085 1.1896 3.035 1.1896s1.732-.4229 2.348-1.2689c.616-.8459.924-2.1236.924-3.8331 0-.8459-.08-1.5773-.238-2.1942-.141-.6344-.334-1.1543-.58-1.5596-.247-.423-.537-.7314-.871-.9253-.317-.2115-.66-.3172-1.029-.3172-.704 0-1.372.185-2.006.5551-.633.3701-1.16.89-1.583 1.5597z"/><path d="m121.688 37.3593h-8.18c.088 2.996 1.222 4.4941 3.404 4.4941 1.196 0 2.471-.3701 3.826-1.1103.387.3524.624.8018.712 1.3482-1.442.9869-3.061 1.4804-4.855 1.4804-.915 0-1.697-.1675-2.348-.5023-.651-.3525-1.188-.8283-1.61-1.4275-.404-.6169-.703-1.3394-.897-2.1677-.193-.8284-.29-1.736-.29-2.7229 0-1.0046.114-1.921.343-2.7493.246-.8283.598-1.5421 1.055-2.1413.458-.5992 1.003-1.0662 1.636-1.4011.651-.3348 1.39-.5022 2.217-.5022.809 0 1.53.1498 2.163.4494.651.282 1.188.6785 1.61 1.1896.44.4934.774 1.0926 1.002 1.7976.229.6873.343 1.4275.343 2.2206 0 .3172-.017.6256-.052.9252-.018.282-.044.5552-.079.8195zm-8.18-1.5068h6.333v-.3437c0-1.216-.256-2.1941-.766-2.9343s-1.275-1.1103-2.295-1.1103c-1.003 0-1.786.3965-2.349 1.1896-.545.7931-.853 1.8593-.923 3.1987z"/><path d="m124.403 42.3292c.018-.3877.124-.8107.317-1.2689.211-.4759.449-.8459.712-1.1103 1.39.7578 2.613 1.1367 3.668 1.1367.581 0 1.047-.1145 1.399-.3436.369-.2291.554-.5376.554-.9253 0-.6168-.475-1.1103-1.425-1.4804l-1.478-.5551c-2.216-.8107-3.324-2.106-3.324-3.886 0-.6345.114-1.1984.343-1.6919.246-.5111.58-.9429 1.002-1.2953.44-.3701.959-.6521 1.557-.846.598-.1938 1.267-.2908 2.005-.2908.335 0 .704.0265 1.109.0793.422.0529.844.1322 1.266.238.422.0881.827.1938 1.214.3172.387.1233.721.2555 1.003.3965 0 .4406-.088.8988-.264 1.3747-.176.4758-.414.8283-.713 1.0574-1.389-.6169-2.594-.9253-3.615-.9253-.457 0-.818.1146-1.081.3437-.264.2115-.396.4935-.396.8459 0 .5464.44.9781 1.319 1.2954l1.61.5816c1.161.4053 2.023.9604 2.585 1.6654.563.7049.845 1.5244.845 2.4585 0 1.2513-.466 2.2558-1.399 3.0136-.932.7402-2.269 1.1103-4.01 1.1103-1.707 0-3.307-.4317-4.803-1.2953z"/><path d="m147.529 37.8087h-7.283c.053.9693.273 1.736.66 2.2999.405.5463 1.099.8195 2.084.8195 1.021 0 2.191-.2996 3.51-.8988.51.5287.835 1.2248.976 2.0884-1.407 1.0046-3.096 1.5068-5.066 1.5068-1.865 0-3.281-.5727-4.248-1.7183-.95-1.1631-1.425-2.8814-1.425-5.1549 0-1.0574.123-2.0091.369-2.855.247-.8636.607-1.595 1.082-2.1942.475-.6168 1.056-1.0927 1.742-1.4275.686-.3349 1.469-.5023 2.348-.5023.897 0 1.689.141 2.375.423.686.2643 1.266.6521 1.741 1.1632.475.4934.827 1.0838 1.056 1.7711.246.6874.369 1.4364.369 2.2471 0 .4405-.026.8635-.079 1.2689-.053.3877-.123.7754-.211 1.1631zm-5.093-5.5514c-1.372 0-2.11 1.0398-2.216 3.1194h4.38v-.3173c0-.8459-.176-1.5244-.528-2.0355-.351-.5111-.897-.7666-1.636-.7666z"/><path d="m161.99 34.425v5.7629c0 1.1279.184 1.9651.554 2.5114-.563.4935-1.24.7402-2.032.7402-.756 0-1.275-.1674-1.557-.5023-.281-.3525-.422-.8988-.422-1.639v-6.1595c0-.793-.097-1.3482-.29-1.6654-.194-.3172-.554-.4758-1.082-.4758-.932 0-1.803.4229-2.612 1.2689v8.988c-.264.0529-.546.0882-.845.1058-.281.0176-.571.0264-.87.0264s-.598-.0088-.897-.0264c-.282-.0176-.555-.0529-.818-.1058v-13.0855l.158-.1851h1.319c.985 0 1.601.5287 1.847 1.5861 1.284-1.1103 2.56-1.6654 3.826-1.6654 1.267 0 2.199.4142 2.797 1.2425.616.8107.924 1.9033.924 3.278z"/><path d="m164.757 42.3292c.018-.3877.124-.8107.317-1.2689.211-.4759.449-.8459.713-1.1103 1.389.7578 2.612 1.1367 3.667 1.1367.581 0 1.047-.1145 1.399-.3436.369-.2291.554-.5376.554-.9253 0-.6168-.475-1.1103-1.425-1.4804l-1.478-.5551c-2.216-.8107-3.324-2.106-3.324-3.886 0-.6345.114-1.1984.343-1.6919.246-.5111.58-.9429 1.002-1.2953.44-.3701.959-.6521 1.557-.846.598-.1938 1.267-.2908 2.005-.2908.335 0 .704.0265 1.109.0793.422.0529.844.1322 1.266.238.422.0881.827.1938 1.214.3172.387.1233.721.2555 1.003.3965 0 .4406-.088.8988-.264 1.3747-.176.4758-.414.8283-.713 1.0574-1.389-.6169-2.594-.9253-3.615-.9253-.457 0-.817.1146-1.081.3437-.264.2115-.396.4935-.396.8459 0 .5464.44.9781 1.319 1.2954l1.61.5816c1.161.4053 2.023.9604 2.586 1.6654.562.7049.844 1.5244.844 2.4585 0 1.2513-.466 2.2558-1.399 3.0136-.932.7402-2.269 1.1103-4.01 1.1103-1.707 0-3.307-.4317-4.803-1.2953z"/><path d="m187.883 37.8087h-7.283c.053.9693.273 1.736.66 2.2999.405.5463 1.1.8195 2.085.8195 1.02 0 2.19-.2996 3.509-.8988.51.5287.835 1.2248.976 2.0884-1.407 1.0046-3.096 1.5068-5.066 1.5068-1.865 0-3.281-.5727-4.248-1.7183-.95-1.1631-1.425-2.8814-1.425-5.1549 0-1.0574.123-2.0091.37-2.855.246-.8636.606-1.595 1.081-2.1942.475-.6168 1.056-1.0927 1.742-1.4275.686-.3349 1.469-.5023 2.348-.5023.897 0 1.689.141 2.375.423.686.2643 1.266.6521 1.741 1.1632.475.4934.827 1.0838 1.056 1.7711.246.6874.369 1.4364.369 2.2471 0 .4405-.026.8635-.079 1.2689-.053.3877-.123.7754-.211 1.1631zm-5.093-5.5514c-1.372 0-2.11 1.0398-2.216 3.1194h4.38v-.3173c0-.8459-.176-1.5244-.528-2.0355-.351-.5111-.897-.7666-1.636-.7666z"/><path d="m191.974 46.9554v-24.1885c.264-.0529.563-.0793.897-.0793.352 0 .677.0264.976.0793v24.1885c-.299.0529-.624.0793-.976.0793-.334 0-.633-.0264-.897-.0793z"/></g><g fill="#d90368"><path d="m157.205 54.2825v-.1778c0-.2369-.032-.4685-.096-.6946-.065-.2262-.167-.4254-.307-.5978-.129-.1723-.301-.3069-.516-.4038-.204-.1077-.451-.1616-.742-.1616-.612 0-1.096.28-1.451.8401-.355.56-.532 1.357-.532 2.3909s.172 1.8094.516 2.3263c.355.5062.833.7593 1.435.7593.634 0 1.36-.2961 2.177-.8885.29.1723.478.4254.564.7593-.827.7754-1.757 1.1632-2.789 1.1632-.516 0-.968-.1024-1.355-.307s-.715-.4793-.983-.8239c-.269-.3554-.473-.7701-.613-1.2439-.129-.4847-.194-1.0016-.194-1.5509 0-.7431.081-1.3893.242-1.9386.172-.5601.403-1.0178.694-1.3732.301-.3662.65-.6354 1.048-.8077.398-.1831.822-.2747 1.274-.2747.462 0 .865.0754 1.209.2262.344.14.629.3231.855.5493.236.2261.414.4738.532.7431.118.2692.177.5223.177.7593 0 .5169-.209.7754-.629.7754-.15 0-.322-.0161-.516-.0484z"/><path d="m162.2 58.4828h.677c.043.0969.07.2046.081.3231.021.1184.032.2261.032.3231 0 .0646-.005.1184-.016.1615v.0808c-.172.0323-.339.0592-.5.0808-.161.0215-.322.0323-.484.0323-.44 0-.811-.097-1.112-.2908-.301-.2046-.452-.5601-.452-1.0663v-10.5007l.097-.097h.435c.258 0 .43.0647.516.1939.086.1185.129.3231.129.6139v9.4507c0 .4631.199.6947.597.6947z"/><path d="m169.85 58.7412c-.57.5709-1.311.8563-2.225.8563-.538 0-1.016-.1024-1.435-.307-.409-.2046-.758-.4846-1.048-.84-.28-.3662-.495-.8024-.645-1.3086-.14-.517-.21-1.0824-.21-1.6963s.07-1.1739.21-1.6801c.15-.517.365-.9585.645-1.3247.29-.3662.639-.6516 1.048-.8562.419-.2047.897-.307 1.435-.307.537 0 1.01.1023 1.419.307.419.2046.769.49 1.048.8562.29.3662.511.8077.661 1.3247.151.5062.226 1.0662.226 1.6801 0 1.4432-.376 2.5417-1.129 3.2956zm-2.209-.0807c.688 0 1.209-.2908 1.564-.8724.366-.5924.548-1.3732.548-2.3425 0-.4308-.043-.84-.129-1.2278-.075-.3985-.198-.7431-.37-1.0339-.172-.3016-.393-.5385-.662-.7108-.268-.1723-.591-.2585-.967-.2585-.366 0-.683.0862-.951.2585-.258.1615-.473.3877-.645.6785s-.301.6354-.387 1.0339c-.076.3877-.113.8078-.113 1.2601 0 .4524.037.8724.113 1.2601.086.3877.209.727.37 1.0178.172.2908.393.5223.662.6946.268.1616.591.2424.967.2424z"/><path d="m173.149 57.0288v-4.0226c0-.5708-.065-1.0285-.194-1.3732.183-.1723.435-.2585.758-.2585.408 0 .613.2639.613.7916v4.475c0 .6785.086 1.1524.258 1.4216.172.2693.473.4039.903.4039s.876-.1131 1.338-.3393c.462-.2369.849-.5385 1.161-.9046v-5.7351c.064-.0215.15-.0377.258-.0484.107-.0108.22-.0162.339-.0162.118 0 .225.0054.322.0162.108.0107.199.0269.274.0484v5.6866c0 .8616.151 1.4378.452 1.7286-.097.3016-.28.5062-.549.6139-.526-.1723-.865-.5708-1.015-1.1955-.366.3662-.807.6624-1.323.8885-.505.2262-1.016.3393-1.532.3393-.72 0-1.246-.2316-1.58-.6947-.322-.4631-.483-1.0716-.483-1.8255z"/><path d="m184.45 51.3422c.645 0 1.317.2208 2.016.6624v-4.378l.097-.097h.435c.247 0 .414.0647.5.1939.086.1185.129.3231.129.6139v8.8368c0 .8508.15 1.427.451 1.7286-.107.2908-.284.4954-.532.6139-.494-.1723-.822-.5331-.983-1.0824-.667.7754-1.452 1.1632-2.355 1.1632-.935 0-1.633-.3662-2.096-1.0986-.451-.7323-.677-1.7501-.677-3.0533 0-.657.086-1.2385.258-1.7447.172-.517.398-.9478.677-1.2924.28-.3554.597-.6193.952-.7916.365-.1831.741-.2747 1.128-.2747zm-.08 7.2213c.365 0 .736-.1077 1.112-.3231.387-.2261.715-.5331.984-.9208v-4.2165c-.71-.4846-1.333-.7269-1.871-.7269-.548 0-1.01.2638-1.386.7916-.377.5169-.565 1.2977-.565 2.3424s.162 1.8148.484 2.3102c.333.4954.747.7431 1.242.7431z"/></g></g><g fill="#d90368"><path d="m83.5317 14.542c0 .644-.102 1.23-.306 1.758s-.492.98-.864 1.356-.818.668-1.338.876c-.52.204-1.096.306-1.728.306h-3.216v-8.598h3.216c.632 0 1.208.104 1.728.312.52.204.966.496 1.338.876.372.376.66.828.864 1.356s.306 1.114.306 1.758zm-1.194 0c0-.528-.072-1-.216-1.416s-.348-.768-.612-1.056-.584-.508-.96-.66-.794-.228-1.254-.228h-2.046v6.714h2.046c.46 0 .878-.076 1.254-.228s.696-.37.96-.654c.264-.288.468-.64.612-1.056s.216-.888.216-1.416z"/><path d="m87.3529 12.664c.364 0 .7.062 1.008.186.308.12.574.296.798.528.224.228.398.512.522.852.128.336.192.72.192 1.152 0 .168-.018.28-.054.336s-.104.084-.204.084h-4.044c.008.384.06.718.156 1.002s.228.522.396.714c.168.188.368.33.6.426.232.092.492.138.78.138.268 0 .498-.03.69-.09.196-.064.364-.132.504-.204s.256-.138.348-.198c.096-.064.178-.096.246-.096.088 0 .156.034.204.102l.3.39c-.132.16-.29.3-.474.42-.184.116-.382.212-.594.288-.208.076-.424.132-.648.168-.224.04-.446.06-.666.06-.42 0-.808-.07-1.164-.21-.352-.144-.658-.352-.918-.624-.256-.276-.456-.616-.6-1.02s-.216-.868-.216-1.392c0-.424.064-.82.192-1.188.132-.368.32-.686.564-.954.244-.272.542-.484.894-.636.352-.156.748-.234 1.188-.234zm.024.786c-.516 0-.922.15-1.218.45-.296.296-.48.708-.552 1.236h3.306c0-.248-.034-.474-.102-.678-.068-.208-.168-.386-.3-.534-.132-.152-.294-.268-.486-.348-.188-.084-.404-.126-.648-.126z"/><path d="m91.2398 20.896v-8.136h.636c.152 0 .248.074.288.222l.09.72c.26-.316.556-.57.888-.762.336-.192.722-.288 1.158-.288.348 0 .664.068.948.204.284.132.526.33.726.594.2.26.354.584.462.972s.162.834.162 1.338c0 .448-.06.866-.18 1.254-.12.384-.292.718-.516 1.002-.224.28-.5.502-.828.666-.324.16-.69.24-1.098.24-.376 0-.698-.062-.966-.186-.264-.124-.498-.3-.702-.528v2.688zm2.706-7.38c-.348 0-.654.08-.918.24-.26.16-.5.386-.72.678v2.94c.196.264.41.45.642.558.236.108.498.162.786.162.564 0 .998-.202 1.302-.606s.456-.98.456-1.728c0-.396-.036-.736-.108-1.02-.068-.284-.168-.516-.3-.696-.132-.184-.294-.318-.486-.402s-.41-.126-.654-.126z"/><path d="m99.0489 10v8.838h-1.068v-8.838z"/><path d="m103.391 12.664c.444 0 .844.074 1.2.222.36.148.664.358.912.63.252.272.444.602.576.99.136.384.204.814.204 1.29 0 .48-.068.912-.204 1.296-.132.384-.324.712-.576.984-.248.272-.552.482-.912.63-.356.144-.756.216-1.2.216s-.846-.072-1.206-.216c-.356-.148-.66-.358-.912-.63s-.446-.6-.582-.984-.204-.816-.204-1.296c0-.476.068-.906.204-1.29.136-.388.33-.718.582-.99s.556-.482.912-.63c.36-.148.762-.222 1.206-.222zm0 5.424c.6 0 1.048-.2 1.344-.6.296-.404.444-.966.444-1.686 0-.724-.148-1.288-.444-1.692s-.744-.606-1.344-.606c-.304 0-.568.052-.792.156s-.412.254-.564.45c-.148.196-.26.438-.336.726-.072.284-.108.606-.108.966s.036.682.108.966c.076.284.188.524.336.72.152.192.34.34.564.444s.488.156.792.156z"/><path d="m109.229 20.632c-.036.08-.082.144-.138.192-.052.048-.134.072-.246.072h-.792l1.11-2.412-2.508-5.724h.924c.092 0 .164.024.216.072.052.044.09.094.114.15l1.626 3.828c.036.088.066.176.09.264.028.088.052.178.072.27.028-.092.056-.182.084-.27s.06-.178.096-.27l1.578-3.822c.024-.064.064-.116.12-.156.06-.044.124-.066.192-.066h.852z"/><path d="m115.116 12.76h.84c.088 0 .16.022.216.066s.094.096.114.156l1.164 3.912c.032.144.062.284.09.42.028.132.052.266.072.402.032-.136.068-.27.108-.402.04-.136.082-.276.126-.42l1.284-3.936c.02-.06.054-.11.102-.15.052-.04.116-.06.192-.06h.462c.08 0 .146.02.198.06s.088.09.108.15l1.254 3.936c.044.14.082.278.114.414.036.136.07.27.102.402.02-.132.046-.27.078-.414s.066-.278.102-.402l1.188-3.912c.02-.064.058-.116.114-.156.056-.044.122-.066.198-.066h.804l-1.968 6.078h-.846c-.104 0-.176-.068-.216-.204l-1.344-4.122c-.032-.092-.058-.184-.078-.276-.02-.096-.04-.19-.06-.282-.02.092-.04.186-.06.282s-.046.19-.078.282l-1.362 4.116c-.044.136-.126.204-.246.204h-.804z"/><path d="m126.283 12.76v6.078h-1.068v-6.078zm.24-1.908c0 .104-.022.202-.066.294-.04.088-.096.168-.168.24-.068.068-.148.122-.24.162s-.19.06-.294.06-.202-.02-.294-.06c-.088-.04-.168-.094-.24-.162-.068-.072-.122-.152-.162-.24-.04-.092-.06-.19-.06-.294s.02-.202.06-.294c.04-.096.094-.178.162-.246.072-.072.152-.128.24-.168.092-.04.19-.06.294-.06s.202.02.294.06.172.096.24.168c.072.068.128.15.168.246.044.092.066.19.066.294z"/><path d="m130.008 18.934c-.48 0-.85-.134-1.11-.402-.256-.268-.384-.654-.384-1.158v-3.72h-.732c-.064 0-.118-.018-.162-.054-.044-.04-.066-.1-.066-.18v-.426l.996-.126.246-1.878c.008-.06.034-.108.078-.144.044-.04.1-.06.168-.06h.54v2.094h1.74v.774h-1.74v3.648c0 .256.062.446.186.57s.284.186.48.186c.112 0 .208-.014.288-.042.084-.032.156-.066.216-.102s.11-.068.15-.096c.044-.032.082-.048.114-.048.056 0 .106.034.15.102l.312.51c-.184.172-.406.308-.666.408-.26.096-.528.144-.804.144z"/><path d="m132.642 18.838v-8.838h1.068v3.576c.26-.276.548-.496.864-.66.316-.168.68-.252 1.092-.252.332 0 .624.056.876.168.256.108.468.264.636.468.172.2.302.442.39.726s.132.598.132.942v3.87h-1.068v-3.87c0-.46-.106-.816-.318-1.068-.208-.256-.528-.384-.96-.384-.316 0-.612.076-.888.228-.272.152-.524.358-.756.618v4.476z"/></g><path d="m36.6616 40.3193.2922 3.6093c1.1928-.562 3.8002-2.2172 5.8951-6.5397-1.1292.6342-2.291 1.1877-3.3292 1.6809-.9418.452-1.8975.8663-2.8583 1.2495z" fill="#0300b0"/><path d="m48.6327 28.4445c.5569-2.2756.6067-4.5579.5191-6.2409-1.693-.0997-3.9944-.0585-6.2925.5036z" fill="#0300b0"/><path d="m41.0753 28.6799c-.4005 0-.801.1513-1.1052.4538-.2939.2922-.4572.6806-.4572 1.0948 0 .4125.1616.801.4555 1.0932.6102.6067 1.6019.6067 2.212 0 .2939-.2922.4572-.6807.4572-1.0949 0-.4125-.1615-.8009-.4572-1.0948-.3042-.3008-.7047-.4521-1.1051-.4521z" fill="#0300b0"/><path d="m33.8826 28.5268c-4.3244 2.0745-5.9849 4.6508-6.552 5.8371l3.6042.287c.3884-.9625.8078-1.9199 1.2684-2.8634.4933-1.0141 1.0467-2.1502 1.6792-3.2605z" fill="#0300b0"/><path d="m36.3127 14c-11.7511 0-21.3127 9.5612-21.3127 21.3127s9.5612 21.3127 21.3127 21.3127 21.3127-9.5612 21.3127-21.3127-9.5612-21.3127-21.3127-21.3127zm-13.7773 30.2896 4.0288-4.5342c.189-.2131.5156-.232.727-.043.2131.1891.232.5157.0429.727l-4.0287 4.5342c-.1014.1152-.244.1736-.385.1736-.122 0-.244-.0429-.342-.1306-.2131-.189-.232-.5139-.043-.727zm.6583 4.9328c-.1289 0-.2578-.0481-.3575-.1443-.2045-.1977-.2097-.5242-.012-.7288l6.215-6.4367c.1976-.2045.5242-.2097.7287-.012.2046.1976.2097.5242.0121.7287l-6.2168 6.4367c-.0997.1032-.2338.1564-.3695.1564zm8.7881-4.436-4.0287 4.5342c-.1014.1151-.244.1736-.385.1736-.122 0-.244-.043-.342-.1307-.2131-.189-.232-.5156-.043-.7287l4.0287-4.5342c.1891-.2131.5157-.232.7271-.043.2131.1891.2337.5157.0429.7288zm14.1641-9.7262c-.5242.4967-1.1189.9556-1.7532 1.3818-.0017.0069-.0017.0138-.0051.0207-2.86 7.0127-7.2499 8.5439-7.7396 8.6952-.0499.0155-.1014.0224-.1513.0224-.1014 0-.2028-.031-.2887-.0894-.1289-.0877-.2114-.2286-.2252-.385l-.3231-4.003c-.8748.3249-1.7514.6274-2.6314.8903-.0481.0138-.098.0224-.1478.0224-.1341 0-.2647-.0533-.3644-.1496l-2.7259-2.7087c-.1358-.1341-.1857-.3334-.1307-.5156.263-.8646.5638-1.7274.8869-2.5868l-3.9978-.3179c-.1564-.0121-.2991-.0946-.3867-.2252-.0877-.1306-.1117-.2922-.0653-.4417.1529-.4881 1.693-4.8488 8.7485-7.6912.4297-.6342.8886-1.2358 1.3887-1.7686l.0017-.0017c3.8724-4.0786 10.0857-4.2574 13.4425-4.0013.2544.0189.4572.2235.4743.4778.1393 1.9938.1221 4.9914-.7597 7.8976-.0068.0258-.012.0498-.024.0739-.6033 1.9594-1.6053 3.8723-3.2227 5.4036z" fill="#0300b0"/><path d="m41.7216 23.0321c-1.7256.5672-3.3945 1.4678-4.7388 2.8824-1.6173 1.7222-2.8583 4.2745-3.8551 6.325-.9574 1.9628-1.7617 3.9806-2.3925 6.0051l2.2859 2.2722c2.0402-.6274 4.0734-1.4266 6.05-2.3787 2.1897-1.0399 4.6697-2.219 6.3646-3.8277 1.4094-1.3355 2.3066-3.0044 2.872-4.7335zm1.186 9.0218c-.5053.5018-1.1688.7528-1.8322.7528-.6635 0-1.3269-.251-1.8322-.7528-.4899-.4865-.7615-1.1361-.7615-1.8253 0-.6893.2699-1.339.7615-1.8253 1.0106-1.0038 2.6537-1.0038 3.6643 0 .4899.4881.7614 1.136.7614 1.8253 0 .6892-.2715 1.3389-.7614 1.8253z" fill="#0300b0"/></svg>
