<svg width="290" height="62" viewBox="0 0 290 62" fill="none" xmlns="http://www.w3.org/2000/svg">
<g clip-path="url(#clip0_3735_8655)">
<path opacity="0.88" d="M30.3067 45.2991L29.657 47.8266" stroke="#C0FF58" stroke-width="0.12"/>
<path opacity="0.88" d="M35.978 46.6943L33.2571 51.1826" stroke="#C0FF58" stroke-width="0.12"/>
<path opacity="0.88" d="M34.4147 44.2108L32.4912 46.2703" stroke="#C0FF58" stroke-width="0.12"/>
<path opacity="0.88" d="M35.4246 44.4625L35.8917 46.1446" stroke="#C0FF58" stroke-width="0.12"/>
<path opacity="0.88" d="M31.0707 44.6052L34.0691 43.7712" stroke="#C0FF58" stroke-width="0.12"/>
<path opacity="0.88" d="M31.6171 41.799L33.9699 42.8199" stroke="#C0FF58" stroke-width="0.12"/>
<path opacity="0.88" d="M33.5242 39.9364L34.5949 42.1603" stroke="#C0FF58" stroke-width="0.12"/>
<path opacity="0.88" d="M38.5643 37.639L35.9252 42.2321" stroke="#C0FF58" stroke-width="0.12"/>
<path opacity="0.88" d="M20.0276 30.1895L15.9875 31.7592" stroke="#C0FF58" stroke-width="0.12"/>
<path opacity="0.88" d="M19.8804 25.8989L13.6597 24.1709" stroke="#C0FF58" stroke-width="0.12"/>
<path opacity="0.88" d="M20.1678 25.255L17.6412 22.4617" stroke="#C0FF58" stroke-width="0.12"/>
<path opacity="0.88" d="M25.5391 23.2493L23.0426 22.1707" stroke="#C0FF58" stroke-width="0.12"/>
<path opacity="0.88" d="M25.6075 23.8588L24.5425 24.615" stroke="#C0FF58" stroke-width="0.12"/>
<path opacity="0.88" d="M22.5428 17.5876L20.2488 16.5408" stroke="#C0FF58" stroke-width="0.12"/>
<path opacity="0.88" d="M22.861 18.5414L17.7476 21.633" stroke="#C0FF58" stroke-width="0.12"/>
<path opacity="0.88" d="M27.4394 16.7188L24.9249 17.5656" stroke="#C0FF58" stroke-width="0.12"/>
<path opacity="0.88" d="M24.1916 13.2344L23.8076 16.6395" stroke="#C0FF58" stroke-width="0.12"/>
<path opacity="0.88" d="M31.0663 11.397L27.8116 14.2953" stroke="#C0FF58" stroke-width="0.12"/>
<path opacity="0.88" d="M28.9092 20.4973L26.4578 23.1059" stroke="#C0FF58" stroke-width="0.12"/>
<path opacity="0.88" d="M29.163 19.3499L28.1239 17.0573" stroke="#C0FF58" stroke-width="0.12"/>
<path opacity="0.88" d="M20.835 30.9028L20.0983 33.0237" stroke="#C0FF58" stroke-width="0.12"/>
<path opacity="0.88" d="M16.213 29.0841L15.3878 31.2943" stroke="#C0FF58" stroke-width="0.12"/>
<path opacity="0.88" d="M14.4353 31.7709L12.3311 30.6287" stroke="#C0FF58" stroke-width="0.12"/>
<path opacity="0.88" d="M22.5532 27.7935L21.8812 28.8588" stroke="#C0FF58" stroke-width="0.12"/>
<path opacity="0.88" d="M14.8094 32.8832L14.058 34.3487" stroke="#C0FF58" stroke-width="0.12"/>
<path opacity="0.88" d="M21.8752 34.4246L17.8477 36.8153" stroke="#C0FF58" stroke-width="0.12"/>
<path opacity="0.88" d="M15.5289 40.5802L12.6914 37.5452" stroke="#C0FF58" stroke-width="0.12"/>
<path opacity="0.88" d="M24.9743 40.2544L21.7039 41.5452" stroke="#C0FF58" stroke-width="0.12"/>
<path opacity="0.88" d="M21.7328 38.7114L20.9094 41.0051" stroke="#C0FF58" stroke-width="0.12"/>
<path opacity="0.88" d="M23.8159 42.8599L21.809 42.4319" stroke="#C0FF58" stroke-width="0.12"/>
<path opacity="0.88" d="M19.453 41.9596L16.4205 41.2101" stroke="#C0FF58" stroke-width="0.12"/>
<path opacity="0.88" d="M19.6489 42.9149L17.8451 43.9379" stroke="#C0FF58" stroke-width="0.12"/>
<path opacity="0.88" d="M21.1453 43.3262L22.2698 48.9074" stroke="#C0FF58" stroke-width="0.12"/>
<path opacity="0.88" d="M40.2628 37.0347L43.8618 39.3131" stroke="#C0FF58" stroke-width="0.12"/>
<path opacity="0.88" d="M40.8768 32.8597L42.1118 33.1365" stroke="#C0FF58" stroke-width="0.12"/>
<path opacity="0.88" d="M42.1854 29.8679L46.4217 29.6469" stroke="#C0FF58" stroke-width="0.12"/>
<path opacity="0.88" d="M42.7842 25.7216L41.8065 29.3722" stroke="#C0FF58" stroke-width="0.12"/>
<path opacity="0.88" d="M43.6389 25.5375L46.725 29.0222" stroke="#C0FF58" stroke-width="0.12"/>
<path opacity="0.88" d="M43.9897 24.8645L47.8645 25.6611" stroke="#C0FF58" stroke-width="0.12"/>
<path opacity="0.88" d="M48.8629 26.0439L51.5226 32.2142" stroke="#C0FF58" stroke-width="0.12"/>
<path opacity="0.88" d="M43.7864 24.3299L49.0324 22.0847" stroke="#C0FF58" stroke-width="0.12"/>
<path opacity="0.88" d="M43.2115 23.9488L43.4269 21.9716" stroke="#C0FF58" stroke-width="0.12"/>
<path opacity="0.88" d="M44.9939 21.0953L44.7051 19.9871" stroke="#C0FF58" stroke-width="0.12"/>
<path opacity="0.88" d="M47.4286 19.5931L45.4388 21.4291" stroke="#C0FF58" stroke-width="0.12"/>
<path opacity="0.88" d="M38.1792 23.3328L42.3169 24.4059" stroke="#C0FF58" stroke-width="0.12"/>
<path opacity="0.88" d="M39.9688 26.6038L42.3191 25.2971" stroke="#C0FF58" stroke-width="0.12"/>
<path opacity="0.88" d="M40.0226 19.6583L42.6267 24.0833" stroke="#C0FF58" stroke-width="0.12"/>
<path opacity="0.88" d="M39.1513 19.673L37.7136 22.1178" stroke="#C0FF58" stroke-width="0.12"/>
<path opacity="0.88" d="M42.3334 14.7096L40.0848 18.1191" stroke="#C0FF58" stroke-width="0.12"/>
<path opacity="0.88" d="M42.1159 14.4689L39.9404 14.7766" stroke="#C0FF58" stroke-width="0.12"/>
<path opacity="0.88" d="M39.4374 14.4961L38.985 12.7437" stroke="#C0FF58" stroke-width="0.12"/>
<path opacity="0.88" d="M43.1498 33.4872L44.967 34.2981" stroke="#C0FF58" stroke-width="0.12"/>
<path opacity="0.88" d="M42.1703 35.7382L45.0419 34.9222" stroke="#C0FF58" stroke-width="0.12"/>
<path opacity="0.88" d="M44.6478 39.0438L45.9161 35.7435" stroke="#C0FF58" stroke-width="0.12"/>
<path opacity="0.88" d="M45.0071 39.6663L48.863 40.6566" stroke="#C0FF58" stroke-width="0.12"/>
<path opacity="0.88" d="M38.7057 40.8423L36.2939 42.6989" stroke="#C0FF58" stroke-width="0.12"/>
<path opacity="0.88" d="M42.2382 42.8149L36.4258 43.2942" stroke="#C0FF58" stroke-width="0.12"/>
<path opacity="0.88" d="M43.0912 47.4318L40.5251 46.2894" stroke="#C0FF58" stroke-width="0.12"/>
<path opacity="0.88" d="M43.0786 25.7964C43.5928 25.7964 44.0097 25.3755 44.0097 24.8562C44.0097 24.3369 43.5928 23.9159 43.0786 23.9159C42.5644 23.9159 42.1476 24.3369 42.1476 24.8562C42.1476 25.3755 42.5644 25.7964 43.0786 25.7964Z" fill="#C0FF58"/>
<path opacity="0.88" d="M37.3987 23.878C37.9129 23.878 38.3298 23.457 38.3298 22.9377C38.3298 22.4184 37.9129 21.9974 37.3987 21.9974C36.8845 21.9974 36.4677 22.4184 36.4677 22.9377C36.4677 23.457 36.8845 23.878 37.3987 23.878Z" fill="#C0FF58"/>
<path opacity="0.88" d="M20.7747 26.7941C21.2889 26.7941 21.7057 26.3732 21.7057 25.8539C21.7057 25.3346 21.2889 24.9136 20.7747 24.9136C20.2605 24.9136 19.8436 25.3346 19.8436 25.8539C19.8436 26.3732 20.2605 26.7941 20.7747 26.7941Z" fill="#C0FF58"/>
<path opacity="0.88" d="M15.157 33.0667C15.6712 33.0667 16.0881 32.6457 16.0881 32.1264C16.0881 31.6071 15.6712 31.1862 15.157 31.1862C14.6428 31.1862 14.226 31.6071 14.226 32.1264C14.226 32.6457 14.6428 33.0667 15.157 33.0667Z" fill="#C0FF58"/>
<path opacity="0.88" d="M47.335 30.5655C47.8492 30.5655 48.266 30.1445 48.266 29.6252C48.266 29.1059 47.8492 28.6849 47.335 28.6849C46.8208 28.6849 46.4039 29.1059 46.4039 29.6252C46.4039 30.1445 46.8208 30.5655 47.335 30.5655Z" fill="#C0FF58"/>
<path opacity="0.88" d="M39.5779 19.8246C40.0921 19.8246 40.509 19.4037 40.509 18.8844C40.509 18.3651 40.0921 17.9441 39.5779 17.9441C39.0637 17.9441 38.6469 18.3651 38.6469 18.8844C38.6469 19.4037 39.0637 19.8246 39.5779 19.8246Z" fill="#C0FF58"/>
<path opacity="0.88" d="M29.6071 20.9163C30.1213 20.9163 30.5381 20.4953 30.5381 19.976C30.5381 19.4567 30.1213 19.0358 29.6071 19.0358C29.0929 19.0358 28.676 19.4567 28.676 19.976C28.676 20.4953 29.0929 20.9163 29.6071 20.9163Z" fill="#C0FF58"/>
<path opacity="0.88" d="M17.0772 45.3567C17.5914 45.3567 18.0082 44.9358 18.0082 44.4165C18.0082 43.8972 17.5914 43.4762 17.0772 43.4762C16.563 43.4762 16.1461 43.8972 16.1461 44.4165C16.1461 44.9358 16.563 45.3567 17.0772 45.3567Z" fill="#C0FF58"/>
<path opacity="0.88" d="M22.0419 38.8876C22.5561 38.8876 22.973 38.4667 22.973 37.9474C22.973 37.4281 22.5561 37.0071 22.0419 37.0071C21.5277 37.0071 21.1108 37.4281 21.1108 37.9474C21.1108 38.4667 21.5277 38.8876 22.0419 38.8876Z" fill="#C0FF58"/>
<path opacity="0.88" d="M19.4512 17.0687C19.9854 17.0687 20.4185 16.6313 20.4185 16.0918C20.4185 15.5522 19.9854 15.1149 19.4512 15.1149C18.917 15.1149 18.4839 15.5522 18.4839 16.0918C18.4839 16.6313 18.917 17.0687 19.4512 17.0687Z" fill="#C0FF58"/>
<path opacity="0.88" d="M31.3946 15.9141C31.9288 15.9141 32.3619 15.4767 32.3619 14.9372C32.3619 14.3977 31.9288 13.9603 31.3946 13.9603C30.8603 13.9603 30.4272 14.3977 30.4272 14.9372C30.4272 15.4767 30.8603 15.9141 31.3946 15.9141Z" fill="#C0FF58"/>
<path opacity="0.88" d="M23.7771 19.088C24.4654 19.088 25.0234 18.5245 25.0234 17.8294C25.0234 17.1343 24.4654 16.5708 23.7771 16.5708C23.0888 16.5708 22.5309 17.1343 22.5309 17.8294C22.5309 18.5245 23.0888 19.088 23.7771 19.088Z" fill="#C0FF58"/>
<path opacity="0.88" d="M44.0443 20.2745C44.7326 20.2745 45.2906 19.711 45.2906 19.0159C45.2906 18.3208 44.7326 17.7573 44.0443 17.7573C43.3561 17.7573 42.7981 18.3208 42.7981 19.0159C42.7981 19.711 43.3561 20.2745 44.0443 20.2745Z" fill="#C0FF58"/>
<path opacity="0.88" d="M46.1903 35.7714C46.8786 35.7714 47.4366 35.208 47.4366 34.5129C47.4366 33.8178 46.8786 33.2543 46.1903 33.2543C45.5021 33.2543 44.9441 33.8178 44.9441 34.5129C44.9441 35.208 45.5021 35.7714 46.1903 35.7714Z" fill="#C0FF58"/>
<path opacity="0.88" d="M42.6513 33.8215C42.9695 33.8215 43.2275 33.561 43.2275 33.2396C43.2275 32.9182 42.9695 32.6577 42.6513 32.6577C42.333 32.6577 42.0751 32.9182 42.0751 33.2396C42.0751 33.561 42.333 33.8215 42.6513 33.8215Z" fill="#C0FF58"/>
<path opacity="0.88" d="M27.9245 17.0847C28.2427 17.0847 28.5006 16.8242 28.5006 16.5028C28.5006 16.1814 28.2427 15.9209 27.9245 15.9209C27.6062 15.9209 27.3483 16.1814 27.3483 16.5028C27.3483 16.8242 27.6062 17.0847 27.9245 17.0847Z" fill="#C0FF58"/>
<path opacity="0.88" d="M22.6021 22.5573C22.9203 22.5573 23.1783 22.2968 23.1783 21.9754C23.1783 21.6541 22.9203 21.3936 22.6021 21.3936C22.2838 21.3936 22.0259 21.6541 22.0259 21.9754C22.0259 22.2968 22.2838 22.5573 22.6021 22.5573Z" fill="#C0FF58"/>
<path opacity="0.88" d="M13.1705 24.5807C13.4888 24.5807 13.7467 24.3201 13.7467 23.9988C13.7467 23.6774 13.4888 23.4169 13.1705 23.4169C12.8523 23.4169 12.5944 23.6774 12.5944 23.9988C12.5944 24.3201 12.8523 24.5807 13.1705 24.5807Z" fill="#C0FF58"/>
<path opacity="0.88" d="M24.2747 13.3253C24.5929 13.3253 24.8509 13.0648 24.8509 12.7434C24.8509 12.422 24.5929 12.1615 24.2747 12.1615C23.9565 12.1615 23.6985 12.422 23.6985 12.7434C23.6985 13.0648 23.9565 13.3253 24.2747 13.3253Z" fill="#C0FF58"/>
<path opacity="0.88" d="M27.3969 15.2269C27.7151 15.2269 27.9731 14.9664 27.9731 14.645C27.9731 14.3236 27.7151 14.0631 27.3969 14.0631C27.0786 14.0631 26.8207 14.3236 26.8207 14.645C26.8207 14.9664 27.0786 15.2269 27.3969 15.2269Z" fill="#C0FF58"/>
<path opacity="0.88" d="M35.1668 44.4965C35.8551 44.4965 36.413 43.9331 36.413 43.238C36.413 42.5429 35.8551 41.9794 35.1668 41.9794C34.4785 41.9794 33.9205 42.5429 33.9205 43.238C33.9205 43.9331 34.4785 44.4965 35.1668 44.4965Z" fill="#C0FF58"/>
<path opacity="0.88" d="M21.1792 30.9864C21.8675 30.9864 22.4255 30.4229 22.4255 29.7278C22.4255 29.0327 21.8675 28.4692 21.1792 28.4692C20.4909 28.4692 19.933 29.0327 19.933 29.7278C19.933 30.4229 20.4909 30.9864 21.1792 30.9864Z" fill="#C0FF58"/>
<path opacity="0.88" d="M20.0231 34.2426C20.3728 34.2426 20.6563 33.9563 20.6563 33.6031C20.6563 33.2499 20.3728 32.9636 20.0231 32.9636C19.6734 32.9636 19.3899 33.2499 19.3899 33.6031C19.3899 33.9563 19.6734 34.2426 20.0231 34.2426Z" fill="#C0FF58"/>
<path opacity="0.88" d="M22.3565 34.8593C22.7062 34.8593 22.9897 34.573 22.9897 34.2198C22.9897 33.8666 22.7062 33.5803 22.3565 33.5803C22.0068 33.5803 21.7233 33.8666 21.7233 34.2198C21.7233 34.573 22.0068 34.8593 22.3565 34.8593Z" fill="#C0FF58"/>
<path opacity="0.88" d="M17.3278 37.8024C17.6775 37.8024 17.961 37.5161 17.961 37.1629C17.961 36.8097 17.6775 36.5234 17.3278 36.5234C16.9781 36.5234 16.6946 36.8097 16.6946 37.1629C16.6946 37.5161 16.9781 37.8024 17.3278 37.8024Z" fill="#C0FF58"/>
<path opacity="0.88" d="M25.99 24.1471C26.3397 24.1471 26.6232 23.8608 26.6232 23.5076C26.6232 23.1545 26.3397 22.8682 25.99 22.8682C25.6403 22.8682 25.3568 23.1545 25.3568 23.5076C25.3568 23.8608 25.6403 24.1471 25.99 24.1471Z" fill="#C0FF58"/>
<path opacity="0.88" d="M11.892 30.8692C12.2417 30.8692 12.5252 30.5829 12.5252 30.2297C12.5252 29.8765 12.2417 29.5902 11.892 29.5902C11.5423 29.5902 11.2588 29.8765 11.2588 30.2297C11.2588 30.5829 11.5423 30.8692 11.892 30.8692Z" fill="#C0FF58"/>
<path opacity="0.88" d="M16.4093 29.0778C16.759 29.0778 17.0425 28.7915 17.0425 28.4383C17.0425 28.0851 16.759 27.7988 16.4093 27.7988C16.0596 27.7988 15.7761 28.0851 15.7761 28.4383C15.7761 28.7915 16.0596 29.0778 16.4093 29.0778Z" fill="#C0FF58"/>
<path opacity="0.88" d="M44.4062 40.2147C44.7559 40.2147 45.0394 39.9284 45.0394 39.5753C45.0394 39.2221 44.7559 38.9358 44.4062 38.9358C44.0564 38.9358 43.7729 39.2221 43.7729 39.5753C43.7729 39.9284 44.0564 40.2147 44.4062 40.2147Z" fill="#C0FF58"/>
<path opacity="0.88" d="M39.2448 41.1084C39.5945 41.1084 39.878 40.8221 39.878 40.4689C39.878 40.1158 39.5945 39.8295 39.2448 39.8295C38.8951 39.8295 38.6116 40.1158 38.6116 40.4689C38.6116 40.8221 38.8951 41.1084 39.2448 41.1084Z" fill="#C0FF58"/>
<path opacity="0.88" d="M42.6225 43.1698C42.8379 43.1698 43.0124 42.9935 43.0124 42.7761C43.0124 42.5586 42.8379 42.3823 42.6225 42.3823C42.4072 42.3823 42.2327 42.5586 42.2327 42.7761C42.2327 42.9935 42.4072 43.1698 42.6225 43.1698Z" fill="#C0FF58"/>
<path opacity="0.88" d="M43.4335 47.9966C43.6488 47.9966 43.8233 47.8203 43.8233 47.6028C43.8233 47.3854 43.6488 47.2091 43.4335 47.2091C43.2181 47.2091 43.0436 47.3854 43.0436 47.6028C43.0436 47.8203 43.2181 47.9966 43.4335 47.9966Z" fill="#C0FF58"/>
<path opacity="0.88" d="M33.1194 51.8575C33.3347 51.8575 33.5092 51.6813 33.5092 51.4638C33.5092 51.2463 33.3347 51.0701 33.1194 51.0701C32.904 51.0701 32.7295 51.2463 32.7295 51.4638C32.7295 51.6813 32.904 51.8575 33.1194 51.8575Z" fill="#C0FF58"/>
<path opacity="0.88" d="M22.2825 49.5981C22.4978 49.5981 22.6723 49.4219 22.6723 49.2044C22.6723 48.9869 22.4978 48.8107 22.2825 48.8107C22.0671 48.8107 21.8926 48.9869 21.8926 49.2044C21.8926 49.4219 22.0671 49.5981 22.2825 49.5981Z" fill="#C0FF58"/>
<path opacity="0.88" d="M36.0195 46.858C36.2348 46.858 36.4094 46.6818 36.4094 46.4643C36.4094 46.2468 36.2348 46.0706 36.0195 46.0706C35.8042 46.0706 35.6296 46.2468 35.6296 46.4643C35.6296 46.6818 35.8042 46.858 36.0195 46.858Z" fill="#C0FF58"/>
<path opacity="0.88" d="M32.2193 46.9091C32.4347 46.9091 32.6092 46.7328 32.6092 46.5153C32.6092 46.2979 32.4347 46.1216 32.2193 46.1216C32.004 46.1216 31.8295 46.2979 31.8295 46.5153C31.8295 46.7328 32.004 46.9091 32.2193 46.9091Z" fill="#C0FF58"/>
<path opacity="0.88" d="M31.2035 42.0314C31.4188 42.0314 31.5934 41.8551 31.5934 41.6376C31.5934 41.4202 31.4188 41.2439 31.2035 41.2439C30.9882 41.2439 30.8136 41.4202 30.8136 41.6376C30.8136 41.8551 30.9882 42.0314 31.2035 42.0314Z" fill="#C0FF58"/>
<path opacity="0.88" d="M33.3985 39.9528C33.6139 39.9528 33.7884 39.7765 33.7884 39.559C33.7884 39.3416 33.6139 39.1653 33.3985 39.1653C33.1832 39.1653 33.0087 39.3416 33.0087 39.559C33.0087 39.7765 33.1832 39.9528 33.3985 39.9528Z" fill="#C0FF58"/>
<path opacity="0.88" d="M41.7905 36.2115C42.0058 36.2115 42.1804 36.0353 42.1804 35.8178C42.1804 35.6004 42.0058 35.4241 41.7905 35.4241C41.5752 35.4241 41.4006 35.6004 41.4006 35.8178C41.4006 36.0353 41.5752 36.2115 41.7905 36.2115Z" fill="#C0FF58"/>
<path opacity="0.88" d="M49.2421 41.1449C49.4574 41.1449 49.6319 40.9686 49.6319 40.7512C49.6319 40.5337 49.4574 40.3574 49.2421 40.3574C49.0267 40.3574 48.8522 40.5337 48.8522 40.7512C48.8522 40.9686 49.0267 41.1449 49.2421 41.1449Z" fill="#C0FF58"/>
<path opacity="0.88" d="M40.5368 33.105C40.7522 33.105 40.9267 32.9287 40.9267 32.7112C40.9267 32.4938 40.7522 32.3175 40.5368 32.3175C40.3215 32.3175 40.147 32.4938 40.147 32.7112C40.147 32.9287 40.3215 33.105 40.5368 33.105Z" fill="#C0FF58"/>
<path opacity="0.88" d="M39.7776 27.2186C39.9929 27.2186 40.1675 27.0423 40.1675 26.8249C40.1675 26.6074 39.9929 26.4312 39.7776 26.4312C39.5623 26.4312 39.3877 26.6074 39.3877 26.8249C39.3877 27.0423 39.5623 27.2186 39.7776 27.2186Z" fill="#C0FF58"/>
<path opacity="0.88" d="M49.3006 22.3021C49.516 22.3021 49.6905 22.1258 49.6905 21.9084C49.6905 21.6909 49.516 21.5146 49.3006 21.5146C49.0853 21.5146 48.9108 21.6909 48.9108 21.9084C48.9108 22.1258 49.0853 22.3021 49.3006 22.3021Z" fill="#C0FF58"/>
<path opacity="0.88" d="M51.5665 32.9907C51.7818 32.9907 51.9564 32.8144 51.9564 32.597C51.9564 32.3795 51.7818 32.2032 51.5665 32.2032C51.3512 32.2032 51.1766 32.3795 51.1766 32.597C51.1766 32.8144 51.3512 32.9907 51.5665 32.9907Z" fill="#C0FF58"/>
<path opacity="0.88" d="M43.4479 21.9838C43.6632 21.9838 43.8377 21.8075 43.8377 21.59C43.8377 21.3726 43.6632 21.1963 43.4479 21.1963C43.2325 21.1963 43.058 21.3726 43.058 21.59C43.058 21.8075 43.2325 21.9838 43.4479 21.9838Z" fill="#C0FF58"/>
<path opacity="0.88" d="M45.0809 21.8685C45.2962 21.8685 45.4708 21.6923 45.4708 21.4748C45.4708 21.2573 45.2962 21.0811 45.0809 21.0811C44.8656 21.0811 44.691 21.2573 44.691 21.4748C44.691 21.6923 44.8656 21.8685 45.0809 21.8685Z" fill="#C0FF58"/>
<path opacity="0.88" d="M47.6374 19.6838C47.8528 19.6838 48.0273 19.5076 48.0273 19.2901C48.0273 19.0726 47.8528 18.8964 47.6374 18.8964C47.4221 18.8964 47.2476 19.0726 47.2476 19.2901C47.2476 19.5076 47.4221 19.6838 47.6374 19.6838Z" fill="#C0FF58"/>
<path opacity="0.88" d="M24.2993 25.2296C24.5146 25.2296 24.6892 25.0533 24.6892 24.8359C24.6892 24.6184 24.5146 24.4421 24.2993 24.4421C24.084 24.4421 23.9094 24.6184 23.9094 24.8359C23.9094 25.0533 24.084 25.2296 24.2993 25.2296Z" fill="#C0FF58"/>
<path opacity="0.88" d="M22.6911 28.0267C22.9065 28.0267 23.081 27.8505 23.081 27.633C23.081 27.4155 22.9065 27.2393 22.6911 27.2393C22.4758 27.2393 22.3013 27.4155 22.3013 27.633C22.3013 27.8505 22.4758 28.0267 22.6911 28.0267Z" fill="#C0FF58"/>
<path opacity="0.88" d="M13.8143 35.0695C14.0296 35.0695 14.2042 34.8932 14.2042 34.6757C14.2042 34.4583 14.0296 34.282 13.8143 34.282C13.599 34.282 13.4244 34.4583 13.4244 34.6757C13.4244 34.8932 13.599 35.0695 13.8143 35.0695Z" fill="#C0FF58"/>
<path opacity="0.88" d="M12.5001 37.6248C12.7154 37.6248 12.89 37.4485 12.89 37.231C12.89 37.0136 12.7154 36.8373 12.5001 36.8373C12.2848 36.8373 12.1102 37.0136 12.1102 37.231C12.1102 37.4485 12.2848 37.6248 12.5001 37.6248Z" fill="#C0FF58"/>
<path opacity="0.88" d="M31.3435 11.5375C31.5588 11.5375 31.7334 11.3612 31.7334 11.1437C31.7334 10.9263 31.5588 10.75 31.3435 10.75C31.1282 10.75 30.9536 10.9263 30.9536 11.1437C30.9536 11.3612 31.1282 11.5375 31.3435 11.5375Z" fill="#C0FF58"/>
<path opacity="0.88" d="M39.5594 15.2427C39.7748 15.2427 39.9493 15.0664 39.9493 14.8489C39.9493 14.6315 39.7748 14.4552 39.5594 14.4552C39.3441 14.4552 39.1696 14.6315 39.1696 14.8489C39.1696 15.0664 39.3441 15.2427 39.5594 15.2427Z" fill="#C0FF58"/>
<path opacity="0.88" d="M24.1526 43.3436C24.3679 43.3436 24.5425 43.1673 24.5425 42.9499C24.5425 42.7324 24.3679 42.5562 24.1526 42.5562C23.9372 42.5562 23.7627 42.7324 23.7627 42.9499C23.7627 43.1673 23.9372 43.3436 24.1526 43.3436Z" fill="#C0FF58"/>
<path opacity="0.88" d="M25.3332 40.5503C25.5486 40.5503 25.7231 40.374 25.7231 40.1566C25.7231 39.9391 25.5486 39.7628 25.3332 39.7628C25.1179 39.7628 24.9434 39.9391 24.9434 40.1566C24.9434 40.374 25.1179 40.5503 25.3332 40.5503Z" fill="#C0FF58"/>
<path opacity="0.88" d="M20.6536 43.4394C21.3419 43.4394 21.8998 42.8759 21.8998 42.1808C21.8998 41.4857 21.3419 40.9222 20.6536 40.9222C19.9653 40.9222 19.4073 41.4857 19.4073 42.1808C19.4073 42.8759 19.9653 43.4394 20.6536 43.4394Z" fill="#C0FF58"/>
<path opacity="0.88" d="M39.175 37.7821C39.8632 37.7821 40.4212 37.2186 40.4212 36.5235C40.4212 35.8284 39.8632 35.2649 39.175 35.2649C38.4867 35.2649 37.9287 35.8284 37.9287 36.5235C37.9287 37.2186 38.4867 37.7821 39.175 37.7821Z" fill="#C0FF58"/>
<path opacity="0.88" d="M48.453 26.4468C48.8027 26.4468 49.0862 26.1605 49.0862 25.8073C49.0862 25.4542 48.8027 25.1678 48.453 25.1678C48.1033 25.1678 47.8198 25.4542 47.8198 25.8073C47.8198 26.1605 48.1033 26.4468 48.453 26.4468Z" fill="#C0FF58"/>
<path opacity="0.88" d="M17.3459 22.555C17.6956 22.555 17.9791 22.2687 17.9791 21.9155C17.9791 21.5623 17.6956 21.276 17.3459 21.276C16.9961 21.276 16.7126 21.5623 16.7126 21.9155C16.7126 22.2687 16.9961 22.555 17.3459 22.555Z" fill="#C0FF58"/>
<path opacity="0.88" d="M41.6333 30.4268C41.9515 30.4268 42.2095 30.1663 42.2095 29.845C42.2095 29.5236 41.9515 29.2631 41.6333 29.2631C41.3151 29.2631 41.0571 29.5236 41.0571 29.845C41.0571 30.1663 41.3151 30.4268 41.6333 30.4268Z" fill="#C0FF58"/>
<path opacity="0.88" d="M15.9047 41.5183C16.2229 41.5183 16.4809 41.2578 16.4809 40.9364C16.4809 40.615 16.2229 40.3545 15.9047 40.3545C15.5865 40.3545 15.3285 40.615 15.3285 40.9364C15.3285 41.2578 15.5865 41.5183 15.9047 41.5183Z" fill="#C0FF58"/>
<path opacity="0.88" d="M29.5459 48.988C29.8641 48.988 30.1221 48.7275 30.1221 48.4061C30.1221 48.0847 29.8641 47.8242 29.5459 47.8242C29.2277 47.8242 28.9697 48.0847 28.9697 48.4061C28.9697 48.7275 29.2277 48.988 29.5459 48.988Z" fill="#C0FF58"/>
<path opacity="0.88" d="M40.0188 46.6216C40.337 46.6216 40.595 46.361 40.595 46.0397C40.595 45.7183 40.337 45.4578 40.0188 45.4578C39.7006 45.4578 39.4426 45.7183 39.4426 46.0397C39.4426 46.361 39.7006 46.6216 40.0188 46.6216Z" fill="#C0FF58"/>
<path opacity="0.88" d="M30.5418 45.3576C30.86 45.3576 31.118 45.0971 31.118 44.7757C31.118 44.4544 30.86 44.1938 30.5418 44.1938C30.2235 44.1938 29.9656 44.4544 29.9656 44.7757C29.9656 45.0971 30.2235 45.3576 30.5418 45.3576Z" fill="#C0FF58"/>
<path opacity="0.88" d="M38.8996 12.8098C39.115 12.8098 39.2895 12.6335 39.2895 12.4161C39.2895 12.1986 39.115 12.0223 38.8996 12.0223C38.6843 12.0223 38.5098 12.1986 38.5098 12.4161C38.5098 12.6335 38.6843 12.8098 38.8996 12.8098Z" fill="#C0FF58"/>
<path opacity="0.88" d="M42.4673 14.7634C42.6826 14.7634 42.8572 14.5871 42.8572 14.3697C42.8572 14.1522 42.6826 13.976 42.4673 13.976C42.2519 13.976 42.0774 14.1522 42.0774 14.3697C42.0774 14.5871 42.2519 14.7634 42.4673 14.7634Z" fill="#C0FF58"/>
<path d="M36.3098 18.5016L24.8236 32.8865L30.0965 32.9243L26.0764 44.3959L37.8429 29.4789L32.4646 29.4987L36.3098 18.5016Z" fill="#C0FF58"/>
</g>
<path d="M76.0839 20.776C76.1798 21.256 76.2277 21.72 76.2277 22.168C76.2277 22.584 76.1798 23.032 76.0839 23.512L69.9973 23.464V39.592C69.9973 40.936 70.6203 41.608 71.8664 41.608H75.5088C75.7324 42.152 75.8443 42.696 75.8443 43.24C75.8443 43.784 75.8123 44.12 75.7484 44.248C74.2787 44.44 72.761 44.536 71.1954 44.536C68.0962 44.536 66.5466 43.208 66.5466 40.552V23.464L63.1438 23.512C63.0479 23.032 63 22.584 63 22.168C63 21.72 63.0479 21.256 63.1438 20.776L66.5466 20.824V15.784C66.5466 14.92 66.6744 14.312 66.93 13.96C67.1856 13.576 67.6808 13.384 68.4157 13.384H69.7097L69.9973 13.672V20.872L76.0839 20.776Z" fill="white"/>
<path d="M99.275 21.016L92.7091 43.528C91.495 47.656 90.201 50.568 88.8271 52.264C87.4532 53.96 85.3924 54.808 82.6446 54.808C81.2387 54.808 79.9447 54.6 78.7625 54.184C78.6667 53.288 78.9223 52.424 79.5294 51.592C80.5198 51.944 81.5742 52.12 82.6925 52.12C84.3859 52.12 85.6799 51.544 86.5745 50.392C87.4692 49.24 88.2839 47.448 89.0188 45.016L89.1626 44.536C88.3318 44.472 87.6928 44.28 87.2455 43.96C86.8301 43.64 86.4787 43.048 86.1911 42.184L79.4814 21.064C80.4719 20.648 81.1748 20.44 81.5902 20.44C82.5168 20.44 83.1398 21 83.4593 22.12L87.2455 34.168C87.3733 34.552 88.1082 37.048 89.4501 41.656C89.514 41.88 89.6738 41.992 89.9294 41.992L95.7764 20.776C96.1918 20.648 96.7349 20.584 97.4059 20.584C98.1088 20.584 98.6999 20.68 99.1792 20.872L99.275 21.016Z" fill="white"/>
<path d="M108.484 42.76V52.264C108.484 53.128 108.356 53.736 108.101 54.088C107.845 54.472 107.334 54.664 106.567 54.664H105.273L104.985 54.376V20.92L105.273 20.632H106.519C107.286 20.632 107.797 20.84 108.053 21.256C108.34 21.64 108.484 22.28 108.484 23.176V23.416C110.401 21.272 112.686 20.2 115.337 20.2C118.053 20.2 120.098 21.304 121.472 23.512C122.846 25.688 123.533 28.712 123.533 32.584C123.533 34.472 123.277 36.168 122.766 37.672C122.287 39.176 121.632 40.456 120.801 41.512C120.002 42.536 119.076 43.336 118.021 43.912C116.967 44.456 115.881 44.728 114.762 44.728C112.558 44.728 110.465 44.072 108.484 42.76ZM108.484 27.16V39.496C110.433 40.936 112.27 41.656 113.996 41.656C115.721 41.656 117.143 40.888 118.261 39.352C119.379 37.816 119.938 35.496 119.938 32.392C119.938 30.856 119.795 29.528 119.507 28.408C119.251 27.256 118.9 26.312 118.453 25.576C118.005 24.808 117.478 24.248 116.871 23.896C116.296 23.512 115.673 23.32 115.002 23.32C113.724 23.32 112.51 23.656 111.36 24.328C110.209 25 109.251 25.944 108.484 27.16Z" fill="white"/>
<path d="M147.801 33.64H132.944C133.104 39.08 135.165 41.8 139.127 41.8C141.299 41.8 143.616 41.128 146.076 39.784C146.779 40.424 147.21 41.24 147.37 42.232C144.75 44.024 141.81 44.92 138.551 44.92C136.89 44.92 135.468 44.616 134.286 44.008C133.104 43.368 132.129 42.504 131.362 41.416C130.628 40.296 130.084 38.984 129.733 37.48C129.382 35.976 129.206 34.328 129.206 32.536C129.206 30.712 129.413 29.048 129.829 27.544C130.276 26.04 130.915 24.744 131.746 23.656C132.577 22.568 133.567 21.72 134.717 21.112C135.9 20.504 137.241 20.2 138.743 20.2C140.213 20.2 141.523 20.472 142.673 21.016C143.855 21.528 144.83 22.248 145.597 23.176C146.395 24.072 147.002 25.16 147.418 26.44C147.833 27.688 148.041 29.032 148.041 30.472C148.041 31.048 148.009 31.608 147.945 32.152C147.913 32.664 147.865 33.16 147.801 33.64ZM132.944 30.904H144.446V30.28C144.446 28.072 143.983 26.296 143.057 24.952C142.13 23.608 140.74 22.936 138.887 22.936C137.066 22.936 135.644 23.656 134.621 25.096C133.631 26.536 133.072 28.472 132.944 30.904Z" fill="white"/>
<path d="M152.734 42.664C152.766 41.96 152.958 41.192 153.309 40.36C153.693 39.496 154.124 38.824 154.603 38.344C157.128 39.72 159.348 40.408 161.265 40.408C162.32 40.408 163.166 40.2 163.805 39.784C164.476 39.368 164.812 38.808 164.812 38.104C164.812 36.984 163.949 36.088 162.224 35.416L159.54 34.408C155.514 32.936 153.501 30.584 153.501 27.352C153.501 26.2 153.709 25.176 154.124 24.28C154.571 23.352 155.179 22.568 155.945 21.928C156.744 21.256 157.687 20.744 158.773 20.392C159.859 20.04 161.073 19.864 162.415 19.864C163.022 19.864 163.693 19.912 164.428 20.008C165.195 20.104 165.962 20.248 166.729 20.44C167.496 20.6 168.23 20.792 168.933 21.016C169.636 21.24 170.243 21.48 170.755 21.736C170.755 22.536 170.595 23.368 170.275 24.232C169.956 25.096 169.525 25.736 168.981 26.152C166.457 25.032 164.269 24.472 162.415 24.472C161.585 24.472 160.93 24.68 160.45 25.096C159.971 25.48 159.732 25.992 159.732 26.632C159.732 27.624 160.53 28.408 162.128 28.984L165.051 30.04C167.16 30.776 168.726 31.784 169.748 33.064C170.771 34.344 171.282 35.832 171.282 37.528C171.282 39.8 170.435 41.624 168.742 43C167.048 44.344 164.62 45.016 161.457 45.016C158.358 45.016 155.45 44.232 152.734 42.664Z" fill="white"/>
<path d="M194.738 34.456H181.511C181.607 36.216 182.006 37.608 182.709 38.632C183.444 39.624 184.706 40.12 186.495 40.12C188.348 40.12 190.473 39.576 192.869 38.488C193.796 39.448 194.387 40.712 194.643 42.28C192.086 44.104 189.019 45.016 185.441 45.016C182.054 45.016 179.482 43.976 177.725 41.896C175.999 39.784 175.137 36.664 175.137 32.536C175.137 30.616 175.36 28.888 175.807 27.352C176.255 25.784 176.91 24.456 177.772 23.368C178.635 22.248 179.69 21.384 180.936 20.776C182.182 20.168 183.603 19.864 185.201 19.864C186.831 19.864 188.268 20.12 189.514 20.632C190.761 21.112 191.815 21.816 192.678 22.744C193.54 23.64 194.179 24.712 194.595 25.96C195.042 27.208 195.266 28.568 195.266 30.04C195.266 30.84 195.218 31.608 195.122 32.344C195.026 33.048 194.898 33.752 194.738 34.456ZM185.489 24.376C182.996 24.376 181.654 26.264 181.463 30.04H189.419V29.464C189.419 27.928 189.099 26.696 188.46 25.768C187.821 24.84 186.831 24.376 185.489 24.376Z" fill="white"/>
<path d="M221.004 28.312V38.776C221.004 40.824 221.34 42.344 222.011 43.336C220.988 44.232 219.758 44.68 218.32 44.68C216.947 44.68 216.004 44.376 215.493 43.768C214.982 43.128 214.726 42.136 214.726 40.792V29.608C214.726 28.168 214.55 27.16 214.199 26.584C213.847 26.008 213.192 25.72 212.234 25.72C210.54 25.72 208.959 26.488 207.489 28.024V44.344C207.01 44.44 206.499 44.504 205.955 44.536C205.444 44.568 204.917 44.584 204.374 44.584C203.831 44.584 203.288 44.568 202.744 44.536C202.233 44.504 201.738 44.44 201.259 44.344V20.584L201.546 20.248H203.943C205.732 20.248 206.85 21.208 207.297 23.128C209.63 21.112 211.946 20.104 214.247 20.104C216.547 20.104 218.241 20.856 219.327 22.36C220.445 23.832 221.004 25.816 221.004 28.312Z" fill="white"/>
<path d="M226.032 42.664C226.064 41.96 226.255 41.192 226.607 40.36C226.99 39.496 227.422 38.824 227.901 38.344C230.425 39.72 232.646 40.408 234.563 40.408C235.617 40.408 236.464 40.2 237.103 39.784C237.774 39.368 238.109 38.808 238.109 38.104C238.109 36.984 237.246 36.088 235.521 35.416L232.837 34.408C228.811 32.936 226.799 30.584 226.799 27.352C226.799 26.2 227.006 25.176 227.422 24.28C227.869 23.352 228.476 22.568 229.243 21.928C230.042 21.256 230.984 20.744 232.07 20.392C233.157 20.04 234.371 19.864 235.713 19.864C236.32 19.864 236.991 19.912 237.726 20.008C238.493 20.104 239.259 20.248 240.026 20.44C240.793 20.6 241.528 20.792 242.231 21.016C242.934 21.24 243.541 21.48 244.052 21.736C244.052 22.536 243.892 23.368 243.573 24.232C243.253 25.096 242.822 25.736 242.279 26.152C239.755 25.032 237.566 24.472 235.713 24.472C234.882 24.472 234.227 24.68 233.748 25.096C233.269 25.48 233.029 25.992 233.029 26.632C233.029 27.624 233.828 28.408 235.425 28.984L238.349 30.04C240.458 30.776 242.023 31.784 243.046 33.064C244.068 34.344 244.579 35.832 244.579 37.528C244.579 39.8 243.733 41.624 242.039 43C240.346 44.344 237.917 45.016 234.754 45.016C231.655 45.016 228.748 44.232 226.032 42.664Z" fill="white"/>
<path d="M268.036 34.456H254.808C254.904 36.216 255.303 37.608 256.006 38.632C256.741 39.624 258.003 40.12 259.792 40.12C261.646 40.12 263.77 39.576 266.167 38.488C267.093 39.448 267.684 40.712 267.94 42.28C265.384 44.104 262.317 45.016 258.738 45.016C255.351 45.016 252.779 43.976 251.022 41.896C249.297 39.784 248.434 36.664 248.434 32.536C248.434 30.616 248.658 28.888 249.105 27.352C249.552 25.784 250.207 24.456 251.07 23.368C251.933 22.248 252.987 21.384 254.233 20.776C255.479 20.168 256.901 19.864 258.498 19.864C260.128 19.864 261.566 20.12 262.812 20.632C264.058 21.112 265.112 21.816 265.975 22.744C266.838 23.64 267.477 24.712 267.892 25.96C268.339 27.208 268.563 28.568 268.563 30.04C268.563 30.84 268.515 31.608 268.419 32.344C268.323 33.048 268.196 33.752 268.036 34.456ZM258.786 24.376C256.294 24.376 254.952 26.264 254.76 30.04H262.716V29.464C262.716 27.928 262.396 26.696 261.757 25.768C261.118 24.84 260.128 24.376 258.786 24.376Z" fill="white"/>
<path d="M275.467 51.064V7.144C275.946 7.048 276.489 7 277.096 7C277.735 7 278.326 7.048 278.869 7.144V51.064C278.326 51.16 277.735 51.208 277.096 51.208C276.489 51.208 275.946 51.16 275.467 51.064Z" fill="white"/>
<defs>
<clipPath id="clip0_3735_8655">
<rect width="41" height="42" fill="white" transform="translate(11 10)"/>
</clipPath>
</defs>
</svg>
