<svg width="290" height="62" viewBox="0 0 290 62" fill="none" xmlns="http://www.w3.org/2000/svg">
<g clip-path="url(#clip0_3729_2928)">
<path opacity="0.88" d="M29.3067 45.2991L28.657 47.8266" stroke="black" stroke-width="0.12"/>
<path opacity="0.88" d="M34.978 46.6943L32.2571 51.1826" stroke="black" stroke-width="0.12"/>
<path opacity="0.88" d="M33.4147 44.2107L31.4912 46.2701" stroke="black" stroke-width="0.12"/>
<path opacity="0.88" d="M34.4246 44.4626L34.8917 46.1447" stroke="black" stroke-width="0.12"/>
<path opacity="0.88" d="M30.0707 44.6052L33.0691 43.7712" stroke="black" stroke-width="0.12"/>
<path opacity="0.88" d="M30.6171 41.7988L32.9699 42.8198" stroke="black" stroke-width="0.12"/>
<path opacity="0.88" d="M32.5242 39.9365L33.5949 42.1605" stroke="black" stroke-width="0.12"/>
<path opacity="0.88" d="M37.5643 37.6389L34.9252 42.232" stroke="black" stroke-width="0.12"/>
<path opacity="0.88" d="M19.0276 30.1895L14.9875 31.7592" stroke="black" stroke-width="0.12"/>
<path opacity="0.88" d="M18.8804 25.8989L12.6597 24.1709" stroke="black" stroke-width="0.12"/>
<path opacity="0.88" d="M19.1678 25.255L16.6412 22.4617" stroke="black" stroke-width="0.12"/>
<path opacity="0.88" d="M24.5391 23.2493L22.0426 22.1707" stroke="black" stroke-width="0.12"/>
<path opacity="0.88" d="M24.6075 23.8589L23.5425 24.6152" stroke="black" stroke-width="0.12"/>
<path opacity="0.88" d="M21.5428 17.5876L19.2488 16.5408" stroke="black" stroke-width="0.12"/>
<path opacity="0.88" d="M21.861 18.5413L16.7476 21.6329" stroke="black" stroke-width="0.12"/>
<path opacity="0.88" d="M26.4394 16.7188L23.9249 17.5656" stroke="black" stroke-width="0.12"/>
<path opacity="0.88" d="M23.1916 13.2344L22.8076 16.6395" stroke="black" stroke-width="0.12"/>
<path opacity="0.88" d="M30.0663 11.397L26.8116 14.2953" stroke="black" stroke-width="0.12"/>
<path opacity="0.88" d="M27.9092 20.4973L25.4578 23.1059" stroke="black" stroke-width="0.12"/>
<path opacity="0.88" d="M28.163 19.35L27.1239 17.0574" stroke="black" stroke-width="0.12"/>
<path opacity="0.88" d="M19.835 30.9028L19.0983 33.0237" stroke="black" stroke-width="0.12"/>
<path opacity="0.88" d="M15.213 29.084L14.3878 31.2942" stroke="black" stroke-width="0.12"/>
<path opacity="0.88" d="M13.4353 31.7709L11.3311 30.6287" stroke="black" stroke-width="0.12"/>
<path opacity="0.88" d="M21.5532 27.7935L20.8812 28.8588" stroke="black" stroke-width="0.12"/>
<path opacity="0.88" d="M13.8094 32.8833L13.058 34.3488" stroke="black" stroke-width="0.12"/>
<path opacity="0.88" d="M20.8752 34.4246L16.8477 36.8153" stroke="black" stroke-width="0.12"/>
<path opacity="0.88" d="M14.5289 40.5802L11.6914 37.5452" stroke="black" stroke-width="0.12"/>
<path opacity="0.88" d="M23.9743 40.2544L20.7039 41.5452" stroke="black" stroke-width="0.12"/>
<path opacity="0.88" d="M20.7328 38.7114L19.9094 41.0051" stroke="black" stroke-width="0.12"/>
<path opacity="0.88" d="M22.8159 42.8599L20.809 42.4319" stroke="black" stroke-width="0.12"/>
<path opacity="0.88" d="M18.453 41.9595L15.4205 41.21" stroke="black" stroke-width="0.12"/>
<path opacity="0.88" d="M18.6489 42.9148L16.8451 43.9378" stroke="black" stroke-width="0.12"/>
<path opacity="0.88" d="M20.1453 43.3262L21.2698 48.9074" stroke="black" stroke-width="0.12"/>
<path opacity="0.88" d="M39.2628 37.0347L42.8618 39.3131" stroke="black" stroke-width="0.12"/>
<path opacity="0.88" d="M39.8768 32.8599L41.1118 33.1366" stroke="black" stroke-width="0.12"/>
<path opacity="0.88" d="M41.1854 29.8678L45.4217 29.6467" stroke="black" stroke-width="0.12"/>
<path opacity="0.88" d="M41.7842 25.7214L40.8065 29.3721" stroke="black" stroke-width="0.12"/>
<path opacity="0.88" d="M42.6389 25.5376L45.725 29.0223" stroke="black" stroke-width="0.12"/>
<path opacity="0.88" d="M42.9897 24.8645L46.8645 25.6611" stroke="black" stroke-width="0.12"/>
<path opacity="0.88" d="M47.8629 26.0439L50.5226 32.2142" stroke="black" stroke-width="0.12"/>
<path opacity="0.88" d="M42.7864 24.3299L48.0324 22.0847" stroke="black" stroke-width="0.12"/>
<path opacity="0.88" d="M42.2115 23.949L42.4269 21.9717" stroke="black" stroke-width="0.12"/>
<path opacity="0.88" d="M43.9939 21.0953L43.7051 19.9871" stroke="black" stroke-width="0.12"/>
<path opacity="0.88" d="M46.4286 19.5933L44.4388 21.4293" stroke="black" stroke-width="0.12"/>
<path opacity="0.88" d="M37.1792 23.3328L41.3169 24.4059" stroke="black" stroke-width="0.12"/>
<path opacity="0.88" d="M38.9688 26.6038L41.3191 25.2971" stroke="black" stroke-width="0.12"/>
<path opacity="0.88" d="M39.0226 19.6582L41.6267 24.0832" stroke="black" stroke-width="0.12"/>
<path opacity="0.88" d="M38.1513 19.6729L36.7136 22.1177" stroke="black" stroke-width="0.12"/>
<path opacity="0.88" d="M41.3334 14.7095L39.0848 18.119" stroke="black" stroke-width="0.12"/>
<path opacity="0.88" d="M41.1159 14.469L38.9404 14.7767" stroke="black" stroke-width="0.12"/>
<path opacity="0.88" d="M38.4374 14.4961L37.985 12.7437" stroke="black" stroke-width="0.12"/>
<path opacity="0.88" d="M42.1498 33.4873L43.967 34.2982" stroke="black" stroke-width="0.12"/>
<path opacity="0.88" d="M41.1703 35.738L44.0419 34.9221" stroke="black" stroke-width="0.12"/>
<path opacity="0.88" d="M43.6478 39.0437L44.9161 35.7434" stroke="black" stroke-width="0.12"/>
<path opacity="0.88" d="M44.0071 39.6663L47.863 40.6566" stroke="black" stroke-width="0.12"/>
<path opacity="0.88" d="M37.7057 40.8423L35.2939 42.6989" stroke="black" stroke-width="0.12"/>
<path opacity="0.88" d="M41.2382 42.8149L35.4258 43.2942" stroke="black" stroke-width="0.12"/>
<path opacity="0.88" d="M42.0912 47.432L39.5251 46.2896" stroke="black" stroke-width="0.12"/>
<path opacity="0.88" d="M42.0786 25.7966C42.5928 25.7966 43.0097 25.3756 43.0097 24.8563C43.0097 24.337 42.5928 23.916 42.0786 23.916C41.5644 23.916 41.1476 24.337 41.1476 24.8563C41.1476 25.3756 41.5644 25.7966 42.0786 25.7966Z" fill="black"/>
<path opacity="0.88" d="M36.3987 23.8781C36.9129 23.8781 37.3298 23.4571 37.3298 22.9378C37.3298 22.4185 36.9129 21.9976 36.3987 21.9976C35.8845 21.9976 35.4677 22.4185 35.4677 22.9378C35.4677 23.4571 35.8845 23.8781 36.3987 23.8781Z" fill="black"/>
<path opacity="0.88" d="M19.7747 26.7941C20.2889 26.7941 20.7057 26.3732 20.7057 25.8539C20.7057 25.3346 20.2889 24.9136 19.7747 24.9136C19.2605 24.9136 18.8436 25.3346 18.8436 25.8539C18.8436 26.3732 19.2605 26.7941 19.7747 26.7941Z" fill="black"/>
<path opacity="0.88" d="M14.157 33.0666C14.6712 33.0666 15.0881 32.6456 15.0881 32.1263C15.0881 31.607 14.6712 31.186 14.157 31.186C13.6428 31.186 13.226 31.607 13.226 32.1263C13.226 32.6456 13.6428 33.0666 14.157 33.0666Z" fill="black"/>
<path opacity="0.88" d="M46.335 30.5654C46.8492 30.5654 47.266 30.1444 47.266 29.6251C47.266 29.1058 46.8492 28.6848 46.335 28.6848C45.8208 28.6848 45.4039 29.1058 45.4039 29.6251C45.4039 30.1444 45.8208 30.5654 46.335 30.5654Z" fill="black"/>
<path opacity="0.88" d="M38.5779 19.8246C39.0921 19.8246 39.509 19.4037 39.509 18.8844C39.509 18.3651 39.0921 17.9441 38.5779 17.9441C38.0637 17.9441 37.6469 18.3651 37.6469 18.8844C37.6469 19.4037 38.0637 19.8246 38.5779 19.8246Z" fill="black"/>
<path opacity="0.88" d="M28.6071 20.9164C29.1213 20.9164 29.5381 20.4955 29.5381 19.9762C29.5381 19.4569 29.1213 19.0359 28.6071 19.0359C28.0929 19.0359 27.676 19.4569 27.676 19.9762C27.676 20.4955 28.0929 20.9164 28.6071 20.9164Z" fill="black"/>
<path opacity="0.88" d="M16.0772 45.3569C16.5914 45.3569 17.0082 44.9359 17.0082 44.4166C17.0082 43.8973 16.5914 43.4763 16.0772 43.4763C15.563 43.4763 15.1461 43.8973 15.1461 44.4166C15.1461 44.9359 15.563 45.3569 16.0772 45.3569Z" fill="black"/>
<path opacity="0.88" d="M21.0419 38.8876C21.5561 38.8876 21.973 38.4667 21.973 37.9474C21.973 37.4281 21.5561 37.0071 21.0419 37.0071C20.5277 37.0071 20.1108 37.4281 20.1108 37.9474C20.1108 38.4667 20.5277 38.8876 21.0419 38.8876Z" fill="black"/>
<path opacity="0.88" d="M18.4512 17.0685C18.9854 17.0685 19.4185 16.6312 19.4185 16.0916C19.4185 15.5521 18.9854 15.1147 18.4512 15.1147C17.917 15.1147 17.4839 15.5521 17.4839 16.0916C17.4839 16.6312 17.917 17.0685 18.4512 17.0685Z" fill="black"/>
<path opacity="0.88" d="M30.3946 15.914C30.9288 15.914 31.3619 15.4766 31.3619 14.9371C31.3619 14.3976 30.9288 13.9602 30.3946 13.9602C29.8603 13.9602 29.4272 14.3976 29.4272 14.9371C29.4272 15.4766 29.8603 15.914 30.3946 15.914Z" fill="black"/>
<path opacity="0.88" d="M22.7771 19.088C23.4654 19.088 24.0234 18.5245 24.0234 17.8294C24.0234 17.1343 23.4654 16.5708 22.7771 16.5708C22.0888 16.5708 21.5309 17.1343 21.5309 17.8294C21.5309 18.5245 22.0888 19.088 22.7771 19.088Z" fill="black"/>
<path opacity="0.88" d="M43.0443 20.2745C43.7326 20.2745 44.2906 19.711 44.2906 19.0159C44.2906 18.3208 43.7326 17.7573 43.0443 17.7573C42.3561 17.7573 41.7981 18.3208 41.7981 19.0159C41.7981 19.711 42.3561 20.2745 43.0443 20.2745Z" fill="black"/>
<path opacity="0.88" d="M45.1903 35.7716C45.8786 35.7716 46.4366 35.2081 46.4366 34.513C46.4366 33.8179 45.8786 33.2544 45.1903 33.2544C44.5021 33.2544 43.9441 33.8179 43.9441 34.513C43.9441 35.2081 44.5021 35.7716 45.1903 35.7716Z" fill="black"/>
<path opacity="0.88" d="M41.6513 33.8215C41.9695 33.8215 42.2275 33.561 42.2275 33.2396C42.2275 32.9182 41.9695 32.6577 41.6513 32.6577C41.333 32.6577 41.0751 32.9182 41.0751 33.2396C41.0751 33.561 41.333 33.8215 41.6513 33.8215Z" fill="black"/>
<path opacity="0.88" d="M26.9245 17.0847C27.2427 17.0847 27.5006 16.8242 27.5006 16.5028C27.5006 16.1814 27.2427 15.9209 26.9245 15.9209C26.6062 15.9209 26.3483 16.1814 26.3483 16.5028C26.3483 16.8242 26.6062 17.0847 26.9245 17.0847Z" fill="black"/>
<path opacity="0.88" d="M21.6021 22.5573C21.9203 22.5573 22.1783 22.2968 22.1783 21.9754C22.1783 21.6541 21.9203 21.3936 21.6021 21.3936C21.2838 21.3936 21.0259 21.6541 21.0259 21.9754C21.0259 22.2968 21.2838 22.5573 21.6021 22.5573Z" fill="black"/>
<path opacity="0.88" d="M12.1705 24.5808C12.4888 24.5808 12.7467 24.3203 12.7467 23.9989C12.7467 23.6775 12.4888 23.417 12.1705 23.417C11.8523 23.417 11.5944 23.6775 11.5944 23.9989C11.5944 24.3203 11.8523 24.5808 12.1705 24.5808Z" fill="black"/>
<path opacity="0.88" d="M23.2747 13.3254C23.5929 13.3254 23.8509 13.0649 23.8509 12.7435C23.8509 12.4221 23.5929 12.1616 23.2747 12.1616C22.9565 12.1616 22.6985 12.4221 22.6985 12.7435C22.6985 13.0649 22.9565 13.3254 23.2747 13.3254Z" fill="black"/>
<path opacity="0.88" d="M26.3969 15.2268C26.7151 15.2268 26.9731 14.9663 26.9731 14.6449C26.9731 14.3235 26.7151 14.063 26.3969 14.063C26.0786 14.063 25.8207 14.3235 25.8207 14.6449C25.8207 14.9663 26.0786 15.2268 26.3969 15.2268Z" fill="black"/>
<path opacity="0.88" d="M34.1668 44.4967C34.8551 44.4967 35.413 43.9332 35.413 43.2381C35.413 42.543 34.8551 41.9795 34.1668 41.9795C33.4785 41.9795 32.9205 42.543 32.9205 43.2381C32.9205 43.9332 33.4785 44.4967 34.1668 44.4967Z" fill="black"/>
<path opacity="0.88" d="M20.1792 30.9864C20.8675 30.9864 21.4255 30.4229 21.4255 29.7278C21.4255 29.0327 20.8675 28.4692 20.1792 28.4692C19.4909 28.4692 18.933 29.0327 18.933 29.7278C18.933 30.4229 19.4909 30.9864 20.1792 30.9864Z" fill="black"/>
<path opacity="0.88" d="M19.0231 34.2426C19.3728 34.2426 19.6563 33.9563 19.6563 33.6031C19.6563 33.2499 19.3728 32.9636 19.0231 32.9636C18.6734 32.9636 18.3899 33.2499 18.3899 33.6031C18.3899 33.9563 18.6734 34.2426 19.0231 34.2426Z" fill="black"/>
<path opacity="0.88" d="M21.3565 34.8593C21.7062 34.8593 21.9897 34.573 21.9897 34.2198C21.9897 33.8666 21.7062 33.5803 21.3565 33.5803C21.0068 33.5803 20.7233 33.8666 20.7233 34.2198C20.7233 34.573 21.0068 34.8593 21.3565 34.8593Z" fill="black"/>
<path opacity="0.88" d="M16.3278 37.8024C16.6775 37.8024 16.961 37.5161 16.961 37.1629C16.961 36.8097 16.6775 36.5234 16.3278 36.5234C15.9781 36.5234 15.6946 36.8097 15.6946 37.1629C15.6946 37.5161 15.9781 37.8024 16.3278 37.8024Z" fill="black"/>
<path opacity="0.88" d="M24.99 24.1471C25.3397 24.1471 25.6232 23.8608 25.6232 23.5076C25.6232 23.1545 25.3397 22.8682 24.99 22.8682C24.6403 22.8682 24.3568 23.1545 24.3568 23.5076C24.3568 23.8608 24.6403 24.1471 24.99 24.1471Z" fill="black"/>
<path opacity="0.88" d="M10.892 30.869C11.2417 30.869 11.5252 30.5827 11.5252 30.2296C11.5252 29.8764 11.2417 29.5901 10.892 29.5901C10.5423 29.5901 10.2588 29.8764 10.2588 30.2296C10.2588 30.5827 10.5423 30.869 10.892 30.869Z" fill="black"/>
<path opacity="0.88" d="M15.4093 29.0778C15.759 29.0778 16.0425 28.7915 16.0425 28.4383C16.0425 28.0851 15.759 27.7988 15.4093 27.7988C15.0596 27.7988 14.7761 28.0851 14.7761 28.4383C14.7761 28.7915 15.0596 29.0778 15.4093 29.0778Z" fill="black"/>
<path opacity="0.88" d="M43.4062 40.2147C43.7559 40.2147 44.0394 39.9284 44.0394 39.5753C44.0394 39.2221 43.7559 38.9358 43.4062 38.9358C43.0564 38.9358 42.7729 39.2221 42.7729 39.5753C42.7729 39.9284 43.0564 40.2147 43.4062 40.2147Z" fill="black"/>
<path opacity="0.88" d="M38.2448 41.1083C38.5945 41.1083 38.878 40.822 38.878 40.4688C38.878 40.1156 38.5945 39.8293 38.2448 39.8293C37.8951 39.8293 37.6116 40.1156 37.6116 40.4688C37.6116 40.822 37.8951 41.1083 38.2448 41.1083Z" fill="black"/>
<path opacity="0.88" d="M41.6225 43.1698C41.8379 43.1698 42.0124 42.9935 42.0124 42.7761C42.0124 42.5586 41.8379 42.3823 41.6225 42.3823C41.4072 42.3823 41.2327 42.5586 41.2327 42.7761C41.2327 42.9935 41.4072 43.1698 41.6225 43.1698Z" fill="black"/>
<path opacity="0.88" d="M42.4335 47.9965C42.6488 47.9965 42.8233 47.8202 42.8233 47.6027C42.8233 47.3853 42.6488 47.209 42.4335 47.209C42.2181 47.209 42.0436 47.3853 42.0436 47.6027C42.0436 47.8202 42.2181 47.9965 42.4335 47.9965Z" fill="black"/>
<path opacity="0.88" d="M32.1194 51.8575C32.3347 51.8575 32.5092 51.6813 32.5092 51.4638C32.5092 51.2463 32.3347 51.0701 32.1194 51.0701C31.904 51.0701 31.7295 51.2463 31.7295 51.4638C31.7295 51.6813 31.904 51.8575 32.1194 51.8575Z" fill="black"/>
<path opacity="0.88" d="M21.2825 49.5983C21.4978 49.5983 21.6723 49.422 21.6723 49.2045C21.6723 48.9871 21.4978 48.8108 21.2825 48.8108C21.0671 48.8108 20.8926 48.9871 20.8926 49.2045C20.8926 49.422 21.0671 49.5983 21.2825 49.5983Z" fill="black"/>
<path opacity="0.88" d="M35.0195 46.858C35.2348 46.858 35.4094 46.6818 35.4094 46.4643C35.4094 46.2468 35.2348 46.0706 35.0195 46.0706C34.8042 46.0706 34.6296 46.2468 34.6296 46.4643C34.6296 46.6818 34.8042 46.858 35.0195 46.858Z" fill="black"/>
<path opacity="0.88" d="M31.2193 46.9091C31.4347 46.9091 31.6092 46.7328 31.6092 46.5153C31.6092 46.2979 31.4347 46.1216 31.2193 46.1216C31.004 46.1216 30.8295 46.2979 30.8295 46.5153C30.8295 46.7328 31.004 46.9091 31.2193 46.9091Z" fill="black"/>
<path opacity="0.88" d="M30.2035 42.0314C30.4188 42.0314 30.5934 41.8551 30.5934 41.6376C30.5934 41.4202 30.4188 41.2439 30.2035 41.2439C29.9882 41.2439 29.8136 41.4202 29.8136 41.6376C29.8136 41.8551 29.9882 42.0314 30.2035 42.0314Z" fill="black"/>
<path opacity="0.88" d="M32.3985 39.9528C32.6139 39.9528 32.7884 39.7765 32.7884 39.559C32.7884 39.3416 32.6139 39.1653 32.3985 39.1653C32.1832 39.1653 32.0087 39.3416 32.0087 39.559C32.0087 39.7765 32.1832 39.9528 32.3985 39.9528Z" fill="black"/>
<path opacity="0.88" d="M40.7905 36.2115C41.0058 36.2115 41.1804 36.0353 41.1804 35.8178C41.1804 35.6004 41.0058 35.4241 40.7905 35.4241C40.5752 35.4241 40.4006 35.6004 40.4006 35.8178C40.4006 36.0353 40.5752 36.2115 40.7905 36.2115Z" fill="black"/>
<path opacity="0.88" d="M48.2421 41.1449C48.4574 41.1449 48.6319 40.9686 48.6319 40.7512C48.6319 40.5337 48.4574 40.3574 48.2421 40.3574C48.0267 40.3574 47.8522 40.5337 47.8522 40.7512C47.8522 40.9686 48.0267 41.1449 48.2421 41.1449Z" fill="black"/>
<path opacity="0.88" d="M39.5368 33.1051C39.7522 33.1051 39.9267 32.9288 39.9267 32.7114C39.9267 32.4939 39.7522 32.3176 39.5368 32.3176C39.3215 32.3176 39.147 32.4939 39.147 32.7114C39.147 32.9288 39.3215 33.1051 39.5368 33.1051Z" fill="black"/>
<path opacity="0.88" d="M38.7776 27.2186C38.9929 27.2186 39.1675 27.0423 39.1675 26.8249C39.1675 26.6074 38.9929 26.4312 38.7776 26.4312C38.5623 26.4312 38.3877 26.6074 38.3877 26.8249C38.3877 27.0423 38.5623 27.2186 38.7776 27.2186Z" fill="black"/>
<path opacity="0.88" d="M48.3006 22.3021C48.516 22.3021 48.6905 22.1258 48.6905 21.9084C48.6905 21.6909 48.516 21.5146 48.3006 21.5146C48.0853 21.5146 47.9108 21.6909 47.9108 21.9084C47.9108 22.1258 48.0853 22.3021 48.3006 22.3021Z" fill="black"/>
<path opacity="0.88" d="M50.5665 32.9906C50.7818 32.9906 50.9564 32.8143 50.9564 32.5969C50.9564 32.3794 50.7818 32.2031 50.5665 32.2031C50.3512 32.2031 50.1766 32.3794 50.1766 32.5969C50.1766 32.8143 50.3512 32.9906 50.5665 32.9906Z" fill="black"/>
<path opacity="0.88" d="M42.4479 21.9838C42.6632 21.9838 42.8377 21.8075 42.8377 21.59C42.8377 21.3726 42.6632 21.1963 42.4479 21.1963C42.2325 21.1963 42.058 21.3726 42.058 21.59C42.058 21.8075 42.2325 21.9838 42.4479 21.9838Z" fill="black"/>
<path opacity="0.88" d="M44.0809 21.8685C44.2962 21.8685 44.4708 21.6923 44.4708 21.4748C44.4708 21.2573 44.2962 21.0811 44.0809 21.0811C43.8656 21.0811 43.691 21.2573 43.691 21.4748C43.691 21.6923 43.8656 21.8685 44.0809 21.8685Z" fill="black"/>
<path opacity="0.88" d="M46.6374 19.6837C46.8528 19.6837 47.0273 19.5074 47.0273 19.29C47.0273 19.0725 46.8528 18.8962 46.6374 18.8962C46.4221 18.8962 46.2476 19.0725 46.2476 19.29C46.2476 19.5074 46.4221 19.6837 46.6374 19.6837Z" fill="black"/>
<path opacity="0.88" d="M23.2993 25.2296C23.5146 25.2296 23.6892 25.0533 23.6892 24.8359C23.6892 24.6184 23.5146 24.4421 23.2993 24.4421C23.084 24.4421 22.9094 24.6184 22.9094 24.8359C22.9094 25.0533 23.084 25.2296 23.2993 25.2296Z" fill="black"/>
<path opacity="0.88" d="M21.6911 28.0267C21.9065 28.0267 22.081 27.8505 22.081 27.633C22.081 27.4155 21.9065 27.2393 21.6911 27.2393C21.4758 27.2393 21.3013 27.4155 21.3013 27.633C21.3013 27.8505 21.4758 28.0267 21.6911 28.0267Z" fill="black"/>
<path opacity="0.88" d="M12.8143 35.0695C13.0296 35.0695 13.2042 34.8932 13.2042 34.6757C13.2042 34.4583 13.0296 34.282 12.8143 34.282C12.599 34.282 12.4244 34.4583 12.4244 34.6757C12.4244 34.8932 12.599 35.0695 12.8143 35.0695Z" fill="black"/>
<path opacity="0.88" d="M11.5001 37.6246C11.7154 37.6246 11.89 37.4484 11.89 37.2309C11.89 37.0134 11.7154 36.8372 11.5001 36.8372C11.2848 36.8372 11.1102 37.0134 11.1102 37.2309C11.1102 37.4484 11.2848 37.6246 11.5001 37.6246Z" fill="black"/>
<path opacity="0.88" d="M30.3435 11.5375C30.5588 11.5375 30.7334 11.3612 30.7334 11.1437C30.7334 10.9263 30.5588 10.75 30.3435 10.75C30.1282 10.75 29.9536 10.9263 29.9536 11.1437C29.9536 11.3612 30.1282 11.5375 30.3435 11.5375Z" fill="black"/>
<path opacity="0.88" d="M38.5594 15.2428C38.7748 15.2428 38.9493 15.0665 38.9493 14.8491C38.9493 14.6316 38.7748 14.4553 38.5594 14.4553C38.3441 14.4553 38.1696 14.6316 38.1696 14.8491C38.1696 15.0665 38.3441 15.2428 38.5594 15.2428Z" fill="black"/>
<path opacity="0.88" d="M23.1526 43.3436C23.3679 43.3436 23.5425 43.1673 23.5425 42.9499C23.5425 42.7324 23.3679 42.5562 23.1526 42.5562C22.9372 42.5562 22.7627 42.7324 22.7627 42.9499C22.7627 43.1673 22.9372 43.3436 23.1526 43.3436Z" fill="black"/>
<path opacity="0.88" d="M24.3332 40.5504C24.5486 40.5504 24.7231 40.3741 24.7231 40.1567C24.7231 39.9392 24.5486 39.7629 24.3332 39.7629C24.1179 39.7629 23.9434 39.9392 23.9434 40.1567C23.9434 40.3741 24.1179 40.5504 24.3332 40.5504Z" fill="black"/>
<path opacity="0.88" d="M19.6536 43.4395C20.3419 43.4395 20.8998 42.876 20.8998 42.1809C20.8998 41.4859 20.3419 40.9224 19.6536 40.9224C18.9653 40.9224 18.4073 41.4859 18.4073 42.1809C18.4073 42.876 18.9653 43.4395 19.6536 43.4395Z" fill="black"/>
<path opacity="0.88" d="M38.175 37.7821C38.8632 37.7821 39.4212 37.2186 39.4212 36.5235C39.4212 35.8284 38.8632 35.2649 38.175 35.2649C37.4867 35.2649 36.9287 35.8284 36.9287 36.5235C36.9287 37.2186 37.4867 37.7821 38.175 37.7821Z" fill="black"/>
<path opacity="0.88" d="M47.453 26.4469C47.8027 26.4469 48.0862 26.1606 48.0862 25.8074C48.0862 25.4543 47.8027 25.168 47.453 25.168C47.1033 25.168 46.8198 25.4543 46.8198 25.8074C46.8198 26.1606 47.1033 26.4469 47.453 26.4469Z" fill="black"/>
<path opacity="0.88" d="M16.3459 22.5548C16.6956 22.5548 16.9791 22.2685 16.9791 21.9154C16.9791 21.5622 16.6956 21.2759 16.3459 21.2759C15.9961 21.2759 15.7126 21.5622 15.7126 21.9154C15.7126 22.2685 15.9961 22.5548 16.3459 22.5548Z" fill="black"/>
<path opacity="0.88" d="M40.6333 30.4267C40.9515 30.4267 41.2095 30.1662 41.2095 29.8448C41.2095 29.5235 40.9515 29.2629 40.6333 29.2629C40.3151 29.2629 40.0571 29.5235 40.0571 29.8448C40.0571 30.1662 40.3151 30.4267 40.6333 30.4267Z" fill="black"/>
<path opacity="0.88" d="M14.9047 41.5183C15.2229 41.5183 15.4809 41.2578 15.4809 40.9364C15.4809 40.615 15.2229 40.3545 14.9047 40.3545C14.5865 40.3545 14.3285 40.615 14.3285 40.9364C14.3285 41.2578 14.5865 41.5183 14.9047 41.5183Z" fill="black"/>
<path opacity="0.88" d="M28.5459 48.988C28.8641 48.988 29.1221 48.7275 29.1221 48.4061C29.1221 48.0847 28.8641 47.8242 28.5459 47.8242C28.2277 47.8242 27.9697 48.0847 27.9697 48.4061C27.9697 48.7275 28.2277 48.988 28.5459 48.988Z" fill="black"/>
<path opacity="0.88" d="M39.0188 46.6216C39.337 46.6216 39.595 46.361 39.595 46.0397C39.595 45.7183 39.337 45.4578 39.0188 45.4578C38.7006 45.4578 38.4426 45.7183 38.4426 46.0397C38.4426 46.361 38.7006 46.6216 39.0188 46.6216Z" fill="black"/>
<path opacity="0.88" d="M29.5418 45.3576C29.86 45.3576 30.118 45.0971 30.118 44.7757C30.118 44.4544 29.86 44.1938 29.5418 44.1938C29.2235 44.1938 28.9656 44.4544 28.9656 44.7757C28.9656 45.0971 29.2235 45.3576 29.5418 45.3576Z" fill="black"/>
<path opacity="0.88" d="M37.8996 12.8097C38.115 12.8097 38.2895 12.6334 38.2895 12.416C38.2895 12.1985 38.115 12.0222 37.8996 12.0222C37.6843 12.0222 37.5098 12.1985 37.5098 12.416C37.5098 12.6334 37.6843 12.8097 37.8996 12.8097Z" fill="black"/>
<path opacity="0.88" d="M41.4673 14.7636C41.6826 14.7636 41.8572 14.5873 41.8572 14.3698C41.8572 14.1524 41.6826 13.9761 41.4673 13.9761C41.2519 13.9761 41.0774 14.1524 41.0774 14.3698C41.0774 14.5873 41.2519 14.7636 41.4673 14.7636Z" fill="black"/>
<path d="M35.3098 18.5017L23.8236 32.8866L29.0965 32.9244L25.0764 44.396L36.8429 29.479L31.4646 29.4988L35.3098 18.5017Z" fill="black"/>
</g>
<path d="M75.0839 20.776C75.1798 21.256 75.2277 21.72 75.2277 22.168C75.2277 22.584 75.1798 23.032 75.0839 23.512L68.9973 23.464V39.592C68.9973 40.936 69.6203 41.608 70.8664 41.608H74.5088C74.7324 42.152 74.8443 42.696 74.8443 43.24C74.8443 43.784 74.8123 44.12 74.7484 44.248C73.2787 44.44 71.761 44.536 70.1954 44.536C67.0962 44.536 65.5466 43.208 65.5466 40.552V23.464L62.1438 23.512C62.0479 23.032 62 22.584 62 22.168C62 21.72 62.0479 21.256 62.1438 20.776L65.5466 20.824V15.784C65.5466 14.92 65.6744 14.312 65.93 13.96C66.1856 13.576 66.6808 13.384 67.4157 13.384H68.7097L68.9973 13.672V20.872L75.0839 20.776Z" fill="black"/>
<path d="M98.275 21.016L91.7091 43.528C90.495 47.656 89.201 50.568 87.8271 52.264C86.4532 53.96 84.3924 54.808 81.6446 54.808C80.2387 54.808 78.9447 54.6 77.7625 54.184C77.6667 53.288 77.9223 52.424 78.5294 51.592C79.5198 51.944 80.5742 52.12 81.6925 52.12C83.3859 52.12 84.6799 51.544 85.5745 50.392C86.4692 49.24 87.2839 47.448 88.0188 45.016L88.1626 44.536C87.3318 44.472 86.6928 44.28 86.2455 43.96C85.8301 43.64 85.4787 43.048 85.1911 42.184L78.4814 21.064C79.4719 20.648 80.1748 20.44 80.5902 20.44C81.5168 20.44 82.1398 21 82.4593 22.12L86.2455 34.168C86.3733 34.552 87.1082 37.048 88.4501 41.656C88.514 41.88 88.6738 41.992 88.9294 41.992L94.7764 20.776C95.1918 20.648 95.7349 20.584 96.4059 20.584C97.1088 20.584 97.6999 20.68 98.1792 20.872L98.275 21.016Z" fill="black"/>
<path d="M107.484 42.76V52.264C107.484 53.128 107.356 53.736 107.101 54.088C106.845 54.472 106.334 54.664 105.567 54.664H104.273L103.985 54.376V20.92L104.273 20.632H105.519C106.286 20.632 106.797 20.84 107.053 21.256C107.34 21.64 107.484 22.28 107.484 23.176V23.416C109.401 21.272 111.686 20.2 114.337 20.2C117.053 20.2 119.098 21.304 120.472 23.512C121.846 25.688 122.533 28.712 122.533 32.584C122.533 34.472 122.277 36.168 121.766 37.672C121.287 39.176 120.632 40.456 119.801 41.512C119.002 42.536 118.076 43.336 117.021 43.912C115.967 44.456 114.881 44.728 113.762 44.728C111.558 44.728 109.465 44.072 107.484 42.76ZM107.484 27.16V39.496C109.433 40.936 111.27 41.656 112.996 41.656C114.721 41.656 116.143 40.888 117.261 39.352C118.379 37.816 118.938 35.496 118.938 32.392C118.938 30.856 118.795 29.528 118.507 28.408C118.251 27.256 117.9 26.312 117.453 25.576C117.005 24.808 116.478 24.248 115.871 23.896C115.296 23.512 114.673 23.32 114.002 23.32C112.724 23.32 111.51 23.656 110.36 24.328C109.209 25 108.251 25.944 107.484 27.16Z" fill="black"/>
<path d="M146.801 33.64H131.944C132.104 39.08 134.165 41.8 138.127 41.8C140.299 41.8 142.616 41.128 145.076 39.784C145.779 40.424 146.21 41.24 146.37 42.232C143.75 44.024 140.81 44.92 137.551 44.92C135.89 44.92 134.468 44.616 133.286 44.008C132.104 43.368 131.129 42.504 130.362 41.416C129.628 40.296 129.084 38.984 128.733 37.48C128.382 35.976 128.206 34.328 128.206 32.536C128.206 30.712 128.413 29.048 128.829 27.544C129.276 26.04 129.915 24.744 130.746 23.656C131.577 22.568 132.567 21.72 133.717 21.112C134.9 20.504 136.241 20.2 137.743 20.2C139.213 20.2 140.523 20.472 141.673 21.016C142.855 21.528 143.83 22.248 144.597 23.176C145.395 24.072 146.002 25.16 146.418 26.44C146.833 27.688 147.041 29.032 147.041 30.472C147.041 31.048 147.009 31.608 146.945 32.152C146.913 32.664 146.865 33.16 146.801 33.64ZM131.944 30.904H143.446V30.28C143.446 28.072 142.983 26.296 142.057 24.952C141.13 23.608 139.74 22.936 137.887 22.936C136.066 22.936 134.644 23.656 133.621 25.096C132.631 26.536 132.072 28.472 131.944 30.904Z" fill="black"/>
<path d="M151.734 42.664C151.766 41.96 151.958 41.192 152.309 40.36C152.693 39.496 153.124 38.824 153.603 38.344C156.128 39.72 158.348 40.408 160.265 40.408C161.32 40.408 162.166 40.2 162.805 39.784C163.476 39.368 163.812 38.808 163.812 38.104C163.812 36.984 162.949 36.088 161.224 35.416L158.54 34.408C154.514 32.936 152.501 30.584 152.501 27.352C152.501 26.2 152.709 25.176 153.124 24.28C153.571 23.352 154.179 22.568 154.945 21.928C155.744 21.256 156.687 20.744 157.773 20.392C158.859 20.04 160.073 19.864 161.415 19.864C162.022 19.864 162.693 19.912 163.428 20.008C164.195 20.104 164.962 20.248 165.729 20.44C166.496 20.6 167.23 20.792 167.933 21.016C168.636 21.24 169.243 21.48 169.755 21.736C169.755 22.536 169.595 23.368 169.275 24.232C168.956 25.096 168.525 25.736 167.981 26.152C165.457 25.032 163.269 24.472 161.415 24.472C160.585 24.472 159.93 24.68 159.45 25.096C158.971 25.48 158.732 25.992 158.732 26.632C158.732 27.624 159.53 28.408 161.128 28.984L164.051 30.04C166.16 30.776 167.726 31.784 168.748 33.064C169.771 34.344 170.282 35.832 170.282 37.528C170.282 39.8 169.435 41.624 167.742 43C166.048 44.344 163.62 45.016 160.457 45.016C157.358 45.016 154.45 44.232 151.734 42.664Z" fill="black"/>
<path d="M193.738 34.456H180.511C180.607 36.216 181.006 37.608 181.709 38.632C182.444 39.624 183.706 40.12 185.495 40.12C187.348 40.12 189.473 39.576 191.869 38.488C192.796 39.448 193.387 40.712 193.643 42.28C191.086 44.104 188.019 45.016 184.441 45.016C181.054 45.016 178.482 43.976 176.725 41.896C174.999 39.784 174.137 36.664 174.137 32.536C174.137 30.616 174.36 28.888 174.807 27.352C175.255 25.784 175.91 24.456 176.772 23.368C177.635 22.248 178.69 21.384 179.936 20.776C181.182 20.168 182.603 19.864 184.201 19.864C185.831 19.864 187.268 20.12 188.514 20.632C189.761 21.112 190.815 21.816 191.678 22.744C192.54 23.64 193.179 24.712 193.595 25.96C194.042 27.208 194.266 28.568 194.266 30.04C194.266 30.84 194.218 31.608 194.122 32.344C194.026 33.048 193.898 33.752 193.738 34.456ZM184.489 24.376C181.996 24.376 180.654 26.264 180.463 30.04H188.419V29.464C188.419 27.928 188.099 26.696 187.46 25.768C186.821 24.84 185.831 24.376 184.489 24.376Z" fill="black"/>
<path d="M220.004 28.312V38.776C220.004 40.824 220.34 42.344 221.011 43.336C219.988 44.232 218.758 44.68 217.32 44.68C215.947 44.68 215.004 44.376 214.493 43.768C213.982 43.128 213.726 42.136 213.726 40.792V29.608C213.726 28.168 213.55 27.16 213.199 26.584C212.847 26.008 212.192 25.72 211.234 25.72C209.54 25.72 207.959 26.488 206.489 28.024V44.344C206.01 44.44 205.499 44.504 204.955 44.536C204.444 44.568 203.917 44.584 203.374 44.584C202.831 44.584 202.288 44.568 201.744 44.536C201.233 44.504 200.738 44.44 200.259 44.344V20.584L200.546 20.248H202.943C204.732 20.248 205.85 21.208 206.297 23.128C208.63 21.112 210.946 20.104 213.247 20.104C215.547 20.104 217.241 20.856 218.327 22.36C219.445 23.832 220.004 25.816 220.004 28.312Z" fill="black"/>
<path d="M225.032 42.664C225.064 41.96 225.255 41.192 225.607 40.36C225.99 39.496 226.422 38.824 226.901 38.344C229.425 39.72 231.646 40.408 233.563 40.408C234.617 40.408 235.464 40.2 236.103 39.784C236.774 39.368 237.109 38.808 237.109 38.104C237.109 36.984 236.246 36.088 234.521 35.416L231.837 34.408C227.811 32.936 225.799 30.584 225.799 27.352C225.799 26.2 226.006 25.176 226.422 24.28C226.869 23.352 227.476 22.568 228.243 21.928C229.042 21.256 229.984 20.744 231.07 20.392C232.157 20.04 233.371 19.864 234.713 19.864C235.32 19.864 235.991 19.912 236.726 20.008C237.493 20.104 238.259 20.248 239.026 20.44C239.793 20.6 240.528 20.792 241.231 21.016C241.934 21.24 242.541 21.48 243.052 21.736C243.052 22.536 242.892 23.368 242.573 24.232C242.253 25.096 241.822 25.736 241.279 26.152C238.755 25.032 236.566 24.472 234.713 24.472C233.882 24.472 233.227 24.68 232.748 25.096C232.269 25.48 232.029 25.992 232.029 26.632C232.029 27.624 232.828 28.408 234.425 28.984L237.349 30.04C239.458 30.776 241.023 31.784 242.046 33.064C243.068 34.344 243.579 35.832 243.579 37.528C243.579 39.8 242.733 41.624 241.039 43C239.346 44.344 236.917 45.016 233.754 45.016C230.655 45.016 227.748 44.232 225.032 42.664Z" fill="black"/>
<path d="M267.036 34.456H253.808C253.904 36.216 254.303 37.608 255.006 38.632C255.741 39.624 257.003 40.12 258.792 40.12C260.646 40.12 262.77 39.576 265.167 38.488C266.093 39.448 266.684 40.712 266.94 42.28C264.384 44.104 261.317 45.016 257.738 45.016C254.351 45.016 251.779 43.976 250.022 41.896C248.297 39.784 247.434 36.664 247.434 32.536C247.434 30.616 247.658 28.888 248.105 27.352C248.552 25.784 249.207 24.456 250.07 23.368C250.933 22.248 251.987 21.384 253.233 20.776C254.479 20.168 255.901 19.864 257.498 19.864C259.128 19.864 260.566 20.12 261.812 20.632C263.058 21.112 264.112 21.816 264.975 22.744C265.838 23.64 266.477 24.712 266.892 25.96C267.339 27.208 267.563 28.568 267.563 30.04C267.563 30.84 267.515 31.608 267.419 32.344C267.323 33.048 267.196 33.752 267.036 34.456ZM257.786 24.376C255.294 24.376 253.952 26.264 253.76 30.04H261.716V29.464C261.716 27.928 261.396 26.696 260.757 25.768C260.118 24.84 259.128 24.376 257.786 24.376Z" fill="black"/>
<path d="M274.467 51.064V7.144C274.946 7.048 275.489 7 276.096 7C276.735 7 277.326 7.048 277.869 7.144V51.064C277.326 51.16 276.735 51.208 276.096 51.208C275.489 51.208 274.946 51.16 274.467 51.064Z" fill="black"/>
<defs>
<clipPath id="clip0_3729_2928">
<rect width="41" height="42" fill="white" transform="translate(10 10)"/>
</clipPath>
</defs>
</svg>
