<svg width="275" height="56" viewBox="0 0 275 56" fill="none" xmlns="http://www.w3.org/2000/svg">
<g clip-path="url(#clip0_3729_2928)">
<path opacity="0.88" d="M22.3067 42.2991L21.657 44.8266" stroke="black" stroke-width="0.12"/>
<path opacity="0.88" d="M27.978 43.6943L25.2571 48.1826" stroke="black" stroke-width="0.12"/>
<path opacity="0.88" d="M26.4147 41.2107L24.4912 43.2701" stroke="black" stroke-width="0.12"/>
<path opacity="0.88" d="M27.4246 41.4626L27.8917 43.1447" stroke="black" stroke-width="0.12"/>
<path opacity="0.88" d="M23.0707 41.6052L26.0691 40.7712" stroke="black" stroke-width="0.12"/>
<path opacity="0.88" d="M23.6171 38.7988L25.9699 39.8198" stroke="black" stroke-width="0.12"/>
<path opacity="0.88" d="M25.5242 36.9365L26.5949 39.1605" stroke="black" stroke-width="0.12"/>
<path opacity="0.88" d="M30.5643 34.6389L27.9252 39.232" stroke="black" stroke-width="0.12"/>
<path opacity="0.88" d="M12.0276 27.1895L7.98755 28.7592" stroke="black" stroke-width="0.12"/>
<path opacity="0.88" d="M11.8804 22.8989L5.65967 21.1709" stroke="black" stroke-width="0.12"/>
<path opacity="0.88" d="M12.1678 22.255L9.64124 19.4617" stroke="black" stroke-width="0.12"/>
<path opacity="0.88" d="M17.5391 20.2493L15.0426 19.1707" stroke="black" stroke-width="0.12"/>
<path opacity="0.88" d="M17.6075 20.8589L16.5425 21.6152" stroke="black" stroke-width="0.12"/>
<path opacity="0.88" d="M14.5428 14.5876L12.2488 13.5408" stroke="black" stroke-width="0.12"/>
<path opacity="0.88" d="M14.861 15.5413L9.74756 18.6329" stroke="black" stroke-width="0.12"/>
<path opacity="0.88" d="M19.4394 13.7188L16.9249 14.5656" stroke="black" stroke-width="0.12"/>
<path opacity="0.88" d="M16.1916 10.2344L15.8076 13.6395" stroke="black" stroke-width="0.12"/>
<path opacity="0.88" d="M23.0663 8.39697L19.8116 11.2953" stroke="black" stroke-width="0.12"/>
<path opacity="0.88" d="M20.9092 17.4973L18.4578 20.1059" stroke="black" stroke-width="0.12"/>
<path opacity="0.88" d="M21.163 16.35L20.1239 14.0574" stroke="black" stroke-width="0.12"/>
<path opacity="0.88" d="M12.835 27.9028L12.0983 30.0237" stroke="black" stroke-width="0.12"/>
<path opacity="0.88" d="M8.213 26.084L7.38782 28.2942" stroke="black" stroke-width="0.12"/>
<path opacity="0.88" d="M6.43533 28.7709L4.33105 27.6287" stroke="black" stroke-width="0.12"/>
<path opacity="0.88" d="M14.5532 24.7935L13.8812 25.8588" stroke="black" stroke-width="0.12"/>
<path opacity="0.88" d="M6.80943 29.8833L6.05798 31.3488" stroke="black" stroke-width="0.12"/>
<path opacity="0.88" d="M13.8752 31.4246L9.84766 33.8153" stroke="black" stroke-width="0.12"/>
<path opacity="0.88" d="M7.52886 37.5802L4.69141 34.5452" stroke="black" stroke-width="0.12"/>
<path opacity="0.88" d="M16.9743 37.2544L13.7039 38.5452" stroke="black" stroke-width="0.12"/>
<path opacity="0.88" d="M13.7328 35.7114L12.9094 38.0051" stroke="black" stroke-width="0.12"/>
<path opacity="0.88" d="M15.8159 39.8599L13.809 39.4319" stroke="black" stroke-width="0.12"/>
<path opacity="0.88" d="M11.453 38.9595L8.42053 38.21" stroke="black" stroke-width="0.12"/>
<path opacity="0.88" d="M11.6489 39.9148L9.84509 40.9378" stroke="black" stroke-width="0.12"/>
<path opacity="0.88" d="M13.1453 40.3262L14.2698 45.9074" stroke="black" stroke-width="0.12"/>
<path opacity="0.88" d="M32.2628 34.0347L35.8618 36.3131" stroke="black" stroke-width="0.12"/>
<path opacity="0.88" d="M32.8768 29.8599L34.1118 30.1366" stroke="black" stroke-width="0.12"/>
<path opacity="0.88" d="M34.1854 26.8678L38.4217 26.6467" stroke="black" stroke-width="0.12"/>
<path opacity="0.88" d="M34.7842 22.7214L33.8065 26.3721" stroke="black" stroke-width="0.12"/>
<path opacity="0.88" d="M35.6389 22.5376L38.725 26.0223" stroke="black" stroke-width="0.12"/>
<path opacity="0.88" d="M35.9897 21.8645L39.8645 22.6611" stroke="black" stroke-width="0.12"/>
<path opacity="0.88" d="M40.8629 23.0439L43.5226 29.2142" stroke="black" stroke-width="0.12"/>
<path opacity="0.88" d="M35.7864 21.3299L41.0324 19.0847" stroke="black" stroke-width="0.12"/>
<path opacity="0.88" d="M35.2115 20.949L35.4269 18.9717" stroke="black" stroke-width="0.12"/>
<path opacity="0.88" d="M36.9939 18.0953L36.7051 16.9871" stroke="black" stroke-width="0.12"/>
<path opacity="0.88" d="M39.4286 16.5933L37.4388 18.4293" stroke="black" stroke-width="0.12"/>
<path opacity="0.88" d="M30.1792 20.3328L34.3169 21.4059" stroke="black" stroke-width="0.12"/>
<path opacity="0.88" d="M31.9688 23.6038L34.3191 22.2971" stroke="black" stroke-width="0.12"/>
<path opacity="0.88" d="M32.0226 16.6582L34.6267 21.0832" stroke="black" stroke-width="0.12"/>
<path opacity="0.88" d="M31.1513 16.6729L29.7136 19.1177" stroke="black" stroke-width="0.12"/>
<path opacity="0.88" d="M34.3334 11.7095L32.0848 15.119" stroke="black" stroke-width="0.12"/>
<path opacity="0.88" d="M34.1159 11.469L31.9404 11.7767" stroke="black" stroke-width="0.12"/>
<path opacity="0.88" d="M31.4374 11.4961L30.985 9.74365" stroke="black" stroke-width="0.12"/>
<path opacity="0.88" d="M35.1498 30.4873L36.967 31.2982" stroke="black" stroke-width="0.12"/>
<path opacity="0.88" d="M34.1703 32.738L37.0419 31.9221" stroke="black" stroke-width="0.12"/>
<path opacity="0.88" d="M36.6478 36.0437L37.9161 32.7434" stroke="black" stroke-width="0.12"/>
<path opacity="0.88" d="M37.0071 36.6663L40.863 37.6566" stroke="black" stroke-width="0.12"/>
<path opacity="0.88" d="M30.7057 37.8423L28.2939 39.6989" stroke="black" stroke-width="0.12"/>
<path opacity="0.88" d="M34.2382 39.8149L28.4258 40.2942" stroke="black" stroke-width="0.12"/>
<path opacity="0.88" d="M35.0912 44.432L32.5251 43.2896" stroke="black" stroke-width="0.12"/>
<path opacity="0.88" d="M35.0786 22.7966C35.5928 22.7966 36.0097 22.3756 36.0097 21.8563C36.0097 21.337 35.5928 20.916 35.0786 20.916C34.5644 20.916 34.1476 21.337 34.1476 21.8563C34.1476 22.3756 34.5644 22.7966 35.0786 22.7966Z" fill="black"/>
<path opacity="0.88" d="M29.3987 20.8781C29.9129 20.8781 30.3298 20.4571 30.3298 19.9378C30.3298 19.4185 29.9129 18.9976 29.3987 18.9976C28.8845 18.9976 28.4677 19.4185 28.4677 19.9378C28.4677 20.4571 28.8845 20.8781 29.3987 20.8781Z" fill="black"/>
<path opacity="0.88" d="M12.7747 23.7941C13.2889 23.7941 13.7057 23.3732 13.7057 22.8539C13.7057 22.3346 13.2889 21.9136 12.7747 21.9136C12.2605 21.9136 11.8436 22.3346 11.8436 22.8539C11.8436 23.3732 12.2605 23.7941 12.7747 23.7941Z" fill="black"/>
<path opacity="0.88" d="M7.15701 30.0666C7.67122 30.0666 8.08807 29.6456 8.08807 29.1263C8.08807 28.607 7.67122 28.186 7.15701 28.186C6.6428 28.186 6.22595 28.607 6.22595 29.1263C6.22595 29.6456 6.6428 30.0666 7.15701 30.0666Z" fill="black"/>
<path opacity="0.88" d="M39.335 27.5654C39.8492 27.5654 40.266 27.1444 40.266 26.6251C40.266 26.1058 39.8492 25.6848 39.335 25.6848C38.8208 25.6848 38.4039 26.1058 38.4039 26.6251C38.4039 27.1444 38.8208 27.5654 39.335 27.5654Z" fill="black"/>
<path opacity="0.88" d="M31.5779 16.8246C32.0921 16.8246 32.509 16.4037 32.509 15.8844C32.509 15.3651 32.0921 14.9441 31.5779 14.9441C31.0637 14.9441 30.6469 15.3651 30.6469 15.8844C30.6469 16.4037 31.0637 16.8246 31.5779 16.8246Z" fill="black"/>
<path opacity="0.88" d="M21.6071 17.9164C22.1213 17.9164 22.5381 17.4955 22.5381 16.9762C22.5381 16.4569 22.1213 16.0359 21.6071 16.0359C21.0929 16.0359 20.676 16.4569 20.676 16.9762C20.676 17.4955 21.0929 17.9164 21.6071 17.9164Z" fill="black"/>
<path opacity="0.88" d="M9.07717 42.3569C9.59138 42.3569 10.0082 41.9359 10.0082 41.4166C10.0082 40.8973 9.59138 40.4763 9.07717 40.4763C8.56297 40.4763 8.14612 40.8973 8.14612 41.4166C8.14612 41.9359 8.56297 42.3569 9.07717 42.3569Z" fill="black"/>
<path opacity="0.88" d="M14.0419 35.8876C14.5561 35.8876 14.973 35.4667 14.973 34.9474C14.973 34.4281 14.5561 34.0071 14.0419 34.0071C13.5277 34.0071 13.1108 34.4281 13.1108 34.9474C13.1108 35.4667 13.5277 35.8876 14.0419 35.8876Z" fill="black"/>
<path opacity="0.88" d="M11.4512 14.0685C11.9854 14.0685 12.4185 13.6312 12.4185 13.0916C12.4185 12.5521 11.9854 12.1147 11.4512 12.1147C10.917 12.1147 10.4839 12.5521 10.4839 13.0916C10.4839 13.6312 10.917 14.0685 11.4512 14.0685Z" fill="black"/>
<path opacity="0.88" d="M23.3946 12.914C23.9288 12.914 24.3619 12.4766 24.3619 11.9371C24.3619 11.3976 23.9288 10.9602 23.3946 10.9602C22.8603 10.9602 22.4272 11.3976 22.4272 11.9371C22.4272 12.4766 22.8603 12.914 23.3946 12.914Z" fill="black"/>
<path opacity="0.88" d="M15.7771 16.088C16.4654 16.088 17.0234 15.5245 17.0234 14.8294C17.0234 14.1343 16.4654 13.5708 15.7771 13.5708C15.0888 13.5708 14.5309 14.1343 14.5309 14.8294C14.5309 15.5245 15.0888 16.088 15.7771 16.088Z" fill="black"/>
<path opacity="0.88" d="M36.0443 17.2745C36.7326 17.2745 37.2906 16.711 37.2906 16.0159C37.2906 15.3208 36.7326 14.7573 36.0443 14.7573C35.3561 14.7573 34.7981 15.3208 34.7981 16.0159C34.7981 16.711 35.3561 17.2745 36.0443 17.2745Z" fill="black"/>
<path opacity="0.88" d="M38.1903 32.7716C38.8786 32.7716 39.4366 32.2081 39.4366 31.513C39.4366 30.8179 38.8786 30.2544 38.1903 30.2544C37.5021 30.2544 36.9441 30.8179 36.9441 31.513C36.9441 32.2081 37.5021 32.7716 38.1903 32.7716Z" fill="black"/>
<path opacity="0.88" d="M34.6513 30.8215C34.9695 30.8215 35.2275 30.561 35.2275 30.2396C35.2275 29.9182 34.9695 29.6577 34.6513 29.6577C34.333 29.6577 34.0751 29.9182 34.0751 30.2396C34.0751 30.561 34.333 30.8215 34.6513 30.8215Z" fill="black"/>
<path opacity="0.88" d="M19.9245 14.0847C20.2427 14.0847 20.5006 13.8242 20.5006 13.5028C20.5006 13.1814 20.2427 12.9209 19.9245 12.9209C19.6062 12.9209 19.3483 13.1814 19.3483 13.5028C19.3483 13.8242 19.6062 14.0847 19.9245 14.0847Z" fill="black"/>
<path opacity="0.88" d="M14.6021 19.5573C14.9203 19.5573 15.1783 19.2968 15.1783 18.9754C15.1783 18.6541 14.9203 18.3936 14.6021 18.3936C14.2838 18.3936 14.0259 18.6541 14.0259 18.9754C14.0259 19.2968 14.2838 19.5573 14.6021 19.5573Z" fill="black"/>
<path opacity="0.88" d="M5.17055 21.5808C5.48877 21.5808 5.74674 21.3203 5.74674 20.9989C5.74674 20.6775 5.48877 20.417 5.17055 20.417C4.85233 20.417 4.59436 20.6775 4.59436 20.9989C4.59436 21.3203 4.85233 21.5808 5.17055 21.5808Z" fill="black"/>
<path opacity="0.88" d="M16.2747 10.3254C16.5929 10.3254 16.8509 10.0649 16.8509 9.74352C16.8509 9.42214 16.5929 9.16162 16.2747 9.16162C15.9565 9.16162 15.6985 9.42214 15.6985 9.74352C15.6985 10.0649 15.9565 10.3254 16.2747 10.3254Z" fill="black"/>
<path opacity="0.88" d="M19.3969 12.2268C19.7151 12.2268 19.9731 11.9663 19.9731 11.6449C19.9731 11.3235 19.7151 11.063 19.3969 11.063C19.0786 11.063 18.8207 11.3235 18.8207 11.6449C18.8207 11.9663 19.0786 12.2268 19.3969 12.2268Z" fill="black"/>
<path opacity="0.88" d="M27.1668 41.4967C27.8551 41.4967 28.413 40.9332 28.413 40.2381C28.413 39.543 27.8551 38.9795 27.1668 38.9795C26.4785 38.9795 25.9205 39.543 25.9205 40.2381C25.9205 40.9332 26.4785 41.4967 27.1668 41.4967Z" fill="black"/>
<path opacity="0.88" d="M13.1792 27.9864C13.8675 27.9864 14.4255 27.4229 14.4255 26.7278C14.4255 26.0327 13.8675 25.4692 13.1792 25.4692C12.4909 25.4692 11.933 26.0327 11.933 26.7278C11.933 27.4229 12.4909 27.9864 13.1792 27.9864Z" fill="black"/>
<path opacity="0.88" d="M12.0231 31.2426C12.3728 31.2426 12.6563 30.9563 12.6563 30.6031C12.6563 30.2499 12.3728 29.9636 12.0231 29.9636C11.6734 29.9636 11.3899 30.2499 11.3899 30.6031C11.3899 30.9563 11.6734 31.2426 12.0231 31.2426Z" fill="black"/>
<path opacity="0.88" d="M14.3565 31.8593C14.7062 31.8593 14.9897 31.573 14.9897 31.2198C14.9897 30.8666 14.7062 30.5803 14.3565 30.5803C14.0068 30.5803 13.7233 30.8666 13.7233 31.2198C13.7233 31.573 14.0068 31.8593 14.3565 31.8593Z" fill="black"/>
<path opacity="0.88" d="M9.32779 34.8024C9.6775 34.8024 9.96099 34.5161 9.96099 34.1629C9.96099 33.8097 9.6775 33.5234 9.32779 33.5234C8.97808 33.5234 8.69458 33.8097 8.69458 34.1629C8.69458 34.5161 8.97808 34.8024 9.32779 34.8024Z" fill="black"/>
<path opacity="0.88" d="M17.99 21.1471C18.3397 21.1471 18.6232 20.8608 18.6232 20.5076C18.6232 20.1545 18.3397 19.8682 17.99 19.8682C17.6403 19.8682 17.3568 20.1545 17.3568 20.5076C17.3568 20.8608 17.6403 21.1471 17.99 21.1471Z" fill="black"/>
<path opacity="0.88" d="M3.892 27.869C4.24171 27.869 4.5252 27.5827 4.5252 27.2296C4.5252 26.8764 4.24171 26.5901 3.892 26.5901C3.54229 26.5901 3.25879 26.8764 3.25879 27.2296C3.25879 27.5827 3.54229 27.869 3.892 27.869Z" fill="black"/>
<path opacity="0.88" d="M8.40933 26.0778C8.75904 26.0778 9.04254 25.7915 9.04254 25.4383C9.04254 25.0851 8.75904 24.7988 8.40933 24.7988C8.05962 24.7988 7.77612 25.0851 7.77612 25.4383C7.77612 25.7915 8.05962 26.0778 8.40933 26.0778Z" fill="black"/>
<path opacity="0.88" d="M36.4062 37.2147C36.7559 37.2147 37.0394 36.9284 37.0394 36.5753C37.0394 36.2221 36.7559 35.9358 36.4062 35.9358C36.0564 35.9358 35.7729 36.2221 35.7729 36.5753C35.7729 36.9284 36.0564 37.2147 36.4062 37.2147Z" fill="black"/>
<path opacity="0.88" d="M31.2448 38.1083C31.5945 38.1083 31.878 37.822 31.878 37.4688C31.878 37.1156 31.5945 36.8293 31.2448 36.8293C30.8951 36.8293 30.6116 37.1156 30.6116 37.4688C30.6116 37.822 30.8951 38.1083 31.2448 38.1083Z" fill="black"/>
<path opacity="0.88" d="M34.6225 40.1698C34.8379 40.1698 35.0124 39.9935 35.0124 39.7761C35.0124 39.5586 34.8379 39.3823 34.6225 39.3823C34.4072 39.3823 34.2327 39.5586 34.2327 39.7761C34.2327 39.9935 34.4072 40.1698 34.6225 40.1698Z" fill="black"/>
<path opacity="0.88" d="M35.4335 44.9965C35.6488 44.9965 35.8233 44.8202 35.8233 44.6027C35.8233 44.3853 35.6488 44.209 35.4335 44.209C35.2181 44.209 35.0436 44.3853 35.0436 44.6027C35.0436 44.8202 35.2181 44.9965 35.4335 44.9965Z" fill="black"/>
<path opacity="0.88" d="M25.1194 48.8575C25.3347 48.8575 25.5092 48.6813 25.5092 48.4638C25.5092 48.2463 25.3347 48.0701 25.1194 48.0701C24.904 48.0701 24.7295 48.2463 24.7295 48.4638C24.7295 48.6813 24.904 48.8575 25.1194 48.8575Z" fill="black"/>
<path opacity="0.88" d="M14.2825 46.5983C14.4978 46.5983 14.6723 46.422 14.6723 46.2045C14.6723 45.9871 14.4978 45.8108 14.2825 45.8108C14.0671 45.8108 13.8926 45.9871 13.8926 46.2045C13.8926 46.422 14.0671 46.5983 14.2825 46.5983Z" fill="black"/>
<path opacity="0.88" d="M28.0195 43.858C28.2348 43.858 28.4094 43.6818 28.4094 43.4643C28.4094 43.2468 28.2348 43.0706 28.0195 43.0706C27.8042 43.0706 27.6296 43.2468 27.6296 43.4643C27.6296 43.6818 27.8042 43.858 28.0195 43.858Z" fill="black"/>
<path opacity="0.88" d="M24.2193 43.9091C24.4347 43.9091 24.6092 43.7328 24.6092 43.5153C24.6092 43.2979 24.4347 43.1216 24.2193 43.1216C24.004 43.1216 23.8295 43.2979 23.8295 43.5153C23.8295 43.7328 24.004 43.9091 24.2193 43.9091Z" fill="black"/>
<path opacity="0.88" d="M23.2035 39.0314C23.4188 39.0314 23.5934 38.8551 23.5934 38.6376C23.5934 38.4202 23.4188 38.2439 23.2035 38.2439C22.9882 38.2439 22.8136 38.4202 22.8136 38.6376C22.8136 38.8551 22.9882 39.0314 23.2035 39.0314Z" fill="black"/>
<path opacity="0.88" d="M25.3985 36.9528C25.6139 36.9528 25.7884 36.7765 25.7884 36.559C25.7884 36.3416 25.6139 36.1653 25.3985 36.1653C25.1832 36.1653 25.0087 36.3416 25.0087 36.559C25.0087 36.7765 25.1832 36.9528 25.3985 36.9528Z" fill="black"/>
<path opacity="0.88" d="M33.7905 33.2115C34.0058 33.2115 34.1804 33.0353 34.1804 32.8178C34.1804 32.6004 34.0058 32.4241 33.7905 32.4241C33.5752 32.4241 33.4006 32.6004 33.4006 32.8178C33.4006 33.0353 33.5752 33.2115 33.7905 33.2115Z" fill="black"/>
<path opacity="0.88" d="M41.2421 38.1449C41.4574 38.1449 41.6319 37.9686 41.6319 37.7512C41.6319 37.5337 41.4574 37.3574 41.2421 37.3574C41.0267 37.3574 40.8522 37.5337 40.8522 37.7512C40.8522 37.9686 41.0267 38.1449 41.2421 38.1449Z" fill="black"/>
<path opacity="0.88" d="M32.5368 30.1051C32.7522 30.1051 32.9267 29.9288 32.9267 29.7114C32.9267 29.4939 32.7522 29.3176 32.5368 29.3176C32.3215 29.3176 32.147 29.4939 32.147 29.7114C32.147 29.9288 32.3215 30.1051 32.5368 30.1051Z" fill="black"/>
<path opacity="0.88" d="M31.7776 24.2186C31.9929 24.2186 32.1675 24.0423 32.1675 23.8249C32.1675 23.6074 31.9929 23.4312 31.7776 23.4312C31.5623 23.4312 31.3877 23.6074 31.3877 23.8249C31.3877 24.0423 31.5623 24.2186 31.7776 24.2186Z" fill="black"/>
<path opacity="0.88" d="M41.3006 19.3021C41.516 19.3021 41.6905 19.1258 41.6905 18.9084C41.6905 18.6909 41.516 18.5146 41.3006 18.5146C41.0853 18.5146 40.9108 18.6909 40.9108 18.9084C40.9108 19.1258 41.0853 19.3021 41.3006 19.3021Z" fill="black"/>
<path opacity="0.88" d="M43.5665 29.9906C43.7818 29.9906 43.9564 29.8143 43.9564 29.5969C43.9564 29.3794 43.7818 29.2031 43.5665 29.2031C43.3512 29.2031 43.1766 29.3794 43.1766 29.5969C43.1766 29.8143 43.3512 29.9906 43.5665 29.9906Z" fill="black"/>
<path opacity="0.88" d="M35.4479 18.9838C35.6632 18.9838 35.8377 18.8075 35.8377 18.59C35.8377 18.3726 35.6632 18.1963 35.4479 18.1963C35.2325 18.1963 35.058 18.3726 35.058 18.59C35.058 18.8075 35.2325 18.9838 35.4479 18.9838Z" fill="black"/>
<path opacity="0.88" d="M37.0809 18.8685C37.2962 18.8685 37.4708 18.6923 37.4708 18.4748C37.4708 18.2573 37.2962 18.0811 37.0809 18.0811C36.8656 18.0811 36.691 18.2573 36.691 18.4748C36.691 18.6923 36.8656 18.8685 37.0809 18.8685Z" fill="black"/>
<path opacity="0.88" d="M39.6374 16.6837C39.8528 16.6837 40.0273 16.5074 40.0273 16.29C40.0273 16.0725 39.8528 15.8962 39.6374 15.8962C39.4221 15.8962 39.2476 16.0725 39.2476 16.29C39.2476 16.5074 39.4221 16.6837 39.6374 16.6837Z" fill="black"/>
<path opacity="0.88" d="M16.2993 22.2296C16.5146 22.2296 16.6892 22.0533 16.6892 21.8359C16.6892 21.6184 16.5146 21.4421 16.2993 21.4421C16.084 21.4421 15.9094 21.6184 15.9094 21.8359C15.9094 22.0533 16.084 22.2296 16.2993 22.2296Z" fill="black"/>
<path opacity="0.88" d="M14.6911 25.0267C14.9065 25.0267 15.081 24.8505 15.081 24.633C15.081 24.4155 14.9065 24.2393 14.6911 24.2393C14.4758 24.2393 14.3013 24.4155 14.3013 24.633C14.3013 24.8505 14.4758 25.0267 14.6911 25.0267Z" fill="black"/>
<path opacity="0.88" d="M5.81432 32.0695C6.02964 32.0695 6.20419 31.8932 6.20419 31.6757C6.20419 31.4583 6.02964 31.282 5.81432 31.282C5.59899 31.282 5.42444 31.4583 5.42444 31.6757C5.42444 31.8932 5.59899 32.0695 5.81432 32.0695Z" fill="black"/>
<path opacity="0.88" d="M4.50011 34.6246C4.71543 34.6246 4.88999 34.4484 4.88999 34.2309C4.88999 34.0134 4.71543 33.8372 4.50011 33.8372C4.28478 33.8372 4.11023 34.0134 4.11023 34.2309C4.11023 34.4484 4.28478 34.6246 4.50011 34.6246Z" fill="black"/>
<path opacity="0.88" d="M23.3435 8.53748C23.5588 8.53748 23.7334 8.36119 23.7334 8.14374C23.7334 7.92628 23.5588 7.75 23.3435 7.75C23.1282 7.75 22.9536 7.92628 22.9536 8.14374C22.9536 8.36119 23.1282 8.53748 23.3435 8.53748Z" fill="black"/>
<path opacity="0.88" d="M31.5594 12.2428C31.7748 12.2428 31.9493 12.0665 31.9493 11.8491C31.9493 11.6316 31.7748 11.4553 31.5594 11.4553C31.3441 11.4553 31.1696 11.6316 31.1696 11.8491C31.1696 12.0665 31.3441 12.2428 31.5594 12.2428Z" fill="black"/>
<path opacity="0.88" d="M16.1526 40.3436C16.3679 40.3436 16.5425 40.1673 16.5425 39.9499C16.5425 39.7324 16.3679 39.5562 16.1526 39.5562C15.9372 39.5562 15.7627 39.7324 15.7627 39.9499C15.7627 40.1673 15.9372 40.3436 16.1526 40.3436Z" fill="black"/>
<path opacity="0.88" d="M17.3332 37.5504C17.5486 37.5504 17.7231 37.3741 17.7231 37.1567C17.7231 36.9392 17.5486 36.7629 17.3332 36.7629C17.1179 36.7629 16.9434 36.9392 16.9434 37.1567C16.9434 37.3741 17.1179 37.5504 17.3332 37.5504Z" fill="black"/>
<path opacity="0.88" d="M12.6536 40.4395C13.3419 40.4395 13.8998 39.876 13.8998 39.1809C13.8998 38.4859 13.3419 37.9224 12.6536 37.9224C11.9653 37.9224 11.4073 38.4859 11.4073 39.1809C11.4073 39.876 11.9653 40.4395 12.6536 40.4395Z" fill="black"/>
<path opacity="0.88" d="M31.175 34.7821C31.8632 34.7821 32.4212 34.2186 32.4212 33.5235C32.4212 32.8284 31.8632 32.2649 31.175 32.2649C30.4867 32.2649 29.9287 32.8284 29.9287 33.5235C29.9287 34.2186 30.4867 34.7821 31.175 34.7821Z" fill="black"/>
<path opacity="0.88" d="M40.453 23.4469C40.8027 23.4469 41.0862 23.1606 41.0862 22.8074C41.0862 22.4543 40.8027 22.168 40.453 22.168C40.1033 22.168 39.8198 22.4543 39.8198 22.8074C39.8198 23.1606 40.1033 23.4469 40.453 23.4469Z" fill="black"/>
<path opacity="0.88" d="M9.34585 19.5548C9.69556 19.5548 9.97906 19.2685 9.97906 18.9154C9.97906 18.5622 9.69556 18.2759 9.34585 18.2759C8.99614 18.2759 8.71265 18.5622 8.71265 18.9154C8.71265 19.2685 8.99614 19.5548 9.34585 19.5548Z" fill="black"/>
<path opacity="0.88" d="M33.6333 27.4267C33.9515 27.4267 34.2095 27.1662 34.2095 26.8448C34.2095 26.5235 33.9515 26.2629 33.6333 26.2629C33.3151 26.2629 33.0571 26.5235 33.0571 26.8448C33.0571 27.1662 33.3151 27.4267 33.6333 27.4267Z" fill="black"/>
<path opacity="0.88" d="M7.90468 38.5183C8.2229 38.5183 8.48087 38.2578 8.48087 37.9364C8.48087 37.615 8.2229 37.3545 7.90468 37.3545C7.58646 37.3545 7.32849 37.615 7.32849 37.9364C7.32849 38.2578 7.58646 38.5183 7.90468 38.5183Z" fill="black"/>
<path opacity="0.88" d="M21.5459 45.988C21.8641 45.988 22.1221 45.7275 22.1221 45.4061C22.1221 45.0847 21.8641 44.8242 21.5459 44.8242C21.2277 44.8242 20.9697 45.0847 20.9697 45.4061C20.9697 45.7275 21.2277 45.988 21.5459 45.988Z" fill="black"/>
<path opacity="0.88" d="M32.0188 43.6216C32.337 43.6216 32.595 43.361 32.595 43.0397C32.595 42.7183 32.337 42.4578 32.0188 42.4578C31.7006 42.4578 31.4426 42.7183 31.4426 43.0397C31.4426 43.361 31.7006 43.6216 32.0188 43.6216Z" fill="black"/>
<path opacity="0.88" d="M22.5418 42.3576C22.86 42.3576 23.118 42.0971 23.118 41.7757C23.118 41.4544 22.86 41.1938 22.5418 41.1938C22.2235 41.1938 21.9656 41.4544 21.9656 41.7757C21.9656 42.0971 22.2235 42.3576 22.5418 42.3576Z" fill="black"/>
<path opacity="0.88" d="M30.8996 9.80969C31.115 9.80969 31.2895 9.63341 31.2895 9.41595C31.2895 9.1985 31.115 9.02222 30.8996 9.02222C30.6843 9.02222 30.5098 9.1985 30.5098 9.41595C30.5098 9.63341 30.6843 9.80969 30.8996 9.80969Z" fill="black"/>
<path opacity="0.88" d="M34.4673 11.7636C34.6826 11.7636 34.8572 11.5873 34.8572 11.3698C34.8572 11.1524 34.6826 10.9761 34.4673 10.9761C34.2519 10.9761 34.0774 11.1524 34.0774 11.3698C34.0774 11.5873 34.2519 11.7636 34.4673 11.7636Z" fill="black"/>
<path d="M28.3098 15.5017L16.8236 29.8866L22.0965 29.9244L18.0764 41.396L29.8429 26.479L24.4646 26.4988L28.3098 15.5017Z" fill="black"/>
</g>
<path d="M70.0839 17.776C70.1798 18.256 70.2277 18.72 70.2277 19.168C70.2277 19.584 70.1798 20.032 70.0839 20.512L63.9973 20.464V36.592C63.9973 37.936 64.6203 38.608 65.8664 38.608H69.5088C69.7324 39.152 69.8443 39.696 69.8443 40.24C69.8443 40.784 69.8123 41.12 69.7484 41.248C68.2787 41.44 66.761 41.536 65.1954 41.536C62.0962 41.536 60.5466 40.208 60.5466 37.552V20.464L57.1438 20.512C57.0479 20.032 57 19.584 57 19.168C57 18.72 57.0479 18.256 57.1438 17.776L60.5466 17.824V12.784C60.5466 11.92 60.6744 11.312 60.93 10.96C61.1856 10.576 61.6808 10.384 62.4157 10.384H63.7097L63.9973 10.672V17.872L70.0839 17.776Z" fill="black"/>
<path d="M93.275 18.016L86.7091 40.528C85.495 44.656 84.201 47.568 82.8271 49.264C81.4532 50.96 79.3924 51.808 76.6446 51.808C75.2387 51.808 73.9447 51.6 72.7625 51.184C72.6667 50.288 72.9223 49.424 73.5294 48.592C74.5198 48.944 75.5742 49.12 76.6925 49.12C78.3859 49.12 79.6799 48.544 80.5745 47.392C81.4692 46.24 82.2839 44.448 83.0188 42.016L83.1626 41.536C82.3318 41.472 81.6928 41.28 81.2455 40.96C80.8301 40.64 80.4787 40.048 80.1911 39.184L73.4814 18.064C74.4719 17.648 75.1748 17.44 75.5902 17.44C76.5168 17.44 77.1398 18 77.4593 19.12L81.2455 31.168C81.3733 31.552 82.1082 34.048 83.4501 38.656C83.514 38.88 83.6738 38.992 83.9294 38.992L89.7764 17.776C90.1918 17.648 90.7349 17.584 91.4059 17.584C92.1088 17.584 92.6999 17.68 93.1792 17.872L93.275 18.016Z" fill="black"/>
<path d="M102.484 39.76V49.264C102.484 50.128 102.356 50.736 102.101 51.088C101.845 51.472 101.334 51.664 100.567 51.664H99.2729L98.9854 51.376V17.92L99.2729 17.632H100.519C101.286 17.632 101.797 17.84 102.053 18.256C102.34 18.64 102.484 19.28 102.484 20.176V20.416C104.401 18.272 106.686 17.2 109.337 17.2C112.053 17.2 114.098 18.304 115.472 20.512C116.846 22.688 117.533 25.712 117.533 29.584C117.533 31.472 117.277 33.168 116.766 34.672C116.287 36.176 115.632 37.456 114.801 38.512C114.002 39.536 113.076 40.336 112.021 40.912C110.967 41.456 109.881 41.728 108.762 41.728C106.558 41.728 104.465 41.072 102.484 39.76ZM102.484 24.16V36.496C104.433 37.936 106.27 38.656 107.996 38.656C109.721 38.656 111.143 37.888 112.261 36.352C113.379 34.816 113.938 32.496 113.938 29.392C113.938 27.856 113.795 26.528 113.507 25.408C113.251 24.256 112.9 23.312 112.453 22.576C112.005 21.808 111.478 21.248 110.871 20.896C110.296 20.512 109.673 20.32 109.002 20.32C107.724 20.32 106.51 20.656 105.36 21.328C104.209 22 103.251 22.944 102.484 24.16Z" fill="black"/>
<path d="M141.801 30.64H126.944C127.104 36.08 129.165 38.8 133.127 38.8C135.299 38.8 137.616 38.128 140.076 36.784C140.779 37.424 141.21 38.24 141.37 39.232C138.75 41.024 135.81 41.92 132.551 41.92C130.89 41.92 129.468 41.616 128.286 41.008C127.104 40.368 126.129 39.504 125.362 38.416C124.628 37.296 124.084 35.984 123.733 34.48C123.382 32.976 123.206 31.328 123.206 29.536C123.206 27.712 123.413 26.048 123.829 24.544C124.276 23.04 124.915 21.744 125.746 20.656C126.577 19.568 127.567 18.72 128.717 18.112C129.9 17.504 131.241 17.2 132.743 17.2C134.213 17.2 135.523 17.472 136.673 18.016C137.855 18.528 138.83 19.248 139.597 20.176C140.395 21.072 141.002 22.16 141.418 23.44C141.833 24.688 142.041 26.032 142.041 27.472C142.041 28.048 142.009 28.608 141.945 29.152C141.913 29.664 141.865 30.16 141.801 30.64ZM126.944 27.904H138.446V27.28C138.446 25.072 137.983 23.296 137.057 21.952C136.13 20.608 134.74 19.936 132.887 19.936C131.066 19.936 129.644 20.656 128.621 22.096C127.631 23.536 127.072 25.472 126.944 27.904Z" fill="black"/>
<path d="M146.734 39.664C146.766 38.96 146.958 38.192 147.309 37.36C147.693 36.496 148.124 35.824 148.603 35.344C151.128 36.72 153.348 37.408 155.265 37.408C156.32 37.408 157.166 37.2 157.805 36.784C158.476 36.368 158.812 35.808 158.812 35.104C158.812 33.984 157.949 33.088 156.224 32.416L153.54 31.408C149.514 29.936 147.501 27.584 147.501 24.352C147.501 23.2 147.709 22.176 148.124 21.28C148.571 20.352 149.179 19.568 149.945 18.928C150.744 18.256 151.687 17.744 152.773 17.392C153.859 17.04 155.073 16.864 156.415 16.864C157.022 16.864 157.693 16.912 158.428 17.008C159.195 17.104 159.962 17.248 160.729 17.44C161.496 17.6 162.23 17.792 162.933 18.016C163.636 18.24 164.243 18.48 164.755 18.736C164.755 19.536 164.595 20.368 164.275 21.232C163.956 22.096 163.525 22.736 162.981 23.152C160.457 22.032 158.269 21.472 156.415 21.472C155.585 21.472 154.93 21.68 154.45 22.096C153.971 22.48 153.732 22.992 153.732 23.632C153.732 24.624 154.53 25.408 156.128 25.984L159.051 27.04C161.16 27.776 162.726 28.784 163.748 30.064C164.771 31.344 165.282 32.832 165.282 34.528C165.282 36.8 164.435 38.624 162.742 40C161.048 41.344 158.62 42.016 155.457 42.016C152.358 42.016 149.45 41.232 146.734 39.664Z" fill="black"/>
<path d="M188.738 31.456H175.511C175.607 33.216 176.006 34.608 176.709 35.632C177.444 36.624 178.706 37.12 180.495 37.12C182.348 37.12 184.473 36.576 186.869 35.488C187.796 36.448 188.387 37.712 188.643 39.28C186.086 41.104 183.019 42.016 179.441 42.016C176.054 42.016 173.482 40.976 171.725 38.896C169.999 36.784 169.137 33.664 169.137 29.536C169.137 27.616 169.36 25.888 169.807 24.352C170.255 22.784 170.91 21.456 171.772 20.368C172.635 19.248 173.69 18.384 174.936 17.776C176.182 17.168 177.603 16.864 179.201 16.864C180.831 16.864 182.268 17.12 183.514 17.632C184.761 18.112 185.815 18.816 186.678 19.744C187.54 20.64 188.179 21.712 188.595 22.96C189.042 24.208 189.266 25.568 189.266 27.04C189.266 27.84 189.218 28.608 189.122 29.344C189.026 30.048 188.898 30.752 188.738 31.456ZM179.489 21.376C176.996 21.376 175.654 23.264 175.463 27.04H183.419V26.464C183.419 24.928 183.099 23.696 182.46 22.768C181.821 21.84 180.831 21.376 179.489 21.376Z" fill="black"/>
<path d="M215.004 25.312V35.776C215.004 37.824 215.34 39.344 216.011 40.336C214.988 41.232 213.758 41.68 212.32 41.68C210.947 41.68 210.004 41.376 209.493 40.768C208.982 40.128 208.726 39.136 208.726 37.792V26.608C208.726 25.168 208.55 24.16 208.199 23.584C207.847 23.008 207.192 22.72 206.234 22.72C204.54 22.72 202.959 23.488 201.489 25.024V41.344C201.01 41.44 200.499 41.504 199.955 41.536C199.444 41.568 198.917 41.584 198.374 41.584C197.831 41.584 197.288 41.568 196.744 41.536C196.233 41.504 195.738 41.44 195.259 41.344V17.584L195.546 17.248H197.943C199.732 17.248 200.85 18.208 201.297 20.128C203.63 18.112 205.946 17.104 208.247 17.104C210.547 17.104 212.241 17.856 213.327 19.36C214.445 20.832 215.004 22.816 215.004 25.312Z" fill="black"/>
<path d="M220.032 39.664C220.064 38.96 220.255 38.192 220.607 37.36C220.99 36.496 221.422 35.824 221.901 35.344C224.425 36.72 226.646 37.408 228.563 37.408C229.617 37.408 230.464 37.2 231.103 36.784C231.774 36.368 232.109 35.808 232.109 35.104C232.109 33.984 231.246 33.088 229.521 32.416L226.837 31.408C222.811 29.936 220.799 27.584 220.799 24.352C220.799 23.2 221.006 22.176 221.422 21.28C221.869 20.352 222.476 19.568 223.243 18.928C224.042 18.256 224.984 17.744 226.07 17.392C227.157 17.04 228.371 16.864 229.713 16.864C230.32 16.864 230.991 16.912 231.726 17.008C232.493 17.104 233.259 17.248 234.026 17.44C234.793 17.6 235.528 17.792 236.231 18.016C236.934 18.24 237.541 18.48 238.052 18.736C238.052 19.536 237.892 20.368 237.573 21.232C237.253 22.096 236.822 22.736 236.279 23.152C233.755 22.032 231.566 21.472 229.713 21.472C228.882 21.472 228.227 21.68 227.748 22.096C227.269 22.48 227.029 22.992 227.029 23.632C227.029 24.624 227.828 25.408 229.425 25.984L232.349 27.04C234.458 27.776 236.023 28.784 237.046 30.064C238.068 31.344 238.579 32.832 238.579 34.528C238.579 36.8 237.733 38.624 236.039 40C234.346 41.344 231.917 42.016 228.754 42.016C225.655 42.016 222.748 41.232 220.032 39.664Z" fill="black"/>
<path d="M262.036 31.456H248.808C248.904 33.216 249.303 34.608 250.006 35.632C250.741 36.624 252.003 37.12 253.792 37.12C255.646 37.12 257.77 36.576 260.167 35.488C261.093 36.448 261.684 37.712 261.94 39.28C259.384 41.104 256.317 42.016 252.738 42.016C249.351 42.016 246.779 40.976 245.022 38.896C243.297 36.784 242.434 33.664 242.434 29.536C242.434 27.616 242.658 25.888 243.105 24.352C243.552 22.784 244.207 21.456 245.07 20.368C245.933 19.248 246.987 18.384 248.233 17.776C249.479 17.168 250.901 16.864 252.498 16.864C254.128 16.864 255.566 17.12 256.812 17.632C258.058 18.112 259.112 18.816 259.975 19.744C260.838 20.64 261.477 21.712 261.892 22.96C262.339 24.208 262.563 25.568 262.563 27.04C262.563 27.84 262.515 28.608 262.419 29.344C262.323 30.048 262.196 30.752 262.036 31.456ZM252.786 21.376C250.294 21.376 248.952 23.264 248.76 27.04H256.716V26.464C256.716 24.928 256.396 23.696 255.757 22.768C255.118 21.84 254.128 21.376 252.786 21.376Z" fill="black"/>
<path d="M269.467 48.064V4.144C269.946 4.048 270.489 4 271.096 4C271.735 4 272.326 4.048 272.869 4.144V48.064C272.326 48.16 271.735 48.208 271.096 48.208C270.489 48.208 269.946 48.16 269.467 48.064Z" fill="black"/>
<defs>
<clipPath id="clip0_3729_2928">
<rect width="41" height="42" fill="white" transform="translate(3 7)"/>
</clipPath>
</defs>
</svg>
