<svg width="300" height="62" viewBox="0 0 300 62" fill="none" xmlns="http://www.w3.org/2000/svg">
<g clip-path="url(#clip0_3735_8655)">
<path opacity="0.88" d="M33.3067 45.2991L32.657 47.8266" stroke="#C0FF58" stroke-width="0.12"/>
<path opacity="0.88" d="M38.978 46.6943L36.2571 51.1826" stroke="#C0FF58" stroke-width="0.12"/>
<path opacity="0.88" d="M37.4147 44.2108L35.4912 46.2703" stroke="#C0FF58" stroke-width="0.12"/>
<path opacity="0.88" d="M38.4246 44.4625L38.8917 46.1446" stroke="#C0FF58" stroke-width="0.12"/>
<path opacity="0.88" d="M34.0707 44.6052L37.0691 43.7712" stroke="#C0FF58" stroke-width="0.12"/>
<path opacity="0.88" d="M34.6171 41.799L36.9699 42.8199" stroke="#C0FF58" stroke-width="0.12"/>
<path opacity="0.88" d="M36.5242 39.9364L37.5949 42.1603" stroke="#C0FF58" stroke-width="0.12"/>
<path opacity="0.88" d="M41.5643 37.639L38.9252 42.2321" stroke="#C0FF58" stroke-width="0.12"/>
<path opacity="0.88" d="M23.0276 30.1895L18.9875 31.7592" stroke="#C0FF58" stroke-width="0.12"/>
<path opacity="0.88" d="M22.8804 25.8989L16.6597 24.1709" stroke="#C0FF58" stroke-width="0.12"/>
<path opacity="0.88" d="M23.1678 25.255L20.6412 22.4617" stroke="#C0FF58" stroke-width="0.12"/>
<path opacity="0.88" d="M28.5391 23.2493L26.0426 22.1707" stroke="#C0FF58" stroke-width="0.12"/>
<path opacity="0.88" d="M28.6075 23.8588L27.5425 24.615" stroke="#C0FF58" stroke-width="0.12"/>
<path opacity="0.88" d="M25.5428 17.5876L23.2488 16.5408" stroke="#C0FF58" stroke-width="0.12"/>
<path opacity="0.88" d="M25.861 18.5414L20.7476 21.633" stroke="#C0FF58" stroke-width="0.12"/>
<path opacity="0.88" d="M30.4394 16.7188L27.9249 17.5656" stroke="#C0FF58" stroke-width="0.12"/>
<path opacity="0.88" d="M27.1916 13.2344L26.8076 16.6395" stroke="#C0FF58" stroke-width="0.12"/>
<path opacity="0.88" d="M34.0663 11.397L30.8116 14.2953" stroke="#C0FF58" stroke-width="0.12"/>
<path opacity="0.88" d="M31.9092 20.4973L29.4578 23.1059" stroke="#C0FF58" stroke-width="0.12"/>
<path opacity="0.88" d="M32.163 19.3499L31.1239 17.0573" stroke="#C0FF58" stroke-width="0.12"/>
<path opacity="0.88" d="M23.835 30.9028L23.0983 33.0237" stroke="#C0FF58" stroke-width="0.12"/>
<path opacity="0.88" d="M19.213 29.0841L18.3878 31.2943" stroke="#C0FF58" stroke-width="0.12"/>
<path opacity="0.88" d="M17.4353 31.7709L15.3311 30.6287" stroke="#C0FF58" stroke-width="0.12"/>
<path opacity="0.88" d="M25.5532 27.7935L24.8812 28.8588" stroke="#C0FF58" stroke-width="0.12"/>
<path opacity="0.88" d="M17.8094 32.8832L17.058 34.3487" stroke="#C0FF58" stroke-width="0.12"/>
<path opacity="0.88" d="M24.8752 34.4246L20.8477 36.8153" stroke="#C0FF58" stroke-width="0.12"/>
<path opacity="0.88" d="M18.5289 40.5802L15.6914 37.5452" stroke="#C0FF58" stroke-width="0.12"/>
<path opacity="0.88" d="M27.9743 40.2544L24.7039 41.5452" stroke="#C0FF58" stroke-width="0.12"/>
<path opacity="0.88" d="M24.7328 38.7114L23.9094 41.0051" stroke="#C0FF58" stroke-width="0.12"/>
<path opacity="0.88" d="M26.8159 42.8599L24.809 42.4319" stroke="#C0FF58" stroke-width="0.12"/>
<path opacity="0.88" d="M22.453 41.9596L19.4205 41.2101" stroke="#C0FF58" stroke-width="0.12"/>
<path opacity="0.88" d="M22.6489 42.9149L20.8451 43.9379" stroke="#C0FF58" stroke-width="0.12"/>
<path opacity="0.88" d="M24.1453 43.3262L25.2698 48.9074" stroke="#C0FF58" stroke-width="0.12"/>
<path opacity="0.88" d="M43.2628 37.0347L46.8618 39.3131" stroke="#C0FF58" stroke-width="0.12"/>
<path opacity="0.88" d="M43.8768 32.8597L45.1118 33.1365" stroke="#C0FF58" stroke-width="0.12"/>
<path opacity="0.88" d="M45.1854 29.8679L49.4217 29.6469" stroke="#C0FF58" stroke-width="0.12"/>
<path opacity="0.88" d="M45.7842 25.7216L44.8065 29.3722" stroke="#C0FF58" stroke-width="0.12"/>
<path opacity="0.88" d="M46.6389 25.5375L49.725 29.0222" stroke="#C0FF58" stroke-width="0.12"/>
<path opacity="0.88" d="M46.9897 24.8645L50.8645 25.6611" stroke="#C0FF58" stroke-width="0.12"/>
<path opacity="0.88" d="M51.8629 26.0439L54.5226 32.2142" stroke="#C0FF58" stroke-width="0.12"/>
<path opacity="0.88" d="M46.7864 24.3299L52.0324 22.0847" stroke="#C0FF58" stroke-width="0.12"/>
<path opacity="0.88" d="M46.2115 23.9488L46.4269 21.9716" stroke="#C0FF58" stroke-width="0.12"/>
<path opacity="0.88" d="M47.9939 21.0953L47.7051 19.9871" stroke="#C0FF58" stroke-width="0.12"/>
<path opacity="0.88" d="M50.4286 19.5931L48.4388 21.4291" stroke="#C0FF58" stroke-width="0.12"/>
<path opacity="0.88" d="M41.1792 23.3328L45.3169 24.4059" stroke="#C0FF58" stroke-width="0.12"/>
<path opacity="0.88" d="M42.9688 26.6038L45.3191 25.2971" stroke="#C0FF58" stroke-width="0.12"/>
<path opacity="0.88" d="M43.0226 19.6583L45.6267 24.0833" stroke="#C0FF58" stroke-width="0.12"/>
<path opacity="0.88" d="M42.1513 19.673L40.7136 22.1178" stroke="#C0FF58" stroke-width="0.12"/>
<path opacity="0.88" d="M45.3334 14.7096L43.0848 18.1191" stroke="#C0FF58" stroke-width="0.12"/>
<path opacity="0.88" d="M45.1159 14.4689L42.9404 14.7766" stroke="#C0FF58" stroke-width="0.12"/>
<path opacity="0.88" d="M42.4374 14.4961L41.985 12.7437" stroke="#C0FF58" stroke-width="0.12"/>
<path opacity="0.88" d="M46.1498 33.4872L47.967 34.2981" stroke="#C0FF58" stroke-width="0.12"/>
<path opacity="0.88" d="M45.1703 35.7382L48.0419 34.9222" stroke="#C0FF58" stroke-width="0.12"/>
<path opacity="0.88" d="M47.6478 39.0438L48.9161 35.7435" stroke="#C0FF58" stroke-width="0.12"/>
<path opacity="0.88" d="M48.0071 39.6663L51.863 40.6566" stroke="#C0FF58" stroke-width="0.12"/>
<path opacity="0.88" d="M41.7057 40.8423L39.2939 42.6989" stroke="#C0FF58" stroke-width="0.12"/>
<path opacity="0.88" d="M45.2382 42.8149L39.4258 43.2942" stroke="#C0FF58" stroke-width="0.12"/>
<path opacity="0.88" d="M46.0912 47.4318L43.5251 46.2894" stroke="#C0FF58" stroke-width="0.12"/>
<path opacity="0.88" d="M46.0786 25.7964C46.5928 25.7964 47.0097 25.3755 47.0097 24.8562C47.0097 24.3369 46.5928 23.9159 46.0786 23.9159C45.5644 23.9159 45.1476 24.3369 45.1476 24.8562C45.1476 25.3755 45.5644 25.7964 46.0786 25.7964Z" fill="#C0FF58"/>
<path opacity="0.88" d="M40.3987 23.878C40.9129 23.878 41.3298 23.457 41.3298 22.9377C41.3298 22.4184 40.9129 21.9974 40.3987 21.9974C39.8845 21.9974 39.4677 22.4184 39.4677 22.9377C39.4677 23.457 39.8845 23.878 40.3987 23.878Z" fill="#C0FF58"/>
<path opacity="0.88" d="M23.7747 26.7941C24.2889 26.7941 24.7057 26.3732 24.7057 25.8539C24.7057 25.3346 24.2889 24.9136 23.7747 24.9136C23.2605 24.9136 22.8436 25.3346 22.8436 25.8539C22.8436 26.3732 23.2605 26.7941 23.7747 26.7941Z" fill="#C0FF58"/>
<path opacity="0.88" d="M18.157 33.0667C18.6712 33.0667 19.0881 32.6457 19.0881 32.1264C19.0881 31.6071 18.6712 31.1862 18.157 31.1862C17.6428 31.1862 17.226 31.6071 17.226 32.1264C17.226 32.6457 17.6428 33.0667 18.157 33.0667Z" fill="#C0FF58"/>
<path opacity="0.88" d="M50.335 30.5655C50.8492 30.5655 51.266 30.1445 51.266 29.6252C51.266 29.1059 50.8492 28.6849 50.335 28.6849C49.8208 28.6849 49.4039 29.1059 49.4039 29.6252C49.4039 30.1445 49.8208 30.5655 50.335 30.5655Z" fill="#C0FF58"/>
<path opacity="0.88" d="M42.5779 19.8246C43.0921 19.8246 43.509 19.4037 43.509 18.8844C43.509 18.3651 43.0921 17.9441 42.5779 17.9441C42.0637 17.9441 41.6469 18.3651 41.6469 18.8844C41.6469 19.4037 42.0637 19.8246 42.5779 19.8246Z" fill="#C0FF58"/>
<path opacity="0.88" d="M32.6071 20.9163C33.1213 20.9163 33.5381 20.4953 33.5381 19.976C33.5381 19.4567 33.1213 19.0358 32.6071 19.0358C32.0929 19.0358 31.676 19.4567 31.676 19.976C31.676 20.4953 32.0929 20.9163 32.6071 20.9163Z" fill="#C0FF58"/>
<path opacity="0.88" d="M20.0772 45.3567C20.5914 45.3567 21.0082 44.9358 21.0082 44.4165C21.0082 43.8972 20.5914 43.4762 20.0772 43.4762C19.563 43.4762 19.1461 43.8972 19.1461 44.4165C19.1461 44.9358 19.563 45.3567 20.0772 45.3567Z" fill="#C0FF58"/>
<path opacity="0.88" d="M25.0419 38.8876C25.5561 38.8876 25.973 38.4667 25.973 37.9474C25.973 37.4281 25.5561 37.0071 25.0419 37.0071C24.5277 37.0071 24.1108 37.4281 24.1108 37.9474C24.1108 38.4667 24.5277 38.8876 25.0419 38.8876Z" fill="#C0FF58"/>
<path opacity="0.88" d="M22.4512 17.0687C22.9854 17.0687 23.4185 16.6313 23.4185 16.0918C23.4185 15.5522 22.9854 15.1149 22.4512 15.1149C21.917 15.1149 21.4839 15.5522 21.4839 16.0918C21.4839 16.6313 21.917 17.0687 22.4512 17.0687Z" fill="#C0FF58"/>
<path opacity="0.88" d="M34.3946 15.9141C34.9288 15.9141 35.3619 15.4767 35.3619 14.9372C35.3619 14.3977 34.9288 13.9603 34.3946 13.9603C33.8603 13.9603 33.4272 14.3977 33.4272 14.9372C33.4272 15.4767 33.8603 15.9141 34.3946 15.9141Z" fill="#C0FF58"/>
<path opacity="0.88" d="M26.7771 19.088C27.4654 19.088 28.0234 18.5245 28.0234 17.8294C28.0234 17.1343 27.4654 16.5708 26.7771 16.5708C26.0888 16.5708 25.5309 17.1343 25.5309 17.8294C25.5309 18.5245 26.0888 19.088 26.7771 19.088Z" fill="#C0FF58"/>
<path opacity="0.88" d="M47.0443 20.2745C47.7326 20.2745 48.2906 19.711 48.2906 19.0159C48.2906 18.3208 47.7326 17.7573 47.0443 17.7573C46.3561 17.7573 45.7981 18.3208 45.7981 19.0159C45.7981 19.711 46.3561 20.2745 47.0443 20.2745Z" fill="#C0FF58"/>
<path opacity="0.88" d="M49.1903 35.7714C49.8786 35.7714 50.4366 35.208 50.4366 34.5129C50.4366 33.8178 49.8786 33.2543 49.1903 33.2543C48.5021 33.2543 47.9441 33.8178 47.9441 34.5129C47.9441 35.208 48.5021 35.7714 49.1903 35.7714Z" fill="#C0FF58"/>
<path opacity="0.88" d="M45.6513 33.8215C45.9695 33.8215 46.2275 33.561 46.2275 33.2396C46.2275 32.9182 45.9695 32.6577 45.6513 32.6577C45.333 32.6577 45.0751 32.9182 45.0751 33.2396C45.0751 33.561 45.333 33.8215 45.6513 33.8215Z" fill="#C0FF58"/>
<path opacity="0.88" d="M30.9245 17.0847C31.2427 17.0847 31.5006 16.8242 31.5006 16.5028C31.5006 16.1814 31.2427 15.9209 30.9245 15.9209C30.6062 15.9209 30.3483 16.1814 30.3483 16.5028C30.3483 16.8242 30.6062 17.0847 30.9245 17.0847Z" fill="#C0FF58"/>
<path opacity="0.88" d="M25.6021 22.5573C25.9203 22.5573 26.1783 22.2968 26.1783 21.9754C26.1783 21.6541 25.9203 21.3936 25.6021 21.3936C25.2838 21.3936 25.0259 21.6541 25.0259 21.9754C25.0259 22.2968 25.2838 22.5573 25.6021 22.5573Z" fill="#C0FF58"/>
<path opacity="0.88" d="M16.1705 24.5807C16.4888 24.5807 16.7467 24.3201 16.7467 23.9988C16.7467 23.6774 16.4888 23.4169 16.1705 23.4169C15.8523 23.4169 15.5944 23.6774 15.5944 23.9988C15.5944 24.3201 15.8523 24.5807 16.1705 24.5807Z" fill="#C0FF58"/>
<path opacity="0.88" d="M27.2747 13.3253C27.5929 13.3253 27.8509 13.0648 27.8509 12.7434C27.8509 12.422 27.5929 12.1615 27.2747 12.1615C26.9565 12.1615 26.6985 12.422 26.6985 12.7434C26.6985 13.0648 26.9565 13.3253 27.2747 13.3253Z" fill="#C0FF58"/>
<path opacity="0.88" d="M30.3969 15.2269C30.7151 15.2269 30.9731 14.9664 30.9731 14.645C30.9731 14.3236 30.7151 14.0631 30.3969 14.0631C30.0786 14.0631 29.8207 14.3236 29.8207 14.645C29.8207 14.9664 30.0786 15.2269 30.3969 15.2269Z" fill="#C0FF58"/>
<path opacity="0.88" d="M38.1668 44.4965C38.8551 44.4965 39.413 43.9331 39.413 43.238C39.413 42.5429 38.8551 41.9794 38.1668 41.9794C37.4785 41.9794 36.9205 42.5429 36.9205 43.238C36.9205 43.9331 37.4785 44.4965 38.1668 44.4965Z" fill="#C0FF58"/>
<path opacity="0.88" d="M24.1792 30.9864C24.8675 30.9864 25.4255 30.4229 25.4255 29.7278C25.4255 29.0327 24.8675 28.4692 24.1792 28.4692C23.4909 28.4692 22.933 29.0327 22.933 29.7278C22.933 30.4229 23.4909 30.9864 24.1792 30.9864Z" fill="#C0FF58"/>
<path opacity="0.88" d="M23.0231 34.2426C23.3728 34.2426 23.6563 33.9563 23.6563 33.6031C23.6563 33.2499 23.3728 32.9636 23.0231 32.9636C22.6734 32.9636 22.3899 33.2499 22.3899 33.6031C22.3899 33.9563 22.6734 34.2426 23.0231 34.2426Z" fill="#C0FF58"/>
<path opacity="0.88" d="M25.3565 34.8593C25.7062 34.8593 25.9897 34.573 25.9897 34.2198C25.9897 33.8666 25.7062 33.5803 25.3565 33.5803C25.0068 33.5803 24.7233 33.8666 24.7233 34.2198C24.7233 34.573 25.0068 34.8593 25.3565 34.8593Z" fill="#C0FF58"/>
<path opacity="0.88" d="M20.3278 37.8024C20.6775 37.8024 20.961 37.5161 20.961 37.1629C20.961 36.8097 20.6775 36.5234 20.3278 36.5234C19.9781 36.5234 19.6946 36.8097 19.6946 37.1629C19.6946 37.5161 19.9781 37.8024 20.3278 37.8024Z" fill="#C0FF58"/>
<path opacity="0.88" d="M28.99 24.1471C29.3397 24.1471 29.6232 23.8608 29.6232 23.5076C29.6232 23.1545 29.3397 22.8682 28.99 22.8682C28.6403 22.8682 28.3568 23.1545 28.3568 23.5076C28.3568 23.8608 28.6403 24.1471 28.99 24.1471Z" fill="#C0FF58"/>
<path opacity="0.88" d="M14.892 30.8692C15.2417 30.8692 15.5252 30.5829 15.5252 30.2297C15.5252 29.8765 15.2417 29.5902 14.892 29.5902C14.5423 29.5902 14.2588 29.8765 14.2588 30.2297C14.2588 30.5829 14.5423 30.8692 14.892 30.8692Z" fill="#C0FF58"/>
<path opacity="0.88" d="M19.4093 29.0778C19.759 29.0778 20.0425 28.7915 20.0425 28.4383C20.0425 28.0851 19.759 27.7988 19.4093 27.7988C19.0596 27.7988 18.7761 28.0851 18.7761 28.4383C18.7761 28.7915 19.0596 29.0778 19.4093 29.0778Z" fill="#C0FF58"/>
<path opacity="0.88" d="M47.4062 40.2147C47.7559 40.2147 48.0394 39.9284 48.0394 39.5753C48.0394 39.2221 47.7559 38.9358 47.4062 38.9358C47.0564 38.9358 46.7729 39.2221 46.7729 39.5753C46.7729 39.9284 47.0564 40.2147 47.4062 40.2147Z" fill="#C0FF58"/>
<path opacity="0.88" d="M42.2448 41.1084C42.5945 41.1084 42.878 40.8221 42.878 40.4689C42.878 40.1158 42.5945 39.8295 42.2448 39.8295C41.8951 39.8295 41.6116 40.1158 41.6116 40.4689C41.6116 40.8221 41.8951 41.1084 42.2448 41.1084Z" fill="#C0FF58"/>
<path opacity="0.88" d="M45.6225 43.1698C45.8379 43.1698 46.0124 42.9935 46.0124 42.7761C46.0124 42.5586 45.8379 42.3823 45.6225 42.3823C45.4072 42.3823 45.2327 42.5586 45.2327 42.7761C45.2327 42.9935 45.4072 43.1698 45.6225 43.1698Z" fill="#C0FF58"/>
<path opacity="0.88" d="M46.4335 47.9966C46.6488 47.9966 46.8233 47.8203 46.8233 47.6028C46.8233 47.3854 46.6488 47.2091 46.4335 47.2091C46.2181 47.2091 46.0436 47.3854 46.0436 47.6028C46.0436 47.8203 46.2181 47.9966 46.4335 47.9966Z" fill="#C0FF58"/>
<path opacity="0.88" d="M36.1194 51.8575C36.3347 51.8575 36.5092 51.6813 36.5092 51.4638C36.5092 51.2463 36.3347 51.0701 36.1194 51.0701C35.904 51.0701 35.7295 51.2463 35.7295 51.4638C35.7295 51.6813 35.904 51.8575 36.1194 51.8575Z" fill="#C0FF58"/>
<path opacity="0.88" d="M25.2825 49.5981C25.4978 49.5981 25.6723 49.4219 25.6723 49.2044C25.6723 48.9869 25.4978 48.8107 25.2825 48.8107C25.0671 48.8107 24.8926 48.9869 24.8926 49.2044C24.8926 49.4219 25.0671 49.5981 25.2825 49.5981Z" fill="#C0FF58"/>
<path opacity="0.88" d="M39.0195 46.858C39.2348 46.858 39.4094 46.6818 39.4094 46.4643C39.4094 46.2468 39.2348 46.0706 39.0195 46.0706C38.8042 46.0706 38.6296 46.2468 38.6296 46.4643C38.6296 46.6818 38.8042 46.858 39.0195 46.858Z" fill="#C0FF58"/>
<path opacity="0.88" d="M35.2193 46.9091C35.4347 46.9091 35.6092 46.7328 35.6092 46.5153C35.6092 46.2979 35.4347 46.1216 35.2193 46.1216C35.004 46.1216 34.8295 46.2979 34.8295 46.5153C34.8295 46.7328 35.004 46.9091 35.2193 46.9091Z" fill="#C0FF58"/>
<path opacity="0.88" d="M34.2035 42.0314C34.4188 42.0314 34.5934 41.8551 34.5934 41.6376C34.5934 41.4202 34.4188 41.2439 34.2035 41.2439C33.9882 41.2439 33.8136 41.4202 33.8136 41.6376C33.8136 41.8551 33.9882 42.0314 34.2035 42.0314Z" fill="#C0FF58"/>
<path opacity="0.88" d="M36.3985 39.9528C36.6139 39.9528 36.7884 39.7765 36.7884 39.559C36.7884 39.3416 36.6139 39.1653 36.3985 39.1653C36.1832 39.1653 36.0087 39.3416 36.0087 39.559C36.0087 39.7765 36.1832 39.9528 36.3985 39.9528Z" fill="#C0FF58"/>
<path opacity="0.88" d="M44.7905 36.2115C45.0058 36.2115 45.1804 36.0353 45.1804 35.8178C45.1804 35.6004 45.0058 35.4241 44.7905 35.4241C44.5752 35.4241 44.4006 35.6004 44.4006 35.8178C44.4006 36.0353 44.5752 36.2115 44.7905 36.2115Z" fill="#C0FF58"/>
<path opacity="0.88" d="M52.2421 41.1449C52.4574 41.1449 52.6319 40.9686 52.6319 40.7512C52.6319 40.5337 52.4574 40.3574 52.2421 40.3574C52.0267 40.3574 51.8522 40.5337 51.8522 40.7512C51.8522 40.9686 52.0267 41.1449 52.2421 41.1449Z" fill="#C0FF58"/>
<path opacity="0.88" d="M43.5368 33.105C43.7522 33.105 43.9267 32.9287 43.9267 32.7112C43.9267 32.4938 43.7522 32.3175 43.5368 32.3175C43.3215 32.3175 43.147 32.4938 43.147 32.7112C43.147 32.9287 43.3215 33.105 43.5368 33.105Z" fill="#C0FF58"/>
<path opacity="0.88" d="M42.7776 27.2186C42.9929 27.2186 43.1675 27.0423 43.1675 26.8249C43.1675 26.6074 42.9929 26.4312 42.7776 26.4312C42.5623 26.4312 42.3877 26.6074 42.3877 26.8249C42.3877 27.0423 42.5623 27.2186 42.7776 27.2186Z" fill="#C0FF58"/>
<path opacity="0.88" d="M52.3006 22.3021C52.516 22.3021 52.6905 22.1258 52.6905 21.9084C52.6905 21.6909 52.516 21.5146 52.3006 21.5146C52.0853 21.5146 51.9108 21.6909 51.9108 21.9084C51.9108 22.1258 52.0853 22.3021 52.3006 22.3021Z" fill="#C0FF58"/>
<path opacity="0.88" d="M54.5665 32.9907C54.7818 32.9907 54.9564 32.8144 54.9564 32.597C54.9564 32.3795 54.7818 32.2032 54.5665 32.2032C54.3512 32.2032 54.1766 32.3795 54.1766 32.597C54.1766 32.8144 54.3512 32.9907 54.5665 32.9907Z" fill="#C0FF58"/>
<path opacity="0.88" d="M46.4479 21.9838C46.6632 21.9838 46.8377 21.8075 46.8377 21.59C46.8377 21.3726 46.6632 21.1963 46.4479 21.1963C46.2325 21.1963 46.058 21.3726 46.058 21.59C46.058 21.8075 46.2325 21.9838 46.4479 21.9838Z" fill="#C0FF58"/>
<path opacity="0.88" d="M48.0809 21.8685C48.2962 21.8685 48.4708 21.6923 48.4708 21.4748C48.4708 21.2573 48.2962 21.0811 48.0809 21.0811C47.8656 21.0811 47.691 21.2573 47.691 21.4748C47.691 21.6923 47.8656 21.8685 48.0809 21.8685Z" fill="#C0FF58"/>
<path opacity="0.88" d="M50.6374 19.6838C50.8528 19.6838 51.0273 19.5076 51.0273 19.2901C51.0273 19.0726 50.8528 18.8964 50.6374 18.8964C50.4221 18.8964 50.2476 19.0726 50.2476 19.2901C50.2476 19.5076 50.4221 19.6838 50.6374 19.6838Z" fill="#C0FF58"/>
<path opacity="0.88" d="M27.2993 25.2296C27.5146 25.2296 27.6892 25.0533 27.6892 24.8359C27.6892 24.6184 27.5146 24.4421 27.2993 24.4421C27.084 24.4421 26.9094 24.6184 26.9094 24.8359C26.9094 25.0533 27.084 25.2296 27.2993 25.2296Z" fill="#C0FF58"/>
<path opacity="0.88" d="M25.6911 28.0267C25.9065 28.0267 26.081 27.8505 26.081 27.633C26.081 27.4155 25.9065 27.2393 25.6911 27.2393C25.4758 27.2393 25.3013 27.4155 25.3013 27.633C25.3013 27.8505 25.4758 28.0267 25.6911 28.0267Z" fill="#C0FF58"/>
<path opacity="0.88" d="M16.8143 35.0695C17.0296 35.0695 17.2042 34.8932 17.2042 34.6757C17.2042 34.4583 17.0296 34.282 16.8143 34.282C16.599 34.282 16.4244 34.4583 16.4244 34.6757C16.4244 34.8932 16.599 35.0695 16.8143 35.0695Z" fill="#C0FF58"/>
<path opacity="0.88" d="M15.5001 37.6248C15.7154 37.6248 15.89 37.4485 15.89 37.231C15.89 37.0136 15.7154 36.8373 15.5001 36.8373C15.2848 36.8373 15.1102 37.0136 15.1102 37.231C15.1102 37.4485 15.2848 37.6248 15.5001 37.6248Z" fill="#C0FF58"/>
<path opacity="0.88" d="M34.3435 11.5375C34.5588 11.5375 34.7334 11.3612 34.7334 11.1437C34.7334 10.9263 34.5588 10.75 34.3435 10.75C34.1282 10.75 33.9536 10.9263 33.9536 11.1437C33.9536 11.3612 34.1282 11.5375 34.3435 11.5375Z" fill="#C0FF58"/>
<path opacity="0.88" d="M42.5594 15.2427C42.7748 15.2427 42.9493 15.0664 42.9493 14.8489C42.9493 14.6315 42.7748 14.4552 42.5594 14.4552C42.3441 14.4552 42.1696 14.6315 42.1696 14.8489C42.1696 15.0664 42.3441 15.2427 42.5594 15.2427Z" fill="#C0FF58"/>
<path opacity="0.88" d="M27.1526 43.3436C27.3679 43.3436 27.5425 43.1673 27.5425 42.9499C27.5425 42.7324 27.3679 42.5562 27.1526 42.5562C26.9372 42.5562 26.7627 42.7324 26.7627 42.9499C26.7627 43.1673 26.9372 43.3436 27.1526 43.3436Z" fill="#C0FF58"/>
<path opacity="0.88" d="M28.3332 40.5503C28.5486 40.5503 28.7231 40.374 28.7231 40.1566C28.7231 39.9391 28.5486 39.7628 28.3332 39.7628C28.1179 39.7628 27.9434 39.9391 27.9434 40.1566C27.9434 40.374 28.1179 40.5503 28.3332 40.5503Z" fill="#C0FF58"/>
<path opacity="0.88" d="M23.6536 43.4394C24.3419 43.4394 24.8998 42.8759 24.8998 42.1808C24.8998 41.4857 24.3419 40.9222 23.6536 40.9222C22.9653 40.9222 22.4073 41.4857 22.4073 42.1808C22.4073 42.8759 22.9653 43.4394 23.6536 43.4394Z" fill="#C0FF58"/>
<path opacity="0.88" d="M42.175 37.7821C42.8632 37.7821 43.4212 37.2186 43.4212 36.5235C43.4212 35.8284 42.8632 35.2649 42.175 35.2649C41.4867 35.2649 40.9287 35.8284 40.9287 36.5235C40.9287 37.2186 41.4867 37.7821 42.175 37.7821Z" fill="#C0FF58"/>
<path opacity="0.88" d="M51.453 26.4468C51.8027 26.4468 52.0862 26.1605 52.0862 25.8073C52.0862 25.4542 51.8027 25.1678 51.453 25.1678C51.1033 25.1678 50.8198 25.4542 50.8198 25.8073C50.8198 26.1605 51.1033 26.4468 51.453 26.4468Z" fill="#C0FF58"/>
<path opacity="0.88" d="M20.3459 22.555C20.6956 22.555 20.9791 22.2687 20.9791 21.9155C20.9791 21.5623 20.6956 21.276 20.3459 21.276C19.9961 21.276 19.7126 21.5623 19.7126 21.9155C19.7126 22.2687 19.9961 22.555 20.3459 22.555Z" fill="#C0FF58"/>
<path opacity="0.88" d="M44.6333 30.4268C44.9515 30.4268 45.2095 30.1663 45.2095 29.845C45.2095 29.5236 44.9515 29.2631 44.6333 29.2631C44.3151 29.2631 44.0571 29.5236 44.0571 29.845C44.0571 30.1663 44.3151 30.4268 44.6333 30.4268Z" fill="#C0FF58"/>
<path opacity="0.88" d="M18.9047 41.5183C19.2229 41.5183 19.4809 41.2578 19.4809 40.9364C19.4809 40.615 19.2229 40.3545 18.9047 40.3545C18.5865 40.3545 18.3285 40.615 18.3285 40.9364C18.3285 41.2578 18.5865 41.5183 18.9047 41.5183Z" fill="#C0FF58"/>
<path opacity="0.88" d="M32.5459 48.988C32.8641 48.988 33.1221 48.7275 33.1221 48.4061C33.1221 48.0847 32.8641 47.8242 32.5459 47.8242C32.2277 47.8242 31.9697 48.0847 31.9697 48.4061C31.9697 48.7275 32.2277 48.988 32.5459 48.988Z" fill="#C0FF58"/>
<path opacity="0.88" d="M43.0188 46.6216C43.337 46.6216 43.595 46.361 43.595 46.0397C43.595 45.7183 43.337 45.4578 43.0188 45.4578C42.7006 45.4578 42.4426 45.7183 42.4426 46.0397C42.4426 46.361 42.7006 46.6216 43.0188 46.6216Z" fill="#C0FF58"/>
<path opacity="0.88" d="M33.5418 45.3576C33.86 45.3576 34.118 45.0971 34.118 44.7757C34.118 44.4544 33.86 44.1938 33.5418 44.1938C33.2235 44.1938 32.9656 44.4544 32.9656 44.7757C32.9656 45.0971 33.2235 45.3576 33.5418 45.3576Z" fill="#C0FF58"/>
<path opacity="0.88" d="M41.8996 12.8098C42.115 12.8098 42.2895 12.6335 42.2895 12.4161C42.2895 12.1986 42.115 12.0223 41.8996 12.0223C41.6843 12.0223 41.5098 12.1986 41.5098 12.4161C41.5098 12.6335 41.6843 12.8098 41.8996 12.8098Z" fill="#C0FF58"/>
<path opacity="0.88" d="M45.4673 14.7634C45.6826 14.7634 45.8572 14.5871 45.8572 14.3697C45.8572 14.1522 45.6826 13.976 45.4673 13.976C45.2519 13.976 45.0774 14.1522 45.0774 14.3697C45.0774 14.5871 45.2519 14.7634 45.4673 14.7634Z" fill="#C0FF58"/>
<path d="M39.3098 18.5016L27.8236 32.8865L33.0965 32.9243L29.0764 44.3959L40.8429 29.4789L35.4646 29.4987L39.3098 18.5016Z" fill="#C0FF58"/>
</g>
<path d="M84.0839 20.776C84.1798 21.256 84.2277 21.72 84.2277 22.168C84.2277 22.584 84.1798 23.032 84.0839 23.512L77.9973 23.464V39.592C77.9973 40.936 78.6203 41.608 79.8664 41.608H83.5088C83.7324 42.152 83.8443 42.696 83.8443 43.24C83.8443 43.784 83.8123 44.12 83.7484 44.248C82.2787 44.44 80.761 44.536 79.1954 44.536C76.0962 44.536 74.5466 43.208 74.5466 40.552V23.464L71.1438 23.512C71.0479 23.032 71 22.584 71 22.168C71 21.72 71.0479 21.256 71.1438 20.776L74.5466 20.824V15.784C74.5466 14.92 74.6744 14.312 74.93 13.96C75.1856 13.576 75.6808 13.384 76.4157 13.384H77.7097L77.9973 13.672V20.872L84.0839 20.776Z" fill="white"/>
<path d="M107.275 21.016L100.709 43.528C99.495 47.656 98.201 50.568 96.8271 52.264C95.4532 53.96 93.3924 54.808 90.6446 54.808C89.2387 54.808 87.9447 54.6 86.7625 54.184C86.6667 53.288 86.9223 52.424 87.5294 51.592C88.5198 51.944 89.5742 52.12 90.6925 52.12C92.3859 52.12 93.6799 51.544 94.5745 50.392C95.4692 49.24 96.2839 47.448 97.0188 45.016L97.1626 44.536C96.3318 44.472 95.6928 44.28 95.2455 43.96C94.8301 43.64 94.4787 43.048 94.1911 42.184L87.4814 21.064C88.4719 20.648 89.1748 20.44 89.5902 20.44C90.5168 20.44 91.1398 21 91.4593 22.12L95.2455 34.168C95.3733 34.552 96.1082 37.048 97.4501 41.656C97.514 41.88 97.6738 41.992 97.9294 41.992L103.776 20.776C104.192 20.648 104.735 20.584 105.406 20.584C106.109 20.584 106.7 20.68 107.179 20.872L107.275 21.016Z" fill="white"/>
<path d="M116.484 42.76V52.264C116.484 53.128 116.356 53.736 116.101 54.088C115.845 54.472 115.334 54.664 114.567 54.664H113.273L112.985 54.376V20.92L113.273 20.632H114.519C115.286 20.632 115.797 20.84 116.053 21.256C116.34 21.64 116.484 22.28 116.484 23.176V23.416C118.401 21.272 120.686 20.2 123.337 20.2C126.053 20.2 128.098 21.304 129.472 23.512C130.846 25.688 131.533 28.712 131.533 32.584C131.533 34.472 131.277 36.168 130.766 37.672C130.287 39.176 129.632 40.456 128.801 41.512C128.002 42.536 127.076 43.336 126.021 43.912C124.967 44.456 123.881 44.728 122.762 44.728C120.558 44.728 118.465 44.072 116.484 42.76ZM116.484 27.16V39.496C118.433 40.936 120.27 41.656 121.996 41.656C123.721 41.656 125.143 40.888 126.261 39.352C127.379 37.816 127.938 35.496 127.938 32.392C127.938 30.856 127.795 29.528 127.507 28.408C127.251 27.256 126.9 26.312 126.453 25.576C126.005 24.808 125.478 24.248 124.871 23.896C124.296 23.512 123.673 23.32 123.002 23.32C121.724 23.32 120.51 23.656 119.36 24.328C118.209 25 117.251 25.944 116.484 27.16Z" fill="white"/>
<path d="M155.801 33.64H140.944C141.104 39.08 143.165 41.8 147.127 41.8C149.299 41.8 151.616 41.128 154.076 39.784C154.779 40.424 155.21 41.24 155.37 42.232C152.75 44.024 149.81 44.92 146.551 44.92C144.89 44.92 143.468 44.616 142.286 44.008C141.104 43.368 140.129 42.504 139.362 41.416C138.628 40.296 138.084 38.984 137.733 37.48C137.382 35.976 137.206 34.328 137.206 32.536C137.206 30.712 137.413 29.048 137.829 27.544C138.276 26.04 138.915 24.744 139.746 23.656C140.577 22.568 141.567 21.72 142.717 21.112C143.9 20.504 145.241 20.2 146.743 20.2C148.213 20.2 149.523 20.472 150.673 21.016C151.855 21.528 152.83 22.248 153.597 23.176C154.395 24.072 155.002 25.16 155.418 26.44C155.833 27.688 156.041 29.032 156.041 30.472C156.041 31.048 156.009 31.608 155.945 32.152C155.913 32.664 155.865 33.16 155.801 33.64ZM140.944 30.904H152.446V30.28C152.446 28.072 151.983 26.296 151.057 24.952C150.13 23.608 148.74 22.936 146.887 22.936C145.066 22.936 143.644 23.656 142.621 25.096C141.631 26.536 141.072 28.472 140.944 30.904Z" fill="white"/>
<path d="M160.734 42.664C160.766 41.96 160.958 41.192 161.309 40.36C161.693 39.496 162.124 38.824 162.603 38.344C165.128 39.72 167.348 40.408 169.265 40.408C170.32 40.408 171.166 40.2 171.805 39.784C172.476 39.368 172.812 38.808 172.812 38.104C172.812 36.984 171.949 36.088 170.224 35.416L167.54 34.408C163.514 32.936 161.501 30.584 161.501 27.352C161.501 26.2 161.709 25.176 162.124 24.28C162.571 23.352 163.179 22.568 163.945 21.928C164.744 21.256 165.687 20.744 166.773 20.392C167.859 20.04 169.073 19.864 170.415 19.864C171.022 19.864 171.693 19.912 172.428 20.008C173.195 20.104 173.962 20.248 174.729 20.44C175.496 20.6 176.23 20.792 176.933 21.016C177.636 21.24 178.243 21.48 178.755 21.736C178.755 22.536 178.595 23.368 178.275 24.232C177.956 25.096 177.525 25.736 176.981 26.152C174.457 25.032 172.269 24.472 170.415 24.472C169.585 24.472 168.93 24.68 168.45 25.096C167.971 25.48 167.732 25.992 167.732 26.632C167.732 27.624 168.53 28.408 170.128 28.984L173.051 30.04C175.16 30.776 176.726 31.784 177.748 33.064C178.771 34.344 179.282 35.832 179.282 37.528C179.282 39.8 178.435 41.624 176.742 43C175.048 44.344 172.62 45.016 169.457 45.016C166.358 45.016 163.45 44.232 160.734 42.664Z" fill="white"/>
<path d="M202.738 34.456H189.511C189.607 36.216 190.006 37.608 190.709 38.632C191.444 39.624 192.706 40.12 194.495 40.12C196.348 40.12 198.473 39.576 200.869 38.488C201.796 39.448 202.387 40.712 202.643 42.28C200.086 44.104 197.019 45.016 193.441 45.016C190.054 45.016 187.482 43.976 185.725 41.896C183.999 39.784 183.137 36.664 183.137 32.536C183.137 30.616 183.36 28.888 183.807 27.352C184.255 25.784 184.91 24.456 185.772 23.368C186.635 22.248 187.69 21.384 188.936 20.776C190.182 20.168 191.603 19.864 193.201 19.864C194.831 19.864 196.268 20.12 197.514 20.632C198.761 21.112 199.815 21.816 200.678 22.744C201.54 23.64 202.179 24.712 202.595 25.96C203.042 27.208 203.266 28.568 203.266 30.04C203.266 30.84 203.218 31.608 203.122 32.344C203.026 33.048 202.898 33.752 202.738 34.456ZM193.489 24.376C190.996 24.376 189.654 26.264 189.463 30.04H197.419V29.464C197.419 27.928 197.099 26.696 196.46 25.768C195.821 24.84 194.831 24.376 193.489 24.376Z" fill="white"/>
<path d="M229.004 28.312V38.776C229.004 40.824 229.34 42.344 230.011 43.336C228.988 44.232 227.758 44.68 226.32 44.68C224.947 44.68 224.004 44.376 223.493 43.768C222.982 43.128 222.726 42.136 222.726 40.792V29.608C222.726 28.168 222.55 27.16 222.199 26.584C221.847 26.008 221.192 25.72 220.234 25.72C218.54 25.72 216.959 26.488 215.489 28.024V44.344C215.01 44.44 214.499 44.504 213.955 44.536C213.444 44.568 212.917 44.584 212.374 44.584C211.831 44.584 211.288 44.568 210.744 44.536C210.233 44.504 209.738 44.44 209.259 44.344V20.584L209.546 20.248H211.943C213.732 20.248 214.85 21.208 215.297 23.128C217.63 21.112 219.946 20.104 222.247 20.104C224.547 20.104 226.241 20.856 227.327 22.36C228.445 23.832 229.004 25.816 229.004 28.312Z" fill="white"/>
<path d="M234.032 42.664C234.064 41.96 234.255 41.192 234.607 40.36C234.99 39.496 235.422 38.824 235.901 38.344C238.425 39.72 240.646 40.408 242.563 40.408C243.617 40.408 244.464 40.2 245.103 39.784C245.774 39.368 246.109 38.808 246.109 38.104C246.109 36.984 245.246 36.088 243.521 35.416L240.837 34.408C236.811 32.936 234.799 30.584 234.799 27.352C234.799 26.2 235.006 25.176 235.422 24.28C235.869 23.352 236.476 22.568 237.243 21.928C238.042 21.256 238.984 20.744 240.07 20.392C241.157 20.04 242.371 19.864 243.713 19.864C244.32 19.864 244.991 19.912 245.726 20.008C246.493 20.104 247.259 20.248 248.026 20.44C248.793 20.6 249.528 20.792 250.231 21.016C250.934 21.24 251.541 21.48 252.052 21.736C252.052 22.536 251.892 23.368 251.573 24.232C251.253 25.096 250.822 25.736 250.279 26.152C247.755 25.032 245.566 24.472 243.713 24.472C242.882 24.472 242.227 24.68 241.748 25.096C241.269 25.48 241.029 25.992 241.029 26.632C241.029 27.624 241.828 28.408 243.425 28.984L246.349 30.04C248.458 30.776 250.023 31.784 251.046 33.064C252.068 34.344 252.579 35.832 252.579 37.528C252.579 39.8 251.733 41.624 250.039 43C248.346 44.344 245.917 45.016 242.754 45.016C239.655 45.016 236.748 44.232 234.032 42.664Z" fill="white"/>
<path d="M276.036 34.456H262.808C262.904 36.216 263.303 37.608 264.006 38.632C264.741 39.624 266.003 40.12 267.792 40.12C269.646 40.12 271.77 39.576 274.167 38.488C275.093 39.448 275.684 40.712 275.94 42.28C273.384 44.104 270.317 45.016 266.738 45.016C263.351 45.016 260.779 43.976 259.022 41.896C257.297 39.784 256.434 36.664 256.434 32.536C256.434 30.616 256.658 28.888 257.105 27.352C257.552 25.784 258.207 24.456 259.07 23.368C259.933 22.248 260.987 21.384 262.233 20.776C263.479 20.168 264.901 19.864 266.498 19.864C268.128 19.864 269.566 20.12 270.812 20.632C272.058 21.112 273.112 21.816 273.975 22.744C274.838 23.64 275.477 24.712 275.892 25.96C276.339 27.208 276.563 28.568 276.563 30.04C276.563 30.84 276.515 31.608 276.419 32.344C276.323 33.048 276.196 33.752 276.036 34.456ZM266.786 24.376C264.294 24.376 262.952 26.264 262.76 30.04H270.716V29.464C270.716 27.928 270.396 26.696 269.757 25.768C269.118 24.84 268.128 24.376 266.786 24.376Z" fill="white"/>
<path d="M283.467 51.064V7.144C283.946 7.048 284.489 7 285.096 7C285.735 7 286.326 7.048 286.869 7.144V51.064C286.326 51.16 285.735 51.208 285.096 51.208C284.489 51.208 283.946 51.16 283.467 51.064Z" fill="white"/>
<defs>
<clipPath id="clip0_3735_8655">
<rect width="41" height="42" fill="white" transform="translate(14 10)"/>
</clipPath>
</defs>
</svg>
