<svg width="326" height="62" viewBox="0 0 326 62" fill="none" xmlns="http://www.w3.org/2000/svg">
<path opacity="0.88" d="M43.603 47.3024L42.8424 50.2598" stroke="#C0FF58" stroke-width="0.12"/>
<path opacity="0.88" d="M50.2426 48.9349L47.0571 54.1865" stroke="#C0FF58" stroke-width="0.12"/>
<path opacity="0.88" d="M48.4123 46.0291L46.1604 48.4387" stroke="#C0FF58" stroke-width="0.12"/>
<path opacity="0.88" d="M49.5946 46.3236L50.1416 48.2918" stroke="#C0FF58" stroke-width="0.12"/>
<path opacity="0.88" d="M44.4974 46.4905L48.0078 45.5148" stroke="#C0FF58" stroke-width="0.12"/>
<path opacity="0.88" d="M45.1371 43.207L47.8916 44.4017" stroke="#C0FF58" stroke-width="0.12"/>
<path opacity="0.88" d="M47.3699 41.0277L48.6234 43.6299" stroke="#C0FF58" stroke-width="0.12"/>
<path opacity="0.88" d="M53.2703 38.3396L50.1807 43.7138" stroke="#C0FF58" stroke-width="0.12"/>
<path opacity="0.88" d="M31.5689 29.623L26.8391 31.4598" stroke="#C0FF58" stroke-width="0.12"/>
<path opacity="0.88" d="M31.3966 24.6028L24.1138 22.5809" stroke="#C0FF58" stroke-width="0.12"/>
<path opacity="0.88" d="M31.7331 23.8495L28.7751 20.5811" stroke="#C0FF58" stroke-width="0.12"/>
<path opacity="0.88" d="M38.0214 21.5027L35.0986 20.2406" stroke="#C0FF58" stroke-width="0.12"/>
<path opacity="0.88" d="M38.1014 22.2158L36.8546 23.1007" stroke="#C0FF58" stroke-width="0.12"/>
<path opacity="0.88" d="M34.5136 14.8781L31.8279 13.6532" stroke="#C0FF58" stroke-width="0.12"/>
<path opacity="0.88" d="M34.8861 15.994L28.8997 19.6114" stroke="#C0FF58" stroke-width="0.12"/>
<path opacity="0.88" d="M40.2461 13.8615L37.3024 14.8523" stroke="#C0FF58" stroke-width="0.12"/>
<path opacity="0.88" d="M36.4438 9.78455L35.9943 13.7688" stroke="#C0FF58" stroke-width="0.12"/>
<path opacity="0.88" d="M44.4922 7.63464L40.6819 11.0259" stroke="#C0FF58" stroke-width="0.12"/>
<path opacity="0.88" d="M41.9669 18.2827L39.0969 21.335" stroke="#C0FF58" stroke-width="0.12"/>
<path opacity="0.88" d="M42.2641 16.9401L41.0476 14.2576" stroke="#C0FF58" stroke-width="0.12"/>
<path opacity="0.88" d="M32.5141 30.4579L31.6516 32.9394" stroke="#C0FF58" stroke-width="0.12"/>
<path opacity="0.88" d="M27.1032 28.3297L26.1371 30.9158" stroke="#C0FF58" stroke-width="0.12"/>
<path opacity="0.88" d="M25.0219 31.4736L22.5583 30.1371" stroke="#C0FF58" stroke-width="0.12"/>
<path opacity="0.88" d="M34.5257 26.8197L33.739 28.0662" stroke="#C0FF58" stroke-width="0.12"/>
<path opacity="0.88" d="M25.4598 32.775L24.5801 34.4898" stroke="#C0FF58" stroke-width="0.12"/>
<path opacity="0.88" d="M33.7321 34.5785L29.0168 37.3758" stroke="#C0FF58" stroke-width="0.12"/>
<path opacity="0.88" d="M26.3021 41.781L22.9802 38.2297" stroke="#C0FF58" stroke-width="0.12"/>
<path opacity="0.88" d="M37.3603 41.3998L33.5315 42.9101" stroke="#C0FF58" stroke-width="0.12"/>
<path opacity="0.88" d="M33.5653 39.5944L32.6013 42.2781" stroke="#C0FF58" stroke-width="0.12"/>
<path opacity="0.88" d="M36.0041 44.4484L33.6545 43.9476" stroke="#C0FF58" stroke-width="0.12"/>
<path opacity="0.88" d="M30.8962 43.395L27.3459 42.5179" stroke="#C0FF58" stroke-width="0.12"/>
<path opacity="0.88" d="M31.1257 44.5128L29.0139 45.7098" stroke="#C0FF58" stroke-width="0.12"/>
<path opacity="0.88" d="M32.8774 44.994L34.1939 51.5245" stroke="#C0FF58" stroke-width="0.12"/>
<path opacity="0.88" d="M55.2589 37.6326L59.4724 40.2985" stroke="#C0FF58" stroke-width="0.12"/>
<path opacity="0.88" d="M55.9778 32.7476L57.4236 33.0713" stroke="#C0FF58" stroke-width="0.12"/>
<path opacity="0.88" d="M57.5098 29.2468L62.4693 28.9882" stroke="#C0FF58" stroke-width="0.12"/>
<path opacity="0.88" d="M58.2107 24.3954L57.0662 28.6669" stroke="#C0FF58" stroke-width="0.12"/>
<path opacity="0.88" d="M59.2114 24.1801L62.8244 28.2574" stroke="#C0FF58" stroke-width="0.12"/>
<path opacity="0.88" d="M59.6222 23.3925L64.1585 24.3246" stroke="#C0FF58" stroke-width="0.12"/>
<path opacity="0.88" d="M65.3274 24.7726L68.4412 31.9922" stroke="#C0FF58" stroke-width="0.12"/>
<path opacity="0.88" d="M59.384 22.767L65.5257 20.14" stroke="#C0FF58" stroke-width="0.12"/>
<path opacity="0.88" d="M58.7111 22.3213L58.9632 20.0077" stroke="#C0FF58" stroke-width="0.12"/>
<path opacity="0.88" d="M60.7978 18.9824L60.4597 17.6857" stroke="#C0FF58" stroke-width="0.12"/>
<path opacity="0.88" d="M63.6481 17.2247L61.3186 19.373" stroke="#C0FF58" stroke-width="0.12"/>
<path opacity="0.88" d="M52.8196 21.6002L57.6637 22.8559" stroke="#C0FF58" stroke-width="0.12"/>
<path opacity="0.88" d="M54.9147 25.4277L57.6663 23.8988" stroke="#C0FF58" stroke-width="0.12"/>
<path opacity="0.88" d="M54.9777 17.3009L58.0264 22.4784" stroke="#C0FF58" stroke-width="0.12"/>
<path opacity="0.88" d="M53.9577 17.3181L52.2745 20.1788" stroke="#C0FF58" stroke-width="0.12"/>
<path opacity="0.88" d="M57.683 11.5106L55.0505 15.5" stroke="#C0FF58" stroke-width="0.12"/>
<path opacity="0.88" d="M57.4285 11.229L54.8816 11.589" stroke="#C0FF58" stroke-width="0.12"/>
<path opacity="0.88" d="M54.2926 11.2608L53.7629 9.21033" stroke="#C0FF58" stroke-width="0.12"/>
<path opacity="0.88" d="M58.6389 33.4818L60.7664 34.4306" stroke="#C0FF58" stroke-width="0.12"/>
<path opacity="0.88" d="M57.4921 36.1155L60.854 35.1608" stroke="#C0FF58" stroke-width="0.12"/>
<path opacity="0.88" d="M60.3926 39.9833L61.8774 36.1217" stroke="#C0FF58" stroke-width="0.12"/>
<path opacity="0.88" d="M60.8132 40.7117L65.3275 41.8704" stroke="#C0FF58" stroke-width="0.12"/>
<path opacity="0.88" d="M53.436 42.0878L50.6124 44.2601" stroke="#C0FF58" stroke-width="0.12"/>
<path opacity="0.88" d="M57.5717 44.3959L50.7668 44.9566" stroke="#C0FF58" stroke-width="0.12"/>
<path opacity="0.88" d="M58.5702 49.798L55.566 48.4613" stroke="#C0FF58" stroke-width="0.12"/>
<path opacity="0.88" d="M58.5556 24.483C59.1576 24.483 59.6456 23.9904 59.6456 23.3828C59.6456 22.7752 59.1576 22.2826 58.5556 22.2826C57.9536 22.2826 57.4656 22.7752 57.4656 23.3828C57.4656 23.9904 57.9536 24.483 58.5556 24.483Z" fill="#C0FF58"/>
<path opacity="0.88" d="M51.9057 22.2382C52.5077 22.2382 52.9957 21.7456 52.9957 21.138C52.9957 20.5304 52.5077 20.0378 51.9057 20.0378C51.3037 20.0378 50.8157 20.5304 50.8157 21.138C50.8157 21.7456 51.3037 22.2382 51.9057 22.2382Z" fill="#C0FF58"/>
<path opacity="0.88" d="M32.4435 25.6503C33.0455 25.6503 33.5336 25.1578 33.5336 24.5501C33.5336 23.9425 33.0455 23.45 32.4435 23.45C31.8415 23.45 31.3535 23.9425 31.3535 24.5501C31.3535 25.1578 31.8415 25.6503 32.4435 25.6503Z" fill="#C0FF58"/>
<path opacity="0.88" d="M25.8666 32.9896C26.4686 32.9896 26.9566 32.497 26.9566 31.8894C26.9566 31.2818 26.4686 30.7892 25.8666 30.7892C25.2646 30.7892 24.7766 31.2818 24.7766 31.8894C24.7766 32.497 25.2646 32.9896 25.8666 32.9896Z" fill="#C0FF58"/>
<path opacity="0.88" d="M63.5385 30.063C64.1405 30.063 64.6285 29.5705 64.6285 28.9629C64.6285 28.3552 64.1405 27.8627 63.5385 27.8627C62.9365 27.8627 62.4485 28.3552 62.4485 28.9629C62.4485 29.5705 62.9365 30.063 63.5385 30.063Z" fill="#C0FF58"/>
<path opacity="0.88" d="M54.4571 17.4955C55.0591 17.4955 55.5471 17.003 55.5471 16.3954C55.5471 15.7877 55.0591 15.2952 54.4571 15.2952C53.8551 15.2952 53.3671 15.7877 53.3671 16.3954C53.3671 17.003 53.8551 17.4955 54.4571 17.4955Z" fill="#C0FF58"/>
<path opacity="0.88" d="M42.7839 18.7729C43.3859 18.7729 43.8739 18.2803 43.8739 17.6727C43.8739 17.0651 43.3859 16.5725 42.7839 16.5725C42.1819 16.5725 41.6938 17.0651 41.6938 17.6727C41.6938 18.2803 42.1819 18.7729 42.7839 18.7729Z" fill="#C0FF58"/>
<path opacity="0.88" d="M28.1148 47.3698C28.7168 47.3698 29.2048 46.8772 29.2048 46.2696C29.2048 45.662 28.7168 45.1694 28.1148 45.1694C27.5128 45.1694 27.0248 45.662 27.0248 46.2696C27.0248 46.8772 27.5128 47.3698 28.1148 47.3698Z" fill="#C0FF58"/>
<path opacity="0.88" d="M33.9272 39.8006C34.5292 39.8006 35.0172 39.308 35.0172 38.7004C35.0172 38.0928 34.5292 37.6002 33.9272 37.6002C33.3252 37.6002 32.8372 38.0928 32.8372 38.7004C32.8372 39.308 33.3252 39.8006 33.9272 39.8006Z" fill="#C0FF58"/>
<path opacity="0.88" d="M30.8942 14.2708C31.5196 14.2708 32.0266 13.7591 32.0266 13.1278C32.0266 12.4965 31.5196 11.9847 30.8942 11.9847C30.2687 11.9847 29.7617 12.4965 29.7617 13.1278C29.7617 13.7591 30.2687 14.2708 30.8942 14.2708Z" fill="#C0FF58"/>
<path opacity="0.88" d="M44.8765 12.92C45.5019 12.92 46.0089 12.4082 46.0089 11.7769C46.0089 11.1457 45.5019 10.6339 44.8765 10.6339C44.251 10.6339 43.744 11.1457 43.744 11.7769C43.744 12.4082 44.251 12.92 44.8765 12.92Z" fill="#C0FF58"/>
<path opacity="0.88" d="M35.9585 16.6336C36.7643 16.6336 37.4175 15.9743 37.4175 15.161C37.4175 14.3477 36.7643 13.6884 35.9585 13.6884C35.1527 13.6884 34.4995 14.3477 34.4995 15.161C34.4995 15.9743 35.1527 16.6336 35.9585 16.6336Z" fill="#C0FF58"/>
<path opacity="0.88" d="M59.6861 18.0218C60.4919 18.0218 61.1451 17.3625 61.1451 16.5492C61.1451 15.7359 60.4919 15.0765 59.6861 15.0765C58.8803 15.0765 58.2271 15.7359 58.2271 16.5492C58.2271 17.3625 58.8803 18.0218 59.6861 18.0218Z" fill="#C0FF58"/>
<path opacity="0.88" d="M62.1985 36.1544C63.0043 36.1544 63.6575 35.495 63.6575 34.6817C63.6575 33.8684 63.0043 33.2091 62.1985 33.2091C61.3927 33.2091 60.7395 33.8684 60.7395 34.6817C60.7395 35.495 61.3927 36.1544 62.1985 36.1544Z" fill="#C0FF58"/>
<path opacity="0.88" d="M58.0552 33.8727C58.4277 33.8727 58.7297 33.5679 58.7297 33.1918C58.7297 32.8158 58.4277 32.511 58.0552 32.511C57.6826 32.511 57.3806 32.8158 57.3806 33.1918C57.3806 33.5679 57.6826 33.8727 58.0552 33.8727Z" fill="#C0FF58"/>
<path opacity="0.88" d="M40.8141 14.2896C41.1866 14.2896 41.4887 13.9847 41.4887 13.6087C41.4887 13.2327 41.1866 12.9279 40.8141 12.9279C40.4415 12.9279 40.1395 13.2327 40.1395 13.6087C40.1395 13.9847 40.4415 14.2896 40.8141 14.2896Z" fill="#C0FF58"/>
<path opacity="0.88" d="M34.5829 20.6929C34.9554 20.6929 35.2574 20.3881 35.2574 20.012C35.2574 19.636 34.9554 19.3312 34.5829 19.3312C34.2103 19.3312 33.9083 19.636 33.9083 20.012C33.9083 20.3881 34.2103 20.6929 34.5829 20.6929Z" fill="#C0FF58"/>
<path opacity="0.88" d="M23.541 23.0604C23.9136 23.0604 24.2156 22.7556 24.2156 22.3796C24.2156 22.0036 23.9136 21.6987 23.541 21.6987C23.1685 21.6987 22.8665 22.0036 22.8665 22.3796C22.8665 22.7556 23.1685 23.0604 23.541 23.0604Z" fill="#C0FF58"/>
<path opacity="0.88" d="M36.5411 9.89089C36.9137 9.89089 37.2157 9.58606 37.2157 9.21003C37.2157 8.834 36.9137 8.52917 36.5411 8.52917C36.1686 8.52917 35.8666 8.834 35.8666 9.21003C35.8666 9.58606 36.1686 9.89089 36.5411 9.89089Z" fill="#C0FF58"/>
<path opacity="0.88" d="M40.1963 12.1159C40.5688 12.1159 40.8709 11.811 40.8709 11.435C40.8709 11.059 40.5688 10.7542 40.1963 10.7542C39.8237 10.7542 39.5217 11.059 39.5217 11.435C39.5217 11.811 39.8237 12.1159 40.1963 12.1159Z" fill="#C0FF58"/>
<path opacity="0.88" d="M49.2928 46.3634C50.0986 46.3634 50.7518 45.704 50.7518 44.8907C50.7518 44.0774 50.0986 43.4181 49.2928 43.4181C48.487 43.4181 47.8337 44.0774 47.8337 44.8907C47.8337 45.704 48.487 46.3634 49.2928 46.3634Z" fill="#C0FF58"/>
<path opacity="0.88" d="M32.9171 30.5555C33.7229 30.5555 34.3762 29.8962 34.3762 29.0829C34.3762 28.2695 33.7229 27.6102 32.9171 27.6102C32.1114 27.6102 31.4581 28.2695 31.4581 29.0829C31.4581 29.8962 32.1114 30.5555 32.9171 30.5555Z" fill="#C0FF58"/>
<path opacity="0.88" d="M31.5637 34.3655C31.9731 34.3655 32.305 34.0305 32.305 33.6173C32.305 33.204 31.9731 32.869 31.5637 32.869C31.1543 32.869 30.8224 33.204 30.8224 33.6173C30.8224 34.0305 31.1543 34.3655 31.5637 34.3655Z" fill="#C0FF58"/>
<path opacity="0.88" d="M34.2953 35.087C34.7047 35.087 35.0366 34.752 35.0366 34.3388C35.0366 33.9256 34.7047 33.5906 34.2953 33.5906C33.8859 33.5906 33.554 33.9256 33.554 34.3388C33.554 34.752 33.8859 35.087 34.2953 35.087Z" fill="#C0FF58"/>
<path opacity="0.88" d="M28.4081 38.5308C28.8175 38.5308 29.1494 38.1958 29.1494 37.7825C29.1494 37.3693 28.8175 37.0343 28.4081 37.0343C27.9986 37.0343 27.6667 37.3693 27.6667 37.7825C27.6667 38.1958 27.9986 38.5308 28.4081 38.5308Z" fill="#C0FF58"/>
<path opacity="0.88" d="M38.5492 22.5531C38.9586 22.5531 39.2905 22.2181 39.2905 21.8049C39.2905 21.3916 38.9586 21.0566 38.5492 21.0566C38.1398 21.0566 37.8079 21.3916 37.8079 21.8049C37.8079 22.2181 38.1398 22.5531 38.5492 22.5531Z" fill="#C0FF58"/>
<path opacity="0.88" d="M22.0443 30.4183C22.4537 30.4183 22.7856 30.0833 22.7856 29.6701C22.7856 29.2569 22.4537 28.9219 22.0443 28.9219C21.6349 28.9219 21.303 29.2569 21.303 29.6701C21.303 30.0833 21.6349 30.4183 22.0443 30.4183Z" fill="#C0FF58"/>
<path opacity="0.88" d="M27.3329 28.3223C27.7423 28.3223 28.0742 27.9873 28.0742 27.574C28.0742 27.1608 27.7423 26.8258 27.3329 26.8258C26.9235 26.8258 26.5916 27.1608 26.5916 27.574C26.5916 27.9873 26.9235 28.3223 27.3329 28.3223Z" fill="#C0FF58"/>
<path opacity="0.88" d="M60.1097 41.3534C60.5191 41.3534 60.851 41.0184 60.851 40.6052C60.851 40.1919 60.5191 39.8569 60.1097 39.8569C59.7003 39.8569 59.3684 40.1919 59.3684 40.6052C59.3684 41.0184 59.7003 41.3534 60.1097 41.3534Z" fill="#C0FF58"/>
<path opacity="0.88" d="M54.067 42.3989C54.4764 42.3989 54.8083 42.0639 54.8083 41.6507C54.8083 41.2375 54.4764 40.9025 54.067 40.9025C53.6576 40.9025 53.3257 41.2375 53.3257 41.6507C53.3257 42.0639 53.6576 42.3989 54.067 42.3989Z" fill="#C0FF58"/>
<path opacity="0.88" d="M58.0216 44.8109C58.2737 44.8109 58.4781 44.6047 58.4781 44.3502C58.4781 44.0958 58.2737 43.8895 58.0216 43.8895C57.7695 43.8895 57.5652 44.0958 57.5652 44.3502C57.5652 44.6047 57.7695 44.8109 58.0216 44.8109Z" fill="#C0FF58"/>
<path opacity="0.88" d="M58.971 50.4586C59.2231 50.4586 59.4274 50.2524 59.4274 49.9979C59.4274 49.7435 59.2231 49.5372 58.971 49.5372C58.7189 49.5372 58.5145 49.7435 58.5145 49.9979C58.5145 50.2524 58.7189 50.4586 58.971 50.4586Z" fill="#C0FF58"/>
<path opacity="0.88" d="M46.8958 54.9762C47.1479 54.9762 47.3522 54.7699 47.3522 54.5155C47.3522 54.2611 47.1479 54.0548 46.8958 54.0548C46.6437 54.0548 46.4393 54.2611 46.4393 54.5155C46.4393 54.7699 46.6437 54.9762 46.8958 54.9762Z" fill="#C0FF58"/>
<path opacity="0.88" d="M34.2088 52.3325C34.4608 52.3325 34.6652 52.1263 34.6652 51.8718C34.6652 51.6174 34.4608 51.4111 34.2088 51.4111C33.9567 51.4111 33.7523 51.6174 33.7523 51.8718C33.7523 52.1263 33.9567 52.3325 34.2088 52.3325Z" fill="#C0FF58"/>
<path opacity="0.88" d="M50.2912 49.1265C50.5432 49.1265 50.7476 48.9202 50.7476 48.6658C50.7476 48.4113 50.5432 48.2051 50.2912 48.2051C50.0391 48.2051 49.8347 48.4113 49.8347 48.6658C49.8347 48.9202 50.0391 49.1265 50.2912 49.1265Z" fill="#C0FF58"/>
<path opacity="0.88" d="M45.8422 49.1861C46.0943 49.1861 46.2986 48.9798 46.2986 48.7254C46.2986 48.4709 46.0943 48.2646 45.8422 48.2646C45.5901 48.2646 45.3857 48.4709 45.3857 48.7254C45.3857 48.9798 45.5901 49.1861 45.8422 49.1861Z" fill="#C0FF58"/>
<path opacity="0.88" d="M44.6529 43.4789C44.9049 43.4789 45.1093 43.2726 45.1093 43.0182C45.1093 42.7638 44.9049 42.5575 44.6529 42.5575C44.4008 42.5575 44.1964 42.7638 44.1964 43.0182C44.1964 43.2726 44.4008 43.4789 44.6529 43.4789Z" fill="#C0FF58"/>
<path opacity="0.88" d="M47.2228 41.0468C47.4749 41.0468 47.6792 40.8405 47.6792 40.5861C47.6792 40.3316 47.4749 40.1254 47.2228 40.1254C46.9707 40.1254 46.7664 40.3316 46.7664 40.5861C46.7664 40.8405 46.9707 41.0468 47.2228 41.0468Z" fill="#C0FF58"/>
<path opacity="0.88" d="M57.0475 36.6693C57.2996 36.6693 57.5039 36.4631 57.5039 36.2086C57.5039 35.9542 57.2996 35.7479 57.0475 35.7479C56.7954 35.7479 56.5911 35.9542 56.5911 36.2086C56.5911 36.4631 56.7954 36.6693 57.0475 36.6693Z" fill="#C0FF58"/>
<path opacity="0.88" d="M65.7711 42.4417C66.0232 42.4417 66.2276 42.2354 66.2276 41.981C66.2276 41.7265 66.0232 41.5203 65.7711 41.5203C65.5191 41.5203 65.3147 41.7265 65.3147 41.981C65.3147 42.2354 65.5191 42.4417 65.7711 42.4417Z" fill="#C0FF58"/>
<path opacity="0.88" d="M55.5797 33.0344C55.8318 33.0344 56.0362 32.8282 56.0362 32.5737C56.0362 32.3193 55.8318 32.113 55.5797 32.113C55.3276 32.113 55.1233 32.3193 55.1233 32.5737C55.1233 32.8282 55.3276 33.0344 55.5797 33.0344Z" fill="#C0FF58"/>
<path opacity="0.88" d="M54.6908 26.147C54.9429 26.147 55.1473 25.9407 55.1473 25.6863C55.1473 25.4319 54.9429 25.2256 54.6908 25.2256C54.4387 25.2256 54.2344 25.4319 54.2344 25.6863C54.2344 25.9407 54.4387 26.147 54.6908 26.147Z" fill="#C0FF58"/>
<path opacity="0.88" d="M65.8397 20.3943C66.0918 20.3943 66.2962 20.188 66.2962 19.9336C66.2962 19.6792 66.0918 19.4729 65.8397 19.4729C65.5877 19.4729 65.3833 19.6792 65.3833 19.9336C65.3833 20.188 65.5877 20.3943 65.8397 20.3943Z" fill="#C0FF58"/>
<path opacity="0.88" d="M68.4926 32.9007C68.7447 32.9007 68.949 32.6944 68.949 32.44C68.949 32.1855 68.7447 31.9792 68.4926 31.9792C68.2405 31.9792 68.0361 32.1855 68.0361 32.44C68.0361 32.6944 68.2405 32.9007 68.4926 32.9007Z" fill="#C0FF58"/>
<path opacity="0.88" d="M58.9878 20.0217C59.2399 20.0217 59.4443 19.8155 59.4443 19.561C59.4443 19.3066 59.2399 19.1003 58.9878 19.1003C58.7357 19.1003 58.5314 19.3066 58.5314 19.561C58.5314 19.8155 58.7357 20.0217 58.9878 20.0217Z" fill="#C0FF58"/>
<path opacity="0.88" d="M60.8996 19.887C61.1516 19.887 61.356 19.6807 61.356 19.4263C61.356 19.1718 61.1516 18.9656 60.8996 18.9656C60.6475 18.9656 60.4431 19.1718 60.4431 19.4263C60.4431 19.6807 60.6475 19.887 60.8996 19.887Z" fill="#C0FF58"/>
<path opacity="0.88" d="M63.8927 17.3307C64.1448 17.3307 64.3492 17.1244 64.3492 16.87C64.3492 16.6156 64.1448 16.4093 63.8927 16.4093C63.6406 16.4093 63.4363 16.6156 63.4363 16.87C63.4363 17.1244 63.6406 17.3307 63.8927 17.3307Z" fill="#C0FF58"/>
<path opacity="0.88" d="M36.57 23.8197C36.8221 23.8197 37.0264 23.6135 37.0264 23.359C37.0264 23.1046 36.8221 22.8983 36.57 22.8983C36.3179 22.8983 36.1135 23.1046 36.1135 23.359C36.1135 23.6135 36.3179 23.8197 36.57 23.8197Z" fill="#C0FF58"/>
<path opacity="0.88" d="M34.6872 27.0925C34.9392 27.0925 35.1436 26.8863 35.1436 26.6318C35.1436 26.3774 34.9392 26.1711 34.6872 26.1711C34.4351 26.1711 34.2307 26.3774 34.2307 26.6318C34.2307 26.8863 34.4351 27.0925 34.6872 27.0925Z" fill="#C0FF58"/>
<path opacity="0.88" d="M24.2948 35.333C24.5469 35.333 24.7513 35.1268 24.7513 34.8723C24.7513 34.6179 24.5469 34.4116 24.2948 34.4116C24.0427 34.4116 23.8384 34.6179 23.8384 34.8723C23.8384 35.1268 24.0427 35.333 24.2948 35.333Z" fill="#C0FF58"/>
<path opacity="0.88" d="M22.7562 38.3228C23.0083 38.3228 23.2127 38.1165 23.2127 37.8621C23.2127 37.6076 23.0083 37.4014 22.7562 37.4014C22.5042 37.4014 22.2998 37.6076 22.2998 37.8621C22.2998 38.1165 22.5042 38.3228 22.7562 38.3228Z" fill="#C0FF58"/>
<path opacity="0.88" d="M44.8168 7.79896C45.0689 7.79896 45.2732 7.5927 45.2732 7.33826C45.2732 7.08383 45.0689 6.87756 44.8168 6.87756C44.5647 6.87756 44.3604 7.08383 44.3604 7.33826C44.3604 7.5927 44.5647 7.79896 44.8168 7.79896Z" fill="#C0FF58"/>
<path opacity="0.88" d="M54.4354 12.1343C54.6875 12.1343 54.8919 11.928 54.8919 11.6736C54.8919 11.4192 54.6875 11.2129 54.4354 11.2129C54.1834 11.2129 53.979 11.4192 53.979 11.6736C53.979 11.928 54.1834 12.1343 54.4354 12.1343Z" fill="#C0FF58"/>
<path opacity="0.88" d="M36.3981 45.0143C36.6502 45.0143 36.8545 44.808 36.8545 44.5536C36.8545 44.2992 36.6502 44.0929 36.3981 44.0929C36.146 44.0929 35.9417 44.2992 35.9417 44.5536C35.9417 44.808 36.146 45.0143 36.3981 45.0143Z" fill="#C0FF58"/>
<path opacity="0.88" d="M37.7804 41.746C38.0325 41.746 38.2369 41.5397 38.2369 41.2853C38.2369 41.0308 38.0325 40.8246 37.7804 40.8246C37.5283 40.8246 37.324 41.0308 37.324 41.2853C37.324 41.5397 37.5283 41.746 37.7804 41.746Z" fill="#C0FF58"/>
<path opacity="0.88" d="M32.3018 45.1264C33.1076 45.1264 33.7608 44.4671 33.7608 43.6538C33.7608 42.8405 33.1076 42.1812 32.3018 42.1812C31.496 42.1812 30.8428 42.8405 30.8428 43.6538C30.8428 44.4671 31.496 45.1264 32.3018 45.1264Z" fill="#C0FF58"/>
<path opacity="0.88" d="M53.9854 38.5069C54.7912 38.5069 55.4444 37.8476 55.4444 37.0343C55.4444 36.221 54.7912 35.5616 53.9854 35.5616C53.1796 35.5616 52.5264 36.221 52.5264 37.0343C52.5264 37.8476 53.1796 38.5069 53.9854 38.5069Z" fill="#C0FF58"/>
<path opacity="0.88" d="M64.8474 25.2439C65.2568 25.2439 65.5887 24.9089 65.5887 24.4957C65.5887 24.0824 65.2568 23.7474 64.8474 23.7474C64.438 23.7474 64.1061 24.0824 64.1061 24.4957C64.1061 24.9089 64.438 25.2439 64.8474 25.2439Z" fill="#C0FF58"/>
<path opacity="0.88" d="M28.4293 20.6902C28.8387 20.6902 29.1706 20.3552 29.1706 19.942C29.1706 19.5287 28.8387 19.1937 28.4293 19.1937C28.0199 19.1937 27.688 19.5287 27.688 19.942C27.688 20.3552 28.0199 20.6902 28.4293 20.6902Z" fill="#C0FF58"/>
<path opacity="0.88" d="M56.8633 29.9008C57.2358 29.9008 57.5378 29.5959 57.5378 29.2199C57.5378 28.8439 57.2358 28.5391 56.8633 28.5391C56.4907 28.5391 56.1887 28.8439 56.1887 29.2199C56.1887 29.5959 56.4907 29.9008 56.8633 29.9008Z" fill="#C0FF58"/>
<path opacity="0.88" d="M26.7421 42.8786C27.1146 42.8786 27.4166 42.5737 27.4166 42.1977C27.4166 41.8217 27.1146 41.5168 26.7421 41.5168C26.3695 41.5168 26.0675 41.8217 26.0675 42.1977C26.0675 42.5737 26.3695 42.8786 26.7421 42.8786Z" fill="#C0FF58"/>
<path opacity="0.88" d="M42.7124 51.6185C43.085 51.6185 43.387 51.3137 43.387 50.9377C43.387 50.5617 43.085 50.2568 42.7124 50.2568C42.3399 50.2568 42.0378 50.5617 42.0378 50.9377C42.0378 51.3137 42.3399 51.6185 42.7124 51.6185Z" fill="#C0FF58"/>
<path opacity="0.88" d="M54.9733 48.8497C55.3458 48.8497 55.6478 48.5449 55.6478 48.1689C55.6478 47.7929 55.3458 47.488 54.9733 47.488C54.6007 47.488 54.2987 47.7929 54.2987 48.1689C54.2987 48.5449 54.6007 48.8497 54.9733 48.8497Z" fill="#C0FF58"/>
<path opacity="0.88" d="M43.8782 47.3709C44.2507 47.3709 44.5527 47.066 44.5527 46.69C44.5527 46.314 44.2507 46.0092 43.8782 46.0092C43.5056 46.0092 43.2036 46.314 43.2036 46.69C43.2036 47.066 43.5056 47.3709 43.8782 47.3709Z" fill="#C0FF58"/>
<path opacity="0.88" d="M53.663 9.28773C53.9151 9.28773 54.1194 9.08147 54.1194 8.82703C54.1194 8.5726 53.9151 8.36633 53.663 8.36633C53.4109 8.36633 53.2065 8.5726 53.2065 8.82703C53.2065 9.08147 53.4109 9.28773 53.663 9.28773Z" fill="#C0FF58"/>
<path opacity="0.88" d="M57.8397 11.5736C58.0918 11.5736 58.2962 11.3674 58.2962 11.1129C58.2962 10.8585 58.0918 10.6522 57.8397 10.6522C57.5877 10.6522 57.3833 10.8585 57.3833 11.1129C57.3833 11.3674 57.5877 11.5736 57.8397 11.5736Z" fill="#C0FF58"/>
<path d="M50.631 15.9474L37.1837 32.7787L43.3568 32.8229L38.6504 46.2455L52.4258 28.7916L46.1292 28.8147L50.631 15.9474Z" fill="#C0FF58"/>
<path d="M93.0839 20.776C93.1798 21.256 93.2277 21.72 93.2277 22.168C93.2277 22.584 93.1798 23.032 93.0839 23.512L86.9973 23.464V39.592C86.9973 40.936 87.6203 41.608 88.8664 41.608H92.5088C92.7324 42.152 92.8443 42.696 92.8443 43.24C92.8443 43.784 92.8123 44.12 92.7484 44.248C91.2787 44.44 89.761 44.536 88.1954 44.536C85.0962 44.536 83.5466 43.208 83.5466 40.552V23.464L80.1438 23.512C80.0479 23.032 80 22.584 80 22.168C80 21.72 80.0479 21.256 80.1438 20.776L83.5466 20.824V15.784C83.5466 14.92 83.6744 14.312 83.93 13.96C84.1856 13.576 84.6808 13.384 85.4157 13.384H86.7097L86.9973 13.672V20.872L93.0839 20.776Z" fill="white"/>
<path d="M116.275 21.016L109.709 43.528C108.495 47.656 107.201 50.568 105.827 52.264C104.453 53.96 102.392 54.808 99.6446 54.808C98.2387 54.808 96.9447 54.6 95.7625 54.184C95.6667 53.288 95.9223 52.424 96.5294 51.592C97.5198 51.944 98.5742 52.12 99.6925 52.12C101.386 52.12 102.68 51.544 103.575 50.392C104.469 49.24 105.284 47.448 106.019 45.016L106.163 44.536C105.332 44.472 104.693 44.28 104.246 43.96C103.83 43.64 103.479 43.048 103.191 42.184L96.4814 21.064C97.4719 20.648 98.1748 20.44 98.5902 20.44C99.5168 20.44 100.14 21 100.459 22.12L104.246 34.168C104.373 34.552 105.108 37.048 106.45 41.656C106.514 41.88 106.674 41.992 106.929 41.992L112.776 20.776C113.192 20.648 113.735 20.584 114.406 20.584C115.109 20.584 115.7 20.68 116.179 20.872L116.275 21.016Z" fill="white"/>
<path d="M125.484 42.76V52.264C125.484 53.128 125.356 53.736 125.101 54.088C124.845 54.472 124.334 54.664 123.567 54.664H122.273L121.985 54.376V20.92L122.273 20.632H123.519C124.286 20.632 124.797 20.84 125.053 21.256C125.34 21.64 125.484 22.28 125.484 23.176V23.416C127.401 21.272 129.686 20.2 132.337 20.2C135.053 20.2 137.098 21.304 138.472 23.512C139.846 25.688 140.533 28.712 140.533 32.584C140.533 34.472 140.277 36.168 139.766 37.672C139.287 39.176 138.632 40.456 137.801 41.512C137.002 42.536 136.076 43.336 135.021 43.912C133.967 44.456 132.881 44.728 131.762 44.728C129.558 44.728 127.465 44.072 125.484 42.76ZM125.484 27.16V39.496C127.433 40.936 129.27 41.656 130.996 41.656C132.721 41.656 134.143 40.888 135.261 39.352C136.379 37.816 136.938 35.496 136.938 32.392C136.938 30.856 136.795 29.528 136.507 28.408C136.251 27.256 135.9 26.312 135.453 25.576C135.005 24.808 134.478 24.248 133.871 23.896C133.296 23.512 132.673 23.32 132.002 23.32C130.724 23.32 129.51 23.656 128.36 24.328C127.209 25 126.251 25.944 125.484 27.16Z" fill="white"/>
<path d="M164.801 33.64H149.944C150.104 39.08 152.165 41.8 156.127 41.8C158.299 41.8 160.616 41.128 163.076 39.784C163.779 40.424 164.21 41.24 164.37 42.232C161.75 44.024 158.81 44.92 155.551 44.92C153.89 44.92 152.468 44.616 151.286 44.008C150.104 43.368 149.129 42.504 148.362 41.416C147.628 40.296 147.084 38.984 146.733 37.48C146.382 35.976 146.206 34.328 146.206 32.536C146.206 30.712 146.413 29.048 146.829 27.544C147.276 26.04 147.915 24.744 148.746 23.656C149.577 22.568 150.567 21.72 151.717 21.112C152.9 20.504 154.241 20.2 155.743 20.2C157.213 20.2 158.523 20.472 159.673 21.016C160.855 21.528 161.83 22.248 162.597 23.176C163.395 24.072 164.002 25.16 164.418 26.44C164.833 27.688 165.041 29.032 165.041 30.472C165.041 31.048 165.009 31.608 164.945 32.152C164.913 32.664 164.865 33.16 164.801 33.64ZM149.944 30.904H161.446V30.28C161.446 28.072 160.983 26.296 160.057 24.952C159.13 23.608 157.74 22.936 155.887 22.936C154.066 22.936 152.644 23.656 151.621 25.096C150.631 26.536 150.072 28.472 149.944 30.904Z" fill="white"/>
<path d="M169.734 42.664C169.766 41.96 169.958 41.192 170.309 40.36C170.693 39.496 171.124 38.824 171.603 38.344C174.128 39.72 176.348 40.408 178.265 40.408C179.32 40.408 180.166 40.2 180.805 39.784C181.476 39.368 181.812 38.808 181.812 38.104C181.812 36.984 180.949 36.088 179.224 35.416L176.54 34.408C172.514 32.936 170.501 30.584 170.501 27.352C170.501 26.2 170.709 25.176 171.124 24.28C171.571 23.352 172.179 22.568 172.945 21.928C173.744 21.256 174.687 20.744 175.773 20.392C176.859 20.04 178.073 19.864 179.415 19.864C180.022 19.864 180.693 19.912 181.428 20.008C182.195 20.104 182.962 20.248 183.729 20.44C184.496 20.6 185.23 20.792 185.933 21.016C186.636 21.24 187.243 21.48 187.755 21.736C187.755 22.536 187.595 23.368 187.275 24.232C186.956 25.096 186.525 25.736 185.981 26.152C183.457 25.032 181.269 24.472 179.415 24.472C178.585 24.472 177.93 24.68 177.45 25.096C176.971 25.48 176.732 25.992 176.732 26.632C176.732 27.624 177.53 28.408 179.128 28.984L182.051 30.04C184.16 30.776 185.726 31.784 186.748 33.064C187.771 34.344 188.282 35.832 188.282 37.528C188.282 39.8 187.435 41.624 185.742 43C184.048 44.344 181.62 45.016 178.457 45.016C175.358 45.016 172.45 44.232 169.734 42.664Z" fill="white"/>
<path d="M211.738 34.456H198.511C198.607 36.216 199.006 37.608 199.709 38.632C200.444 39.624 201.706 40.12 203.495 40.12C205.348 40.12 207.473 39.576 209.869 38.488C210.796 39.448 211.387 40.712 211.643 42.28C209.086 44.104 206.019 45.016 202.441 45.016C199.054 45.016 196.482 43.976 194.725 41.896C192.999 39.784 192.137 36.664 192.137 32.536C192.137 30.616 192.36 28.888 192.807 27.352C193.255 25.784 193.91 24.456 194.772 23.368C195.635 22.248 196.69 21.384 197.936 20.776C199.182 20.168 200.603 19.864 202.201 19.864C203.831 19.864 205.268 20.12 206.514 20.632C207.761 21.112 208.815 21.816 209.678 22.744C210.54 23.64 211.179 24.712 211.595 25.96C212.042 27.208 212.266 28.568 212.266 30.04C212.266 30.84 212.218 31.608 212.122 32.344C212.026 33.048 211.898 33.752 211.738 34.456ZM202.489 24.376C199.996 24.376 198.654 26.264 198.463 30.04H206.419V29.464C206.419 27.928 206.099 26.696 205.46 25.768C204.821 24.84 203.831 24.376 202.489 24.376Z" fill="white"/>
<path d="M238.004 28.312V38.776C238.004 40.824 238.34 42.344 239.011 43.336C237.988 44.232 236.758 44.68 235.32 44.68C233.947 44.68 233.004 44.376 232.493 43.768C231.982 43.128 231.726 42.136 231.726 40.792V29.608C231.726 28.168 231.55 27.16 231.199 26.584C230.847 26.008 230.192 25.72 229.234 25.72C227.54 25.72 225.959 26.488 224.489 28.024V44.344C224.01 44.44 223.499 44.504 222.955 44.536C222.444 44.568 221.917 44.584 221.374 44.584C220.831 44.584 220.288 44.568 219.744 44.536C219.233 44.504 218.738 44.44 218.259 44.344V20.584L218.546 20.248H220.943C222.732 20.248 223.85 21.208 224.297 23.128C226.63 21.112 228.946 20.104 231.247 20.104C233.547 20.104 235.241 20.856 236.327 22.36C237.445 23.832 238.004 25.816 238.004 28.312Z" fill="white"/>
<path d="M243.032 42.664C243.064 41.96 243.255 41.192 243.607 40.36C243.99 39.496 244.422 38.824 244.901 38.344C247.425 39.72 249.646 40.408 251.563 40.408C252.617 40.408 253.464 40.2 254.103 39.784C254.774 39.368 255.109 38.808 255.109 38.104C255.109 36.984 254.246 36.088 252.521 35.416L249.837 34.408C245.811 32.936 243.799 30.584 243.799 27.352C243.799 26.2 244.006 25.176 244.422 24.28C244.869 23.352 245.476 22.568 246.243 21.928C247.042 21.256 247.984 20.744 249.07 20.392C250.157 20.04 251.371 19.864 252.713 19.864C253.32 19.864 253.991 19.912 254.726 20.008C255.493 20.104 256.259 20.248 257.026 20.44C257.793 20.6 258.528 20.792 259.231 21.016C259.934 21.24 260.541 21.48 261.052 21.736C261.052 22.536 260.892 23.368 260.573 24.232C260.253 25.096 259.822 25.736 259.279 26.152C256.755 25.032 254.566 24.472 252.713 24.472C251.882 24.472 251.227 24.68 250.748 25.096C250.269 25.48 250.029 25.992 250.029 26.632C250.029 27.624 250.828 28.408 252.425 28.984L255.349 30.04C257.458 30.776 259.023 31.784 260.046 33.064C261.068 34.344 261.579 35.832 261.579 37.528C261.579 39.8 260.733 41.624 259.039 43C257.346 44.344 254.917 45.016 251.754 45.016C248.655 45.016 245.748 44.232 243.032 42.664Z" fill="white"/>
<path d="M285.036 34.456H271.808C271.904 36.216 272.303 37.608 273.006 38.632C273.741 39.624 275.003 40.12 276.792 40.12C278.646 40.12 280.77 39.576 283.167 38.488C284.093 39.448 284.684 40.712 284.94 42.28C282.384 44.104 279.317 45.016 275.738 45.016C272.351 45.016 269.779 43.976 268.022 41.896C266.297 39.784 265.434 36.664 265.434 32.536C265.434 30.616 265.658 28.888 266.105 27.352C266.552 25.784 267.207 24.456 268.07 23.368C268.933 22.248 269.987 21.384 271.233 20.776C272.479 20.168 273.901 19.864 275.498 19.864C277.128 19.864 278.566 20.12 279.812 20.632C281.058 21.112 282.112 21.816 282.975 22.744C283.838 23.64 284.477 24.712 284.892 25.96C285.339 27.208 285.563 28.568 285.563 30.04C285.563 30.84 285.515 31.608 285.419 32.344C285.323 33.048 285.196 33.752 285.036 34.456ZM275.786 24.376C273.294 24.376 271.952 26.264 271.76 30.04H279.716V29.464C279.716 27.928 279.396 26.696 278.757 25.768C278.118 24.84 277.128 24.376 275.786 24.376Z" fill="white"/>
<path d="M292.467 51.064V7.144C292.946 7.048 293.489 7 294.096 7C294.735 7 295.326 7.048 295.869 7.144V51.064C295.326 51.16 294.735 51.208 294.096 51.208C293.489 51.208 292.946 51.16 292.467 51.064Z" fill="white"/>
</svg>
