<svg width="326" height="62" viewBox="0 0 326 62" fill="none" xmlns="http://www.w3.org/2000/svg">
<rect width="326" height="62" fill="black"/>
<rect width="62" height="62" transform="translate(13)" fill="black"/>
<path opacity="0.88" d="M42.603 47.3025L41.8424 50.2599" stroke="#C0FF58" stroke-width="0.12"/>
<path opacity="0.88" d="M49.2426 48.9351L46.0571 54.1866" stroke="#C0FF58" stroke-width="0.12"/>
<path opacity="0.88" d="M47.4123 46.0293L45.1604 48.439" stroke="#C0FF58" stroke-width="0.12"/>
<path opacity="0.88" d="M48.5946 46.3237L49.1416 48.2919" stroke="#C0FF58" stroke-width="0.12"/>
<path opacity="0.88" d="M43.4974 46.4909L47.0078 45.5151" stroke="#C0FF58" stroke-width="0.12"/>
<path opacity="0.88" d="M44.1371 43.207L46.8916 44.4017" stroke="#C0FF58" stroke-width="0.12"/>
<path opacity="0.88" d="M46.3699 41.0278L47.6234 43.63" stroke="#C0FF58" stroke-width="0.12"/>
<path opacity="0.88" d="M52.2703 38.3398L49.1807 43.7141" stroke="#C0FF58" stroke-width="0.12"/>
<path opacity="0.88" d="M30.5689 29.6233L25.8391 31.46" stroke="#C0FF58" stroke-width="0.12"/>
<path opacity="0.88" d="M30.3966 24.6029L23.1138 22.5811" stroke="#C0FF58" stroke-width="0.12"/>
<path opacity="0.88" d="M30.7331 23.8495L27.7751 20.5811" stroke="#C0FF58" stroke-width="0.12"/>
<path opacity="0.88" d="M37.0214 21.5029L34.0986 20.2407" stroke="#C0FF58" stroke-width="0.12"/>
<path opacity="0.88" d="M37.1014 22.2158L35.8546 23.1007" stroke="#C0FF58" stroke-width="0.12"/>
<path opacity="0.88" d="M33.5136 14.8782L30.8279 13.6533" stroke="#C0FF58" stroke-width="0.12"/>
<path opacity="0.88" d="M33.8861 15.9941L27.8997 19.6116" stroke="#C0FF58" stroke-width="0.12"/>
<path opacity="0.88" d="M39.2461 13.8616L36.3024 14.8524" stroke="#C0FF58" stroke-width="0.12"/>
<path opacity="0.88" d="M35.4438 9.78467L34.9943 13.7689" stroke="#C0FF58" stroke-width="0.12"/>
<path opacity="0.88" d="M43.4922 7.63477L39.6819 11.026" stroke="#C0FF58" stroke-width="0.12"/>
<path opacity="0.88" d="M40.9669 18.2827L38.0969 21.335" stroke="#C0FF58" stroke-width="0.12"/>
<path opacity="0.88" d="M41.2641 16.9403L40.0476 14.2578" stroke="#C0FF58" stroke-width="0.12"/>
<path opacity="0.88" d="M31.5141 30.458L30.6516 32.9395" stroke="#C0FF58" stroke-width="0.12"/>
<path opacity="0.88" d="M26.1032 28.3298L25.1371 30.9159" stroke="#C0FF58" stroke-width="0.12"/>
<path opacity="0.88" d="M24.0219 31.4737L21.5583 30.1372" stroke="#C0FF58" stroke-width="0.12"/>
<path opacity="0.88" d="M33.5257 26.8198L32.739 28.0663" stroke="#C0FF58" stroke-width="0.12"/>
<path opacity="0.88" d="M24.4598 32.7749L23.5801 34.4897" stroke="#C0FF58" stroke-width="0.12"/>
<path opacity="0.88" d="M32.7321 34.5786L28.0168 37.3759" stroke="#C0FF58" stroke-width="0.12"/>
<path opacity="0.88" d="M25.3021 41.781L21.9802 38.2297" stroke="#C0FF58" stroke-width="0.12"/>
<path opacity="0.88" d="M36.3603 41.3999L32.5315 42.9103" stroke="#C0FF58" stroke-width="0.12"/>
<path opacity="0.88" d="M32.5653 39.5945L31.6013 42.2783" stroke="#C0FF58" stroke-width="0.12"/>
<path opacity="0.88" d="M35.0041 44.4485L32.6545 43.9478" stroke="#C0FF58" stroke-width="0.12"/>
<path opacity="0.88" d="M29.8962 43.3951L26.3459 42.5181" stroke="#C0FF58" stroke-width="0.12"/>
<path opacity="0.88" d="M30.1257 44.5132L28.0139 45.7102" stroke="#C0FF58" stroke-width="0.12"/>
<path opacity="0.88" d="M31.8774 44.9941L33.1939 51.5246" stroke="#C0FF58" stroke-width="0.12"/>
<path opacity="0.88" d="M54.2589 37.6328L58.4724 40.2987" stroke="#C0FF58" stroke-width="0.12"/>
<path opacity="0.88" d="M54.9778 32.7478L56.4236 33.0716" stroke="#C0FF58" stroke-width="0.12"/>
<path opacity="0.88" d="M56.5098 29.247L61.4693 28.9883" stroke="#C0FF58" stroke-width="0.12"/>
<path opacity="0.88" d="M57.2107 24.3955L56.0662 28.667" stroke="#C0FF58" stroke-width="0.12"/>
<path opacity="0.88" d="M58.2114 24.1799L61.8244 28.2573" stroke="#C0FF58" stroke-width="0.12"/>
<path opacity="0.88" d="M58.6222 23.3926L63.1585 24.3247" stroke="#C0FF58" stroke-width="0.12"/>
<path opacity="0.88" d="M64.3274 24.7729L67.4412 31.9925" stroke="#C0FF58" stroke-width="0.12"/>
<path opacity="0.88" d="M58.384 22.7669L64.5257 20.1399" stroke="#C0FF58" stroke-width="0.12"/>
<path opacity="0.88" d="M57.7111 22.3214L57.9632 20.0078" stroke="#C0FF58" stroke-width="0.12"/>
<path opacity="0.88" d="M59.7978 18.9823L59.4597 17.6855" stroke="#C0FF58" stroke-width="0.12"/>
<path opacity="0.88" d="M62.6481 17.2249L60.3186 19.3731" stroke="#C0FF58" stroke-width="0.12"/>
<path opacity="0.88" d="M51.8196 21.6003L56.6637 22.856" stroke="#C0FF58" stroke-width="0.12"/>
<path opacity="0.88" d="M53.9147 25.4279L56.6663 23.8989" stroke="#C0FF58" stroke-width="0.12"/>
<path opacity="0.88" d="M53.9777 17.301L57.0264 22.4785" stroke="#C0FF58" stroke-width="0.12"/>
<path opacity="0.88" d="M52.9577 17.3184L51.2745 20.179" stroke="#C0FF58" stroke-width="0.12"/>
<path opacity="0.88" d="M56.683 11.5107L54.0505 15.5001" stroke="#C0FF58" stroke-width="0.12"/>
<path opacity="0.88" d="M56.4285 11.2292L53.8816 11.5893" stroke="#C0FF58" stroke-width="0.12"/>
<path opacity="0.88" d="M53.2926 11.2609L52.7629 9.21045" stroke="#C0FF58" stroke-width="0.12"/>
<path opacity="0.88" d="M57.6389 33.4817L59.7664 34.4305" stroke="#C0FF58" stroke-width="0.12"/>
<path opacity="0.88" d="M56.4921 36.1156L59.854 35.1609" stroke="#C0FF58" stroke-width="0.12"/>
<path opacity="0.88" d="M59.3926 39.9834L60.8774 36.1218" stroke="#C0FF58" stroke-width="0.12"/>
<path opacity="0.88" d="M59.8132 40.7119L64.3275 41.8706" stroke="#C0FF58" stroke-width="0.12"/>
<path opacity="0.88" d="M52.436 42.0879L49.6124 44.2603" stroke="#C0FF58" stroke-width="0.12"/>
<path opacity="0.88" d="M56.5717 44.396L49.7668 44.9567" stroke="#C0FF58" stroke-width="0.12"/>
<path opacity="0.88" d="M57.5702 49.7981L54.566 48.4614" stroke="#C0FF58" stroke-width="0.12"/>
<path opacity="0.88" d="M57.5556 24.4831C58.1576 24.4831 58.6456 23.9905 58.6456 23.3829C58.6456 22.7753 58.1576 22.2827 57.5556 22.2827C56.9536 22.2827 56.4656 22.7753 56.4656 23.3829C56.4656 23.9905 56.9536 24.4831 57.5556 24.4831Z" fill="#C0FF58"/>
<path opacity="0.88" d="M50.9057 22.2382C51.5077 22.2382 51.9957 21.7456 51.9957 21.138C51.9957 20.5304 51.5077 20.0378 50.9057 20.0378C50.3037 20.0378 49.8157 20.5304 49.8157 21.138C49.8157 21.7456 50.3037 22.2382 50.9057 22.2382Z" fill="#C0FF58"/>
<path opacity="0.88" d="M31.4435 25.6506C32.0455 25.6506 32.5336 25.158 32.5336 24.5504C32.5336 23.9428 32.0455 23.4502 31.4435 23.4502C30.8415 23.4502 30.3535 23.9428 30.3535 24.5504C30.3535 25.158 30.8415 25.6506 31.4435 25.6506Z" fill="#C0FF58"/>
<path opacity="0.88" d="M24.8666 32.9897C25.4686 32.9897 25.9566 32.4971 25.9566 31.8895C25.9566 31.2819 25.4686 30.7893 24.8666 30.7893C24.2646 30.7893 23.7766 31.2819 23.7766 31.8895C23.7766 32.4971 24.2646 32.9897 24.8666 32.9897Z" fill="#C0FF58"/>
<path opacity="0.88" d="M62.5385 30.0632C63.1405 30.0632 63.6285 29.5706 63.6285 28.963C63.6285 28.3554 63.1405 27.8628 62.5385 27.8628C61.9365 27.8628 61.4485 28.3554 61.4485 28.963C61.4485 29.5706 61.9365 30.0632 62.5385 30.0632Z" fill="#C0FF58"/>
<path opacity="0.88" d="M53.4571 17.4958C54.0591 17.4958 54.5471 17.0032 54.5471 16.3956C54.5471 15.788 54.0591 15.2954 53.4571 15.2954C52.8551 15.2954 52.3671 15.788 52.3671 16.3956C52.3671 17.0032 52.8551 17.4958 53.4571 17.4958Z" fill="#C0FF58"/>
<path opacity="0.88" d="M41.7839 18.7731C42.3859 18.7731 42.8739 18.2806 42.8739 17.6729C42.8739 17.0653 42.3859 16.5728 41.7839 16.5728C41.1819 16.5728 40.6938 17.0653 40.6938 17.6729C40.6938 18.2806 41.1819 18.7731 41.7839 18.7731Z" fill="#C0FF58"/>
<path opacity="0.88" d="M27.1148 47.3701C27.7168 47.3701 28.2048 46.8775 28.2048 46.2699C28.2048 45.6623 27.7168 45.1697 27.1148 45.1697C26.5128 45.1697 26.0248 45.6623 26.0248 46.2699C26.0248 46.8775 26.5128 47.3701 27.1148 47.3701Z" fill="#C0FF58"/>
<path opacity="0.88" d="M32.9272 39.801C33.5292 39.801 34.0172 39.3084 34.0172 38.7008C34.0172 38.0932 33.5292 37.6006 32.9272 37.6006C32.3252 37.6006 31.8372 38.0932 31.8372 38.7008C31.8372 39.3084 32.3252 39.801 32.9272 39.801Z" fill="#C0FF58"/>
<path opacity="0.88" d="M29.8942 14.2709C30.5196 14.2709 31.0266 13.7592 31.0266 13.1279C31.0266 12.4966 30.5196 11.9849 29.8942 11.9849C29.2687 11.9849 28.7617 12.4966 28.7617 13.1279C28.7617 13.7592 29.2687 14.2709 29.8942 14.2709Z" fill="#C0FF58"/>
<path opacity="0.88" d="M43.8765 12.9203C44.5019 12.9203 45.0089 12.4086 45.0089 11.7773C45.0089 11.146 44.5019 10.6343 43.8765 10.6343C43.251 10.6343 42.744 11.146 42.744 11.7773C42.744 12.4086 43.251 12.9203 43.8765 12.9203Z" fill="#C0FF58"/>
<path opacity="0.88" d="M34.9585 16.6337C35.7643 16.6337 36.4175 15.9744 36.4175 15.1611C36.4175 14.3478 35.7643 13.6885 34.9585 13.6885C34.1527 13.6885 33.4995 14.3478 33.4995 15.1611C33.4995 15.9744 34.1527 16.6337 34.9585 16.6337Z" fill="#C0FF58"/>
<path opacity="0.88" d="M58.6861 18.0219C59.4919 18.0219 60.1451 17.3626 60.1451 16.5493C60.1451 15.736 59.4919 15.0767 58.6861 15.0767C57.8803 15.0767 57.2271 15.736 57.2271 16.5493C57.2271 17.3626 57.8803 18.0219 58.6861 18.0219Z" fill="#C0FF58"/>
<path opacity="0.88" d="M61.1985 36.1545C62.0043 36.1545 62.6575 35.4952 62.6575 34.6819C62.6575 33.8685 62.0043 33.2092 61.1985 33.2092C60.3927 33.2092 59.7395 33.8685 59.7395 34.6819C59.7395 35.4952 60.3927 36.1545 61.1985 36.1545Z" fill="#C0FF58"/>
<path opacity="0.88" d="M57.0552 33.8727C57.4277 33.8727 57.7297 33.5679 57.7297 33.1918C57.7297 32.8158 57.4277 32.511 57.0552 32.511C56.6826 32.511 56.3806 32.8158 56.3806 33.1918C56.3806 33.5679 56.6826 33.8727 57.0552 33.8727Z" fill="#C0FF58"/>
<path opacity="0.88" d="M39.8141 14.2899C40.1866 14.2899 40.4887 13.9851 40.4887 13.6091C40.4887 13.2331 40.1866 12.9282 39.8141 12.9282C39.4415 12.9282 39.1395 13.2331 39.1395 13.6091C39.1395 13.9851 39.4415 14.2899 39.8141 14.2899Z" fill="#C0FF58"/>
<path opacity="0.88" d="M33.5829 20.693C33.9554 20.693 34.2574 20.3882 34.2574 20.0122C34.2574 19.6361 33.9554 19.3313 33.5829 19.3313C33.2103 19.3313 32.9083 19.6361 32.9083 20.0122C32.9083 20.3882 33.2103 20.693 33.5829 20.693Z" fill="#C0FF58"/>
<path opacity="0.88" d="M22.541 23.0607C22.9136 23.0607 23.2156 22.7559 23.2156 22.3798C23.2156 22.0038 22.9136 21.699 22.541 21.699C22.1685 21.699 21.8665 22.0038 21.8665 22.3798C21.8665 22.7559 22.1685 23.0607 22.541 23.0607Z" fill="#C0FF58"/>
<path opacity="0.88" d="M35.5411 9.89101C35.9137 9.89101 36.2157 9.58618 36.2157 9.21015C36.2157 8.83413 35.9137 8.5293 35.5411 8.5293C35.1686 8.5293 34.8666 8.83413 34.8666 9.21015C34.8666 9.58618 35.1686 9.89101 35.5411 9.89101Z" fill="#C0FF58"/>
<path opacity="0.88" d="M39.1963 12.1161C39.5688 12.1161 39.8709 11.8113 39.8709 11.4353C39.8709 11.0592 39.5688 10.7544 39.1963 10.7544C38.8237 10.7544 38.5217 11.0592 38.5217 11.4353C38.5217 11.8113 38.8237 12.1161 39.1963 12.1161Z" fill="#C0FF58"/>
<path opacity="0.88" d="M48.2928 46.3635C49.0986 46.3635 49.7518 45.7042 49.7518 44.8908C49.7518 44.0775 49.0986 43.4182 48.2928 43.4182C47.487 43.4182 46.8337 44.0775 46.8337 44.8908C46.8337 45.7042 47.487 46.3635 48.2928 46.3635Z" fill="#C0FF58"/>
<path opacity="0.88" d="M31.9171 30.5556C32.7229 30.5556 33.3762 29.8963 33.3762 29.083C33.3762 28.2697 32.7229 27.6104 31.9171 27.6104C31.1114 27.6104 30.4581 28.2697 30.4581 29.083C30.4581 29.8963 31.1114 30.5556 31.9171 30.5556Z" fill="#C0FF58"/>
<path opacity="0.88" d="M30.5637 34.3656C30.9731 34.3656 31.305 34.0306 31.305 33.6174C31.305 33.2041 30.9731 32.8691 30.5637 32.8691C30.1543 32.8691 29.8224 33.2041 29.8224 33.6174C29.8224 34.0306 30.1543 34.3656 30.5637 34.3656Z" fill="#C0FF58"/>
<path opacity="0.88" d="M33.2953 35.0873C33.7047 35.0873 34.0366 34.7523 34.0366 34.3391C34.0366 33.9258 33.7047 33.5908 33.2953 33.5908C32.8859 33.5908 32.554 33.9258 32.554 34.3391C32.554 34.7523 32.8859 35.0873 33.2953 35.0873Z" fill="#C0FF58"/>
<path opacity="0.88" d="M27.4081 38.5309C27.8175 38.5309 28.1494 38.1959 28.1494 37.7827C28.1494 37.3694 27.8175 37.0344 27.4081 37.0344C26.9986 37.0344 26.6667 37.3694 26.6667 37.7827C26.6667 38.1959 26.9986 38.5309 27.4081 38.5309Z" fill="#C0FF58"/>
<path opacity="0.88" d="M37.5492 22.5533C37.9586 22.5533 38.2905 22.2184 38.2905 21.8051C38.2905 21.3919 37.9586 21.0569 37.5492 21.0569C37.1398 21.0569 36.8079 21.3919 36.8079 21.8051C36.8079 22.2184 37.1398 22.5533 37.5492 22.5533Z" fill="#C0FF58"/>
<path opacity="0.88" d="M21.0443 30.4183C21.4537 30.4183 21.7856 30.0833 21.7856 29.6701C21.7856 29.2569 21.4537 28.9219 21.0443 28.9219C20.6349 28.9219 20.303 29.2569 20.303 29.6701C20.303 30.0833 20.6349 30.4183 21.0443 30.4183Z" fill="#C0FF58"/>
<path opacity="0.88" d="M26.3329 28.3224C26.7423 28.3224 27.0742 27.9874 27.0742 27.5742C27.0742 27.1609 26.7423 26.8259 26.3329 26.8259C25.9235 26.8259 25.5916 27.1609 25.5916 27.5742C25.5916 27.9874 25.9235 28.3224 26.3329 28.3224Z" fill="#C0FF58"/>
<path opacity="0.88" d="M59.1097 41.3536C59.5191 41.3536 59.851 41.0186 59.851 40.6054C59.851 40.1922 59.5191 39.8572 59.1097 39.8572C58.7003 39.8572 58.3684 40.1922 58.3684 40.6054C58.3684 41.0186 58.7003 41.3536 59.1097 41.3536Z" fill="#C0FF58"/>
<path opacity="0.88" d="M53.067 42.3991C53.4764 42.3991 53.8083 42.0641 53.8083 41.6508C53.8083 41.2376 53.4764 40.9026 53.067 40.9026C52.6576 40.9026 52.3257 41.2376 52.3257 41.6508C52.3257 42.0641 52.6576 42.3991 53.067 42.3991Z" fill="#C0FF58"/>
<path opacity="0.88" d="M57.0216 44.811C57.2737 44.811 57.4781 44.6048 57.4781 44.3504C57.4781 44.0959 57.2737 43.8896 57.0216 43.8896C56.7695 43.8896 56.5652 44.0959 56.5652 44.3504C56.5652 44.6048 56.7695 44.811 57.0216 44.811Z" fill="#C0FF58"/>
<path opacity="0.88" d="M57.971 50.459C58.2231 50.459 58.4274 50.2527 58.4274 49.9983C58.4274 49.7439 58.2231 49.5376 57.971 49.5376C57.7189 49.5376 57.5145 49.7439 57.5145 49.9983C57.5145 50.2527 57.7189 50.459 57.971 50.459Z" fill="#C0FF58"/>
<path opacity="0.88" d="M45.8958 54.9761C46.1479 54.9761 46.3522 54.7698 46.3522 54.5154C46.3522 54.2609 46.1479 54.0547 45.8958 54.0547C45.6437 54.0547 45.4393 54.2609 45.4393 54.5154C45.4393 54.7698 45.6437 54.9761 45.8958 54.9761Z" fill="#C0FF58"/>
<path opacity="0.88" d="M33.2088 52.3328C33.4608 52.3328 33.6652 52.1265 33.6652 51.8721C33.6652 51.6176 33.4608 51.4114 33.2088 51.4114C32.9567 51.4114 32.7523 51.6176 32.7523 51.8721C32.7523 52.1265 32.9567 52.3328 33.2088 52.3328Z" fill="#C0FF58"/>
<path opacity="0.88" d="M49.2912 49.1267C49.5432 49.1267 49.7476 48.9205 49.7476 48.666C49.7476 48.4116 49.5432 48.2053 49.2912 48.2053C49.0391 48.2053 48.8347 48.4116 48.8347 48.666C48.8347 48.9205 49.0391 49.1267 49.2912 49.1267Z" fill="#C0FF58"/>
<path opacity="0.88" d="M44.8422 49.1863C45.0943 49.1863 45.2986 48.98 45.2986 48.7256C45.2986 48.4712 45.0943 48.2649 44.8422 48.2649C44.5901 48.2649 44.3857 48.4712 44.3857 48.7256C44.3857 48.98 44.5901 49.1863 44.8422 49.1863Z" fill="#C0FF58"/>
<path opacity="0.88" d="M43.6529 43.479C43.9049 43.479 44.1093 43.2728 44.1093 43.0183C44.1093 42.7639 43.9049 42.5576 43.6529 42.5576C43.4008 42.5576 43.1964 42.7639 43.1964 43.0183C43.1964 43.2728 43.4008 43.479 43.6529 43.479Z" fill="#C0FF58"/>
<path opacity="0.88" d="M46.2228 41.0469C46.4749 41.0469 46.6792 40.8406 46.6792 40.5862C46.6792 40.3318 46.4749 40.1255 46.2228 40.1255C45.9707 40.1255 45.7664 40.3318 45.7664 40.5862C45.7664 40.8406 45.9707 41.0469 46.2228 41.0469Z" fill="#C0FF58"/>
<path opacity="0.88" d="M56.0475 36.6694C56.2996 36.6694 56.5039 36.4632 56.5039 36.2087C56.5039 35.9543 56.2996 35.748 56.0475 35.748C55.7954 35.748 55.5911 35.9543 55.5911 36.2087C55.5911 36.4632 55.7954 36.6694 56.0475 36.6694Z" fill="#C0FF58"/>
<path opacity="0.88" d="M64.7711 42.4419C65.0232 42.4419 65.2276 42.2356 65.2276 41.9812C65.2276 41.7268 65.0232 41.5205 64.7711 41.5205C64.5191 41.5205 64.3147 41.7268 64.3147 41.9812C64.3147 42.2356 64.5191 42.4419 64.7711 42.4419Z" fill="#C0FF58"/>
<path opacity="0.88" d="M54.5797 33.0347C54.8318 33.0347 55.0362 32.8284 55.0362 32.574C55.0362 32.3195 54.8318 32.1133 54.5797 32.1133C54.3276 32.1133 54.1233 32.3195 54.1233 32.574C54.1233 32.8284 54.3276 33.0347 54.5797 33.0347Z" fill="#C0FF58"/>
<path opacity="0.88" d="M53.6908 26.147C53.9429 26.147 54.1473 25.9407 54.1473 25.6863C54.1473 25.4319 53.9429 25.2256 53.6908 25.2256C53.4387 25.2256 53.2344 25.4319 53.2344 25.6863C53.2344 25.9407 53.4387 26.147 53.6908 26.147Z" fill="#C0FF58"/>
<path opacity="0.88" d="M64.8397 20.3945C65.0918 20.3945 65.2962 20.1883 65.2962 19.9338C65.2962 19.6794 65.0918 19.4731 64.8397 19.4731C64.5877 19.4731 64.3833 19.6794 64.3833 19.9338C64.3833 20.1883 64.5877 20.3945 64.8397 20.3945Z" fill="#C0FF58"/>
<path opacity="0.88" d="M67.4926 32.9009C67.7447 32.9009 67.949 32.6946 67.949 32.4402C67.949 32.1858 67.7447 31.9795 67.4926 31.9795C67.2405 31.9795 67.0361 32.1858 67.0361 32.4402C67.0361 32.6946 67.2405 32.9009 67.4926 32.9009Z" fill="#C0FF58"/>
<path opacity="0.88" d="M57.9878 20.022C58.2399 20.022 58.4443 19.8157 58.4443 19.5613C58.4443 19.3069 58.2399 19.1006 57.9878 19.1006C57.7357 19.1006 57.5314 19.3069 57.5314 19.5613C57.5314 19.8157 57.7357 20.022 57.9878 20.022Z" fill="#C0FF58"/>
<path opacity="0.88" d="M59.8996 19.8872C60.1516 19.8872 60.356 19.681 60.356 19.4265C60.356 19.1721 60.1516 18.9658 59.8996 18.9658C59.6475 18.9658 59.4431 19.1721 59.4431 19.4265C59.4431 19.681 59.6475 19.8872 59.8996 19.8872Z" fill="#C0FF58"/>
<path opacity="0.88" d="M62.8927 17.3308C63.1448 17.3308 63.3492 17.1246 63.3492 16.8701C63.3492 16.6157 63.1448 16.4094 62.8927 16.4094C62.6406 16.4094 62.4363 16.6157 62.4363 16.8701C62.4363 17.1246 62.6406 17.3308 62.8927 17.3308Z" fill="#C0FF58"/>
<path opacity="0.88" d="M35.57 23.8198C35.8221 23.8198 36.0264 23.6136 36.0264 23.3591C36.0264 23.1047 35.8221 22.8984 35.57 22.8984C35.3179 22.8984 35.1135 23.1047 35.1135 23.3591C35.1135 23.6136 35.3179 23.8198 35.57 23.8198Z" fill="#C0FF58"/>
<path opacity="0.88" d="M33.6872 27.0928C33.9392 27.0928 34.1436 26.8865 34.1436 26.6321C34.1436 26.3777 33.9392 26.1714 33.6872 26.1714C33.4351 26.1714 33.2307 26.3777 33.2307 26.6321C33.2307 26.8865 33.4351 27.0928 33.6872 27.0928Z" fill="#C0FF58"/>
<path opacity="0.88" d="M23.2948 35.3333C23.5469 35.3333 23.7513 35.127 23.7513 34.8726C23.7513 34.6181 23.5469 34.4119 23.2948 34.4119C23.0427 34.4119 22.8384 34.6181 22.8384 34.8726C22.8384 35.127 23.0427 35.3333 23.2948 35.3333Z" fill="#C0FF58"/>
<path opacity="0.88" d="M21.7562 38.323C22.0083 38.323 22.2127 38.1168 22.2127 37.8623C22.2127 37.6079 22.0083 37.4016 21.7562 37.4016C21.5042 37.4016 21.2998 37.6079 21.2998 37.8623C21.2998 38.1168 21.5042 38.323 21.7562 38.323Z" fill="#C0FF58"/>
<path opacity="0.88" d="M43.8168 7.79909C44.0689 7.79909 44.2732 7.59282 44.2732 7.33839C44.2732 7.08395 44.0689 6.87769 43.8168 6.87769C43.5647 6.87769 43.3604 7.08395 43.3604 7.33839C43.3604 7.59282 43.5647 7.79909 43.8168 7.79909Z" fill="#C0FF58"/>
<path opacity="0.88" d="M53.4354 12.1345C53.6875 12.1345 53.8919 11.9283 53.8919 11.6738C53.8919 11.4194 53.6875 11.2131 53.4354 11.2131C53.1834 11.2131 52.979 11.4194 52.979 11.6738C52.979 11.9283 53.1834 12.1345 53.4354 12.1345Z" fill="#C0FF58"/>
<path opacity="0.88" d="M35.3981 45.0144C35.6502 45.0144 35.8545 44.8082 35.8545 44.5537C35.8545 44.2993 35.6502 44.093 35.3981 44.093C35.146 44.093 34.9417 44.2993 34.9417 44.5537C34.9417 44.8082 35.146 45.0144 35.3981 45.0144Z" fill="#C0FF58"/>
<path opacity="0.88" d="M36.7804 41.7461C37.0325 41.7461 37.2369 41.5398 37.2369 41.2854C37.2369 41.031 37.0325 40.8247 36.7804 40.8247C36.5283 40.8247 36.324 41.031 36.324 41.2854C36.324 41.5398 36.5283 41.7461 36.7804 41.7461Z" fill="#C0FF58"/>
<path opacity="0.88" d="M31.3018 45.1267C32.1076 45.1267 32.7608 44.4673 32.7608 43.654C32.7608 42.8407 32.1076 42.1814 31.3018 42.1814C30.496 42.1814 29.8428 42.8407 29.8428 43.654C29.8428 44.4673 30.496 45.1267 31.3018 45.1267Z" fill="#C0FF58"/>
<path opacity="0.88" d="M52.9854 38.507C53.7912 38.507 54.4444 37.8477 54.4444 37.0344C54.4444 36.2211 53.7912 35.5618 52.9854 35.5618C52.1796 35.5618 51.5264 36.2211 51.5264 37.0344C51.5264 37.8477 52.1796 38.507 52.9854 38.507Z" fill="#C0FF58"/>
<path opacity="0.88" d="M63.8474 25.244C64.2568 25.244 64.5887 24.909 64.5887 24.4958C64.5887 24.0826 64.2568 23.7476 63.8474 23.7476C63.438 23.7476 63.1061 24.0826 63.1061 24.4958C63.1061 24.909 63.438 25.244 63.8474 25.244Z" fill="#C0FF58"/>
<path opacity="0.88" d="M27.4293 20.6903C27.8387 20.6903 28.1706 20.3553 28.1706 19.9421C28.1706 19.5288 27.8387 19.1938 27.4293 19.1938C27.0199 19.1938 26.688 19.5288 26.688 19.9421C26.688 20.3553 27.0199 20.6903 27.4293 20.6903Z" fill="#C0FF58"/>
<path opacity="0.88" d="M55.8633 29.9008C56.2358 29.9008 56.5378 29.5959 56.5378 29.2199C56.5378 28.8439 56.2358 28.5391 55.8633 28.5391C55.4907 28.5391 55.1887 28.8439 55.1887 29.2199C55.1887 29.5959 55.4907 29.9008 55.8633 29.9008Z" fill="#C0FF58"/>
<path opacity="0.88" d="M25.7421 42.8786C26.1146 42.8786 26.4166 42.5737 26.4166 42.1977C26.4166 41.8217 26.1146 41.5168 25.7421 41.5168C25.3695 41.5168 25.0675 41.8217 25.0675 42.1977C25.0675 42.5737 25.3695 42.8786 25.7421 42.8786Z" fill="#C0FF58"/>
<path opacity="0.88" d="M41.7124 51.6188C42.085 51.6188 42.387 51.314 42.387 50.9379C42.387 50.5619 42.085 50.2571 41.7124 50.2571C41.3399 50.2571 41.0378 50.5619 41.0378 50.9379C41.0378 51.314 41.3399 51.6188 41.7124 51.6188Z" fill="#C0FF58"/>
<path opacity="0.88" d="M53.9733 48.85C54.3458 48.85 54.6478 48.5452 54.6478 48.1691C54.6478 47.7931 54.3458 47.4883 53.9733 47.4883C53.6007 47.4883 53.2987 47.7931 53.2987 48.1691C53.2987 48.5452 53.6007 48.85 53.9733 48.85Z" fill="#C0FF58"/>
<path opacity="0.88" d="M42.8782 47.371C43.2507 47.371 43.5527 47.0662 43.5527 46.6901C43.5527 46.3141 43.2507 46.0093 42.8782 46.0093C42.5056 46.0093 42.2036 46.3141 42.2036 46.6901C42.2036 47.0662 42.5056 47.371 42.8782 47.371Z" fill="#C0FF58"/>
<path opacity="0.88" d="M52.663 9.2881C52.9151 9.2881 53.1194 9.08184 53.1194 8.8274C53.1194 8.57296 52.9151 8.3667 52.663 8.3667C52.4109 8.3667 52.2065 8.57296 52.2065 8.8274C52.2065 9.08184 52.4109 9.2881 52.663 9.2881Z" fill="#C0FF58"/>
<path opacity="0.88" d="M56.8397 11.5737C57.0918 11.5737 57.2962 11.3675 57.2962 11.113C57.2962 10.8586 57.0918 10.6523 56.8397 10.6523C56.5877 10.6523 56.3833 10.8586 56.3833 11.113C56.3833 11.3675 56.5877 11.5737 56.8397 11.5737Z" fill="#C0FF58"/>
<path d="M49.631 15.9475L36.1837 32.7789L42.3568 32.8231L37.6504 46.2456L51.4258 28.7917L45.1292 28.8149L49.631 15.9475Z" fill="#C0FF58"/>
<path d="M93.1442 20.776C93.2405 21.256 93.2886 21.72 93.2886 22.168C93.2886 22.584 93.2405 23.032 93.1442 23.512L87.0295 23.464V39.592C87.0295 40.936 87.6554 41.608 88.9072 41.608H92.5664C92.7911 42.152 92.9035 42.696 92.9035 43.24C92.9035 43.784 92.8714 44.12 92.8072 44.248C91.3307 44.44 89.806 44.536 88.2332 44.536C85.1197 44.536 83.5629 43.208 83.5629 40.552V23.464L80.1444 23.512C80.0481 23.032 80 22.584 80 22.168C80 21.72 80.0481 21.256 80.1444 20.776L83.5629 20.824V15.784C83.5629 14.92 83.6913 14.312 83.9481 13.96C84.2049 13.576 84.7024 13.384 85.4406 13.384H86.7406L87.0295 13.672V20.872L93.1442 20.776Z" fill="white"/>
<path d="M116.442 21.016L109.846 43.528C108.626 47.656 107.326 50.568 105.946 52.264C104.566 53.96 102.496 54.808 99.7351 54.808C98.3228 54.808 97.0228 54.6 95.8352 54.184C95.7389 53.288 95.9957 52.424 96.6055 51.592C97.6006 51.944 98.6598 52.12 99.7833 52.12C101.484 52.12 102.784 51.544 103.683 50.392C104.582 49.24 105.4 47.448 106.139 45.016L106.283 44.536C105.449 44.472 104.807 44.28 104.357 43.96C103.94 43.64 103.587 43.048 103.298 42.184L96.5574 21.064C97.5524 20.648 98.2586 20.44 98.6759 20.44C99.6067 20.44 100.233 21 100.554 22.12L104.357 34.168C104.486 34.552 105.224 37.048 106.572 41.656C106.636 41.88 106.797 41.992 107.053 41.992L112.927 20.776C113.345 20.648 113.89 20.584 114.564 20.584C115.271 20.584 115.864 20.68 116.346 20.872L116.442 21.016Z" fill="white"/>
<path d="M125.694 42.76V52.264C125.694 53.128 125.565 53.736 125.308 54.088C125.052 54.472 124.538 54.664 123.768 54.664H122.468L122.179 54.376V20.92L122.468 20.632H123.72C124.49 20.632 125.004 20.84 125.26 21.256C125.549 21.64 125.694 22.28 125.694 23.176V23.416C127.62 21.272 129.915 20.2 132.579 20.2C135.307 20.2 137.361 21.304 138.742 23.512C140.122 25.688 140.812 28.712 140.812 32.584C140.812 34.472 140.555 36.168 140.041 37.672C139.56 39.176 138.902 40.456 138.067 41.512C137.265 42.536 136.334 43.336 135.275 43.912C134.216 44.456 133.124 44.728 132.001 44.728C129.786 44.728 127.684 44.072 125.694 42.76ZM125.694 27.16V39.496C127.652 40.936 129.497 41.656 131.231 41.656C132.964 41.656 134.392 40.888 135.516 39.352C136.639 37.816 137.201 35.496 137.201 32.392C137.201 30.856 137.056 29.528 136.767 28.408C136.511 27.256 136.158 26.312 135.708 25.576C135.259 24.808 134.729 24.248 134.119 23.896C133.542 23.512 132.916 23.32 132.242 23.32C130.958 23.32 129.738 23.656 128.582 24.328C127.427 25 126.464 25.944 125.694 27.16Z" fill="white"/>
<path d="M165.192 33.64H150.266C150.427 39.08 152.497 41.8 156.477 41.8C158.66 41.8 160.987 41.128 163.459 39.784C164.165 40.424 164.598 41.24 164.759 42.232C162.127 44.024 159.174 44.92 155.9 44.92C154.231 44.92 152.802 44.616 151.615 44.008C150.427 43.368 149.448 42.504 148.678 41.416C147.939 40.296 147.394 38.984 147.041 37.48C146.687 35.976 146.511 34.328 146.511 32.536C146.511 30.712 146.72 29.048 147.137 27.544C147.586 26.04 148.228 24.744 149.063 23.656C149.897 22.568 150.892 21.72 152.048 21.112C153.235 20.504 154.584 20.2 156.092 20.2C157.569 20.2 158.885 20.472 160.04 21.016C161.228 21.528 162.207 22.248 162.977 23.176C163.78 24.072 164.39 25.16 164.807 26.44C165.224 27.688 165.433 29.032 165.433 30.472C165.433 31.048 165.401 31.608 165.336 32.152C165.304 32.664 165.256 33.16 165.192 33.64ZM150.266 30.904H161.822V30.28C161.822 28.072 161.356 26.296 160.425 24.952C159.495 23.608 158.098 22.936 156.237 22.936C154.407 22.936 152.979 23.656 151.952 25.096C150.956 26.536 150.395 28.472 150.266 30.904Z" fill="white"/>
<path d="M170.148 42.664C170.18 41.96 170.372 41.192 170.726 40.36C171.111 39.496 171.544 38.824 172.026 38.344C174.561 39.72 176.792 40.408 178.718 40.408C179.777 40.408 180.628 40.2 181.27 39.784C181.944 39.368 182.281 38.808 182.281 38.104C182.281 36.984 181.414 36.088 179.681 35.416L176.985 34.408C172.94 32.936 170.918 30.584 170.918 27.352C170.918 26.2 171.127 25.176 171.544 24.28C171.993 23.352 172.603 22.568 173.374 21.928C174.176 21.256 175.123 20.744 176.214 20.392C177.306 20.04 178.525 19.864 179.874 19.864C180.483 19.864 181.157 19.912 181.896 20.008C182.666 20.104 183.436 20.248 184.207 20.44C184.977 20.6 185.715 20.792 186.422 21.016C187.128 21.24 187.738 21.48 188.251 21.736C188.251 22.536 188.091 23.368 187.77 24.232C187.449 25.096 187.015 25.736 186.47 26.152C183.934 25.032 181.735 24.472 179.874 24.472C179.039 24.472 178.381 24.68 177.9 25.096C177.418 25.48 177.177 25.992 177.177 26.632C177.177 27.624 177.98 28.408 179.585 28.984L182.522 30.04C184.64 30.776 186.213 31.784 187.24 33.064C188.267 34.344 188.781 35.832 188.781 37.528C188.781 39.8 187.93 41.624 186.229 43C184.528 44.344 182.088 45.016 178.911 45.016C175.797 45.016 172.876 44.232 170.148 42.664Z" fill="white"/>
<path d="M212.345 34.456H199.057C199.153 36.216 199.554 37.608 200.261 38.632C200.999 39.624 202.267 40.12 204.064 40.12C205.926 40.12 208.06 39.576 210.468 38.488C211.399 39.448 211.992 40.712 212.249 42.28C209.681 44.104 206.6 45.016 203.005 45.016C199.603 45.016 197.019 43.976 195.253 41.896C193.52 39.784 192.653 36.664 192.653 32.536C192.653 30.616 192.878 28.888 193.327 27.352C193.777 25.784 194.435 24.456 195.301 23.368C196.168 22.248 197.227 21.384 198.479 20.776C199.731 20.168 201.159 19.864 202.764 19.864C204.401 19.864 205.846 20.12 207.097 20.632C208.349 21.112 209.409 21.816 210.275 22.744C211.142 23.64 211.784 24.712 212.201 25.96C212.65 27.208 212.875 28.568 212.875 30.04C212.875 30.84 212.827 31.608 212.731 32.344C212.634 33.048 212.506 33.752 212.345 34.456ZM203.053 24.376C200.549 24.376 199.201 26.264 199.009 30.04H207.001V29.464C207.001 27.928 206.68 26.696 206.038 25.768C205.396 24.84 204.401 24.376 203.053 24.376Z" fill="white"/>
<path d="M238.732 28.312V38.776C238.732 40.824 239.069 42.344 239.744 43.336C238.716 44.232 237.481 44.68 236.036 44.68C234.656 44.68 233.709 44.376 233.195 43.768C232.682 43.128 232.425 42.136 232.425 40.792V29.608C232.425 28.168 232.249 27.16 231.896 26.584C231.542 26.008 230.884 25.72 229.921 25.72C228.22 25.72 226.631 26.488 225.155 28.024V44.344C224.673 44.44 224.16 44.504 223.614 44.536C223.101 44.568 222.571 44.584 222.025 44.584C221.48 44.584 220.934 44.568 220.388 44.536C219.875 44.504 219.377 44.44 218.896 44.344V20.584L219.185 20.248H221.592C223.39 20.248 224.513 21.208 224.962 23.128C227.305 21.112 229.633 20.104 231.944 20.104C234.255 20.104 235.956 20.856 237.047 22.36C238.171 23.832 238.732 25.816 238.732 28.312Z" fill="white"/>
<path d="M243.783 42.664C243.815 41.96 244.008 41.192 244.361 40.36C244.746 39.496 245.179 38.824 245.661 38.344C248.196 39.72 250.427 40.408 252.353 40.408C253.412 40.408 254.263 40.2 254.905 39.784C255.579 39.368 255.916 38.808 255.916 38.104C255.916 36.984 255.049 36.088 253.316 35.416L250.62 34.408C246.576 32.936 244.553 30.584 244.553 27.352C244.553 26.2 244.762 25.176 245.179 24.28C245.629 23.352 246.239 22.568 247.009 21.928C247.811 21.256 248.758 20.744 249.85 20.392C250.941 20.04 252.161 19.864 253.509 19.864C254.119 19.864 254.793 19.912 255.531 20.008C256.301 20.104 257.072 20.248 257.842 20.44C258.612 20.6 259.351 20.792 260.057 21.016C260.763 21.24 261.373 21.48 261.886 21.736C261.886 22.536 261.726 23.368 261.405 24.232C261.084 25.096 260.651 25.736 260.105 26.152C257.569 25.032 255.37 24.472 253.509 24.472C252.674 24.472 252.016 24.68 251.535 25.096C251.053 25.48 250.812 25.992 250.812 26.632C250.812 27.624 251.615 28.408 253.22 28.984L256.157 30.04C258.275 30.776 259.848 31.784 260.875 33.064C261.902 34.344 262.416 35.832 262.416 37.528C262.416 39.8 261.565 41.624 259.864 43C258.163 44.344 255.724 45.016 252.546 45.016C249.432 45.016 246.511 44.232 243.783 42.664Z" fill="white"/>
<path d="M285.981 34.456H272.692C272.788 36.216 273.19 37.608 273.896 38.632C274.634 39.624 275.902 40.12 277.699 40.12C279.561 40.12 281.696 39.576 284.103 38.488C285.034 39.448 285.628 40.712 285.884 42.28C283.317 44.104 280.235 45.016 276.64 45.016C273.238 45.016 270.654 43.976 268.888 41.896C267.155 39.784 266.288 36.664 266.288 32.536C266.288 30.616 266.513 28.888 266.963 27.352C267.412 25.784 268.07 24.456 268.937 23.368C269.803 22.248 270.862 21.384 272.114 20.776C273.366 20.168 274.794 19.864 276.399 19.864C278.036 19.864 279.481 20.12 280.733 20.632C281.984 21.112 283.044 21.816 283.91 22.744C284.777 23.64 285.419 24.712 285.836 25.96C286.286 27.208 286.51 28.568 286.51 30.04C286.51 30.84 286.462 31.608 286.366 32.344C286.27 33.048 286.141 33.752 285.981 34.456ZM276.688 24.376C274.185 24.376 272.836 26.264 272.644 30.04H280.636V29.464C280.636 27.928 280.315 26.696 279.673 25.768C279.031 24.84 278.036 24.376 276.688 24.376Z" fill="white"/>
<path d="M293.446 51.064V7.144C293.927 7.048 294.473 7 295.083 7C295.725 7 296.319 7.048 296.864 7.144V51.064C296.319 51.16 295.725 51.208 295.083 51.208C294.473 51.208 293.927 51.16 293.446 51.064Z" fill="white"/>
</svg>
